<svg xmlns="http://www.w3.org/2000/svg" width="3045" height="4018" viewBox="514.1 41.2 3045.8 4018.8"><path fill="#ea2e41" d="M2438.72 1382.62c76.34-66.69 141.69-143.35 214.55-213.66 4.07-3.93 8.73-6.57 14.41-6.77 5.29 4.27 3.01 3.51 9.07 4.93 38.27-18.49 104.08-207.272 141.38-212.651 19.11 11.509 5.65 56.321.33 74.031 3.35 13.13 14.17 38.23 27.69 42.89 8.62-7.2 11.29-19.61 21.1-30l2.75.81c3.78 13.76.53 21.41-3.12 34.96 32.84 28.5 29.75 33.43 42.63 74.44 3.78 12.05 12.36 19.63 24.42 24.52 69.7 28.25 105.95-40.35 167.16-59.35 43.35-13.45 67.95-12.63 107.22 5.64 33.47-18.46 97.65-62.2 127.76-84.29-12.37 42.71-88.75 133.18-91.91 154.33 18.27-5.59 40.74-17.23 57.66-26.08 38.63-23.5 38.16-40.03 94.56-60.18-16.07 27.33-35.9 52.13-51.28 78.51-31.23 53.59-55.64 109.56-81.58 165.63-6.05 14.69-40.83 94.06-38.87 103.89 4.45-.11 8.74-.02 13.16.51 12.87 16.19-35.79 65.47-34.94 87.03l2.04 1.76 7.93-.77c8.05 12.16-6.84 30.81-4.9 45.08 24.19 4.9 68.82 1.45 76.55 7.66-4.9 9.62-23.32 15.17-33.96 19.49l2.92.78c41.97 11.03 124.64 1.02 145.57 14.04l.31 3.45c-12.53 11.53-108.58 31.62-127.6 50.2 40.37 2.24 169.58-4.96 192.43 3.16l1.73 2.91c-5.03 9-73.01 32.23-90.93 41.47-53.31 27.51-88.49 58.49-135.53 93.33-26.29 19.48-73.97 46.08-103.66 60.9-13.64 11.05-49.51 31.78-65.05 40.57-42.71 24.13-76.57 42.57-115.82 72.15-7.13 7.64-12.54 10.68-18.13 16.33-15.04 19.48-133.32 96.79-160.08 94.27 15.36-21.86 67.81-44.49 68.97-68.55l-6.8 1.31c-17.08 17-67.53 51.98-78.63 68.26-10.02 9.4-78.59 49.85-92.2 57.72 17.72 43.26 38.84 67.6 62.41 106.78 14.65 24.36 23.66 49.44 33.36 75.95.34 6.58 1.08 6.78-1.12 12.69-3.1-5.34-6.08-10.75-8.91-16.24l-1.95 1.86 2.91 15.63-1.48 1.81c-4.71-6.74-10.11-23.99-11.57-32.3-3.27-6.34-12.8-19.21-17.25-25.58 2.09 27.6 33.82 69.78 46.35 92.3 10.67 11.11 27.24 42.58 35.84 57.21-4.45-1.06-16.91-4.36-20.79-4.71-6.66 4.44-16.3 2.46-24.86 3.13-4.49.2-14.46-2.62-17.27-2.25-28.98 3.85-31.31-2.06-54.74-16.96-9.9.05-20.22-.06-30.1-.69-27.38-1.74-52.34-11.69-79.94-9.88-18.9.75-104.68-4.75-121.73-9.5-60.12-16.76-113.22-22.88-176.25-26.64-16.75-2.8-43.55-2.47-60.93-3.26-57.01-2.58-115.24 1.94-171.99 1-23.07.27-46.14.31-69.21.14-37.56 1.67-127.68 1.35-161.26 6.08-23.57 1-82.99 3.75-105.45 8.06-47.28 6.22-86.68 15.5-132.49 28.6-27.36 7.83-56.05 1.95-81.71 18.51-15.61 10.16-70.48 57.26-83.21 30.39 1.33-16.63 15.84-19.08 29.29-23.7l-1.17-6.57-2.09-2.32c-7.26-22.96 21.93-58.9 24.61-77.66l-3.53-4.3c-40.04 15.73-60.17 34.66-95.03 58.26 9.99-14.79 27.33-46.46 38.76-56.76 19.8-17.85 35.21-20.57 52.27-45.2-3.87-26.6-9-68.43 12.4-88.85 19.52-18.61 39.38-27.77 51.84-53.57-1.2-2.61-2.86-6.5-5.42-8.13-70.56-44.74-134.3-99.05-203.18-146.12-33.3-22.47-67.11-44.17-101.4-65.09-28.28-13.58-105.5-65.29-131.64-84.19-7.46-4.32-13.74-14.5-20.45-17.41-51.93-22.52-98.515-59.19-149.764-81.63-24.904-10.9-62.131-17.81-88.691-25.28-6.176-22.34 26.826-14.24 39.505-12.9 12.636 2.6 66.364 17.66 72.498 17.33-13.268-10.22-25.77-17.85-41.029-24.55-29.842-14.13-56.319-28.4-84.576-45.39-11.426-6.86-51.886-7.66-54.804-23.94 9.588-11.88 62.17-4.71 76.734-3.61 28.684-19.85 57.211-16.17 90.036-25.59 7.922-2.27 27.413-13.03 33.506-13.72 12.326-1.39 45.255 36.9 58.165 17.29-5.74-17.1-32.726-24.01-48.985-25.04 26.599-19.15 41.405-26.2 54.305-57.13-12.64-27.33-116.94-123.2-92.404-146.37 12.426-2.91 20.524 1.83 31.166 7.46-3.31-26.32-6.889-71.68-23.208-93.11-10.697-14.04-51.808-49.03-49.491-70.35 7.807-5.81 8.985.28 19.619-4.15 2.991-16.81-38.131-57.47-39.58-69.5 4.789-4.88 6.301-3.68 14.531-5.38l1.061-2.44c-16.37-21.56-85.741-86.52-96.654-105.46l1.67-4.02c13.143-5.13 35.208 9.51 45.684 18 40.079 32.46 91.012 54.39 140.03 69.9-6.368-10.26-20.972-25.2-24.196-34.6 49.496-13.24 169.062 80.39 198.252 68.18 8.88-3.72 8.88-19.73 11.64-27.8 2.58-7.53 5.28-11.54 12.49-15.05 14 1.47 22.98 20.87 35.21 31.39l30.21 5.37 7.82 11.96c4.32 6.7 7.64 13.8 16.53 13.22 3.38-8.71.83-18.36-2.15-26.8l-5.08-14.36c2.93-12.12 10.25-54.27 23.73-54.16 6.34 5.18 7.66 13.2 10.2 21.26 13.25-27.78 44.99-74.32 37.84-101.98-7.98-30.878-10.14-32.313-6.24-63.977 7.01 6.883 58.16 74.357 66.02 84.897 64.93 87.1 136.44 174.76 193.61 266.88 15.97 28.4 44.19 52.4 77.23 57.91 24.25 4.04 48.05 8.27 46.55-23.24l5.69-.52c1.37 53.8 1.97 107.61 1.77 161.42.09 92.96-9.2 182.26 66.45 251.81 83.41 76.67 177.24 70.7 282.7 70.01 116.36-.76 234.99 16.14 323-79.56 56.61-61.55 57.64-125.08 57.72-203.68l-.05-102.62c-.05-14.45-1.65-50.01 2.5-61.56m205.19 1047.89c3.64-1.6 4.38-1.59 8.24-1.95l3.68-.32.64-2.52c-11.03-4.55-46.32-20.24-52.05-6.18 13.62 3.47 25.78 8.29 39.49 10.97" /><path fill="#fdfcfb" fill-opacity=".278" d="M2604.42 2419.54c5.73-14.06 41.02 1.63 52.05 6.18l-.64 2.52-3.68.32c-3.86.36-4.6.35-8.24 1.95-13.71-2.68-25.87-7.5-39.49-10.97" /><path fill="#03294f" d="M3271.73 1683.45c40.37 2.24 169.58-4.96 192.43 3.16l1.73 2.91c-5.03 9-73.01 32.23-90.93 41.47-53.31 27.51-88.49 58.49-135.53 93.33-26.29 19.48-73.97 46.08-103.66 60.9-13.64 11.05-49.51 31.78-65.05 40.57-42.71 24.13-76.57 42.57-115.82 72.15-7.13 7.64-12.54 10.68-18.13 16.33-15.04 19.48-133.32 96.79-160.08 94.27 15.36-21.86 67.81-44.49 68.97-68.55l-6.8 1.31c-17.08 17-67.53 51.98-78.63 68.26-10.02 9.4-78.59 49.85-92.2 57.72 17.72 43.26 38.84 67.6 62.41 106.78 14.65 24.36 23.66 49.44 33.36 75.95.34 6.58 1.08 6.78-1.12 12.69-3.1-5.34-6.08-10.75-8.91-16.24l-1.95 1.86 2.91 15.63-1.48 1.81c-4.71-6.74-10.11-23.99-11.57-32.3-3.27-6.34-12.8-19.21-17.25-25.58-16.27-24.82-62.5-98.17-73.73-124.21-1.43-1.64-4.02-7.84-5.1-10.2-3.15-18.06-9.21-53.85 3.93-67.54 38.11-39.68 89.87-82.9 134.47-114.71 6.71-5.58 23.34-20.65 30.36-22.01l1.45 4.54 7.89 6.99c11.76-7.25 31.96-22.94 43.73-31.87 66.95-50.82 138.59-88.42 209.78-131.75 62.4-38.71 123.35-79.71 182.73-122.92 4.16-3.6 7.81-6.99 11.79-10.75" /><path fill="#bb8944" d="M3271.73 1683.45c40.37 2.24 169.58-4.96 192.43 3.16l1.73 2.91c-5.03 9-73.01 32.23-90.93 41.47-53.31 27.51-88.49 58.49-135.53 93.33-26.29 19.48-73.97 46.08-103.66 60.9-13.64 11.05-49.51 31.78-65.05 40.57-42.71 24.13-76.57 42.57-115.82 72.15-7.13 7.64-12.54 10.68-18.13 16.33-8.49-4.1-5.49-1.15-10.22-8.17 2.21-18.25 58.11-46.6 75.42-62.01 41.96-37.34 87.82-76.22 130.63-111.13 31.73-25.88 185.28-111.77 193.78-135.28-7.21-7.02-31.13 1.58-42.65.55-9.01-.81-15.07-2.16-23.79-4.03 4.16-3.6 7.81-6.99 11.79-10.75" /><path fill="#03294f" d="m2954.9 1997.94-1.36-4.08c3.95-9.31 58.58-47.26 70.24-55.91 44.83-33.26 86.73-80.65 136.26-105.7 17.78-8.99 64.97-17.19 85.57-20.82-38.55 24.23-75.25 41.06-109.84 73.79-13.64 11.05-49.51 31.78-65.05 40.57-42.71 24.13-76.57 42.57-115.82 72.15" /><path fill="#a2773a" d="M2828.81 2030.84c21.73-15.9 43.34-31.63 64.56-48.22 17.56-13.73 35.38-30.44 53.04-43.58-14.48 23.82-20.86 34.52-40.66 53.76-11.54 11.2-58.58 35.42-61.52 42.04l1.43 5.15-6.8 1.31c-17.08 17-67.53 51.98-78.63 68.26-10.02 9.4-78.59 49.85-92.2 57.72 17.72 43.26 38.84 67.6 62.41 106.78 14.65 24.36 23.66 49.44 33.36 75.95.34 6.58 1.08 6.78-1.12 12.69-3.1-5.34-6.08-10.75-8.91-16.24l-1.95 1.86 2.91 15.63-1.48 1.81c-4.71-6.74-10.11-23.99-11.57-32.3-3.27-6.34-12.8-19.21-17.25-25.58-16.27-24.82-62.5-98.17-73.73-124.21-1.43-1.64-4.02-7.84-5.1-10.2 6.28-2.42 13.82-4.71 20.3-6.86 32.37-45.26 60.55-59.48 104.84-91.36a1837 1837 0 0 0 58.07-44.41" /><path fill="#fdfcfb" d="M2650.7 2183.67c19.79 18.2 99.31 129.03 90.98 149.79-3.27-6.34-12.8-19.21-17.25-25.58-16.27-24.82-62.5-98.17-73.73-124.21" /><path fill="#03294f" d="M2784 1991.22c6.71-5.58 23.34-20.65 30.36-22.01l1.45 4.54-23.39 25.96c-2.3-1.83-6.22-6.19-8.42-8.49" /><path fill="#f64246" d="m2792.42 1999.71 23.39-25.96 7.89 6.99c-9.52 7.95-18.81 16.49-29.54 22.55l-2.85-.93z" /><path fill="#f64246" d="m3140.78 1795.83 5.6.32 2.2 2.99c-3.99 8.19-97.24 56.36-112.8 66.1l-5.5 1.45c7.73-17.41 90.01-62.51 110.5-70.86" /><path fill="#03294f" d="M1836.13 2336.98c64-9.22 140.67-9.07 205.01-8.98 148.63.18 299.68 3.09 445.1 36.21 50.31 11.46 97.95 21.83 145.67 43.59 19.99 8.92 28.82 13.16 47 25.45-8.46-.52-27.34-1.29-35-2.74 3.64-1.6 4.38-1.59 8.24-1.95l3.68-.32.64-2.52c-11.03-4.55-46.32-20.24-52.05-6.18-6.48 3.96-17.63 5.11-25.5 6.49-18.9.75-104.68-4.75-121.73-9.5-60.12-16.76-113.22-22.88-176.25-26.64-16.75-2.8-43.55-2.47-60.93-3.26-57.01-2.58-115.24 1.94-171.99 1-23.07.27-46.14.31-69.21.14 16.09-4.76 26.17 1.2 38.2-6.21 3.82-5.55 3.78-5.07 3.81-11.78-9.56-.13-19.84-.91-29.44-1.46-7.92-20.73-30.89-20.73-50.73-21.57-44.97-1.91-90.46.99-135.41 3.18 8.14-6.24 17.91-5.34 31.11-9.35z" /><path fill="#bb8944" d="M2020.82 2369.78c60.33-1.35 96.86-21.21 159.86-.74-56.95 1.31-83.02 11.07-133.04 15.73.17 2.74-.09 2.08.38 2.86-23.07.27-46.14.31-69.21.14 16.09-4.76 26.17 1.2 38.2-6.21 3.82-5.55 3.78-5.07 3.81-11.78" /><path fill="#fdfcfb" d="M2369.94 2376.88c10.38-.3 13.77-.34 23.94 1.33l-4.17.75c16.95 2.56 36.01 2.4 53.18 4.39 59.63 6.93 101.01 7.58 159.2 26.63l-.6 6.06c-13.67 5.3-101.16-12.1-121.51-16.32-15.14-3.14-104.17-14.47-110.04-22.84" /><path fill="#03294f" d="M3301.82 1166.37c38.63-23.5 38.16-40.03 94.56-60.18-16.07 27.33-35.9 52.13-51.28 78.51-31.23 53.59-55.64 109.56-81.58 165.63-6.05 14.69-40.83 94.06-38.87 103.89 4.45-.11 8.74-.02 13.16.51 12.87 16.19-35.79 65.47-34.94 87.03l2.04 1.76 7.93-.77c8.05 12.16-6.84 30.81-4.9 45.08-30.44 2.19-91.29-44.6-77.02-68.77 31.11-52.71 53.99-80.48 67.24-143.97-8.7 4.87-22.16 15.16-30.75 21.35.93-49.64 51.22-159.56 76.75-203.99 18.27-5.59 40.74-17.23 57.66-26.08" /><path fill="#bb8944" d="M3301.82 1166.37c38.63-23.5 38.16-40.03 94.56-60.18-16.07 27.33-35.9 52.13-51.28 78.51-31.23 53.59-55.64 109.56-81.58 165.63l-3.36-.83c-23.19 32.65-39.71 82-63.77 118.76.02-.61.04-1.22.07-1.83l.18-3.05c1.45-25.69 11.42-60.4 18.49-85.67 21.26-75.92 45.75-143.63 86.69-211.34" /><path fill="#fdfcfb" d="M1639.65 2363.32c65.21-7.37 129.95-21.37 196.48-26.34l.22 3.6c-13.2 4.01-22.97 3.11-31.11 9.35 44.95-2.19 90.44-5.09 135.41-3.18 19.84.84 42.81.84 50.73 21.57 9.6.55 19.88 1.33 29.44 1.46-.03 6.71.01 6.23-3.81 11.78-12.03 7.41-22.11 1.45-38.2 6.21-37.56 1.67-127.68 1.35-161.26 6.08-23.57 1-82.99 3.75-105.45 8.06-47.28 6.22-86.68 15.5-132.49 28.6-27.36 7.83-56.05 1.95-81.71 18.51-15.61 10.16-70.48 57.26-83.21 30.39 1.33-16.63 15.84-19.08 29.29-23.7l-1.17-6.57c-.12-1.21.34-4.02.51-5.37 15.44-12.53 84.56-38.74 104.9-42.69-5.77-2.28-3.68-1.05-8.06-5.92-9.13 2.65-14.79 4.29-24.15 5.72l-1.97-1.68c-.49-8.7-1.83-5.36 1.81-11.35 16.83-6.59 103.09-21.45 123.8-24.53" /><path fill="#bb8944" d="M1639.65 2363.32c65.21-7.37 129.95-21.37 196.48-26.34l.22 3.6c-13.2 4.01-22.97 3.11-31.11 9.35 44.95-2.19 90.44-5.09 135.41-3.18 19.84.84 42.81.84 50.73 21.57l-4.92.96c-19.87-10.52-162.59 5.63-194.06 4.87-35.81-.86-85.15-.27-121.85 1.24-42.95 7.58-74.05 20.04-122.33 25.69-5.77-2.28-3.68-1.05-8.06-5.92-9.13 2.65-14.79 4.29-24.15 5.72l-1.97-1.68c-.49-8.7-1.83-5.36 1.81-11.35 16.83-6.59 103.09-21.45 123.8-24.53" /><path fill="#03294f" d="M1639.65 2363.32c65.21-7.37 129.95-21.37 196.48-26.34l.22 3.6c-13.2 4.01-22.97 3.11-31.11 9.35-96.38 7.83-171.37 19.52-265.08 45.23-9.13 2.65-14.79 4.29-24.15 5.72l-1.97-1.68c-.49-8.7-1.83-5.36 1.81-11.35 16.83-6.59 103.09-21.45 123.8-24.53" /><path fill="#bb8944" d="M1476.3 2446.79c58.09-34.32 149.43-43.22 216.68-51.96l1.2 4.79c5.51 3.19 11.31 2.31 17.92 2.29-47.28 6.22-86.68 15.5-132.49 28.6-27.36 7.83-56.05 1.95-81.71 18.51-15.61 10.16-70.48 57.26-83.21 30.39 1.33-16.63 15.84-19.08 29.29-23.7l1.29 1c5.82 1.55 23.9-7.07 31.03-9.92" /><path fill="#ea2e41" d="M1991.38 2368.32c9.6.55 19.88 1.33 29.44 1.46-.03 6.71.01 6.23-3.81 11.78-12.03 7.41-22.11 1.45-38.2 6.21-37.56 1.67-127.68 1.35-161.26 6.08-23.57 1-82.99 3.75-105.45 8.06-6.61.02-12.41.9-17.92-2.29l-1.2-4.79c83.39-7.64 165.47-23.73 250.68-20.26 16.16.66 27.51.43 42.8-5.29z" /><path fill="#03294f" d="M1080.4 1875.21c-7.46-4.32-13.74-14.5-20.45-17.41-51.93-22.52-98.515-59.19-149.764-81.63-24.904-10.9-62.131-17.81-88.691-25.28-6.176-22.34 26.826-14.24 39.505-12.9 12.636 2.6 66.364 17.66 72.498 17.33 6.162 5.81 22.047 25.81 24.026 26.92 9.026 5.11 26.85 14.65 34.412 20.41l130.024 68.16c17.62 9.19 61.98 31.66 75.73 41.44l.52 3.18-5.33 7.26c4.58 8.68 31.17 12.46 37.4 16.78 23.05 15.98 35.38 33.54 59.96 51.36l-6.78 3.07c-14.76-7.29-58.6-38.42-69.92-38.38l-1.5 3.88c-28.28-13.58-105.5-65.29-131.64-84.19" /><path fill="#bb8944" d="M1080.4 1875.21c-7.46-4.32-13.74-14.5-20.45-17.41-51.93-22.52-98.515-59.19-149.764-81.63-24.904-10.9-62.131-17.81-88.691-25.28-6.176-22.34 26.826-14.24 39.505-12.9 12.636 2.6 66.364 17.66 72.498 17.33 6.162 5.81 22.047 25.81 24.026 26.92 9.026 5.11 26.85 14.65 34.412 20.41 3.092 7.34 8.664 15.49 10.164 20.79 17.38 6.86 117.04 52.58 126.88 64.22l-.35 3.25c-10.95 5.71-35.6-10.2-48.23-15.7" /><path fill="#0c1c48" d="M1002.1 1823.44c-22.118-8.39-23.548-29.83-50.26-36.09l-.829-2.41 6.513-2.7c9.026 5.11 26.85 14.65 34.412 20.41 3.092 7.34 8.664 15.49 10.164 20.79" /><path fill="#03294f" d="M2548.43 2353.25c67.72 10.03 137.14 32.24 201.96 53.51 5.2 1.7 15.32-3.63 20.39-6.58 10.67 11.11 27.24 42.58 35.84 57.21-4.45-1.06-16.91-4.36-20.79-4.71-6.66 4.44-16.3 2.46-24.86 3.13-4.49.2-14.46-2.62-17.27-2.25-28.98 3.85-31.31-2.06-54.74-16.96-9.9.05-20.22-.06-30.1-.69-27.38-1.74-52.34-11.69-79.94-9.88 7.87-1.38 19.02-2.53 25.5-6.49 13.62 3.47 25.78 8.29 39.49 10.97 7.66 1.45 26.54 2.22 35 2.74-18.18-12.29-27.01-16.53-47-25.45 6.9-3.4 7.27-4.43 11.81-10.36-28.51-13.76-63.45-29.34-94.05-36.04z" /><path fill="#bb8944" d="M2643.72 2397.44c22.79 10.78 47.21 24.62 69.78 34.06 19.22 8.04 53.01 13.55 72.33 21.18-6.66 4.44-16.3 2.46-24.86 3.13-4.49.2-14.46-2.62-17.27-2.25-28.98 3.85-31.31-2.06-54.74-16.96-9.9.05-20.22-.06-30.1-.69-27.38-1.74-52.34-11.69-79.94-9.88 7.87-1.38 19.02-2.53 25.5-6.49 13.62 3.47 25.78 8.29 39.49 10.97 7.66 1.45 26.54 2.22 35 2.74-18.18-12.29-27.01-16.53-47-25.45 6.9-3.4 7.27-4.43 11.81-10.36" /><path fill="#bb8944" d="M1565.7 2361.35c12.62-2.86 99.86-27.74 106.43-26.37-11.4 10.17-35.18 9.94-36.72 26.05l4.24 2.29c-20.71 3.08-106.97 17.94-123.8 24.53-3.64 5.99-2.3 2.65-1.81 11.35l1.97 1.68c9.36-1.43 15.02-3.07 24.15-5.72 4.38 4.87 2.29 3.64 8.06 5.92-20.34 3.95-89.46 30.16-104.9 42.69-.17 1.35-.63 4.16-.51 5.37l-2.09-2.32c-7.26-22.96 21.93-58.9 24.61-77.66l-3.53-4.3c18.18-10.99 68.71-34.94 89.68-27.62 6.79 6.24 10.15 15.53 14.22 24.11" /><path fill="#bd9d5f" d="m1212.04 1959.4 1.5-3.88c11.32-.04 55.16 31.09 69.92 38.38l6.78-3.07c14.1 7 118.84 77.23 128.16 87.72 33.63 22.29 73.11 20.26 93.72 67.33 4.38 9.83 11.99 22.92 9.92 32.86-1.2-2.61-2.86-6.5-5.42-8.13-70.56-44.74-134.3-99.05-203.18-146.12-33.3-22.47-67.11-44.17-101.4-65.09" /><path fill="#03294f" d="M1418.4 2078.55c33.63 22.29 73.11 20.26 93.72 67.33-30.39-12.72-68.64-41.83-95.75-61.36z" /><path fill="#0c1c48" d="M1290.24 1990.83c14.1 7 118.84 77.23 128.16 87.72l-2.03 5.97a2351 2351 0 0 0-132.91-90.62z" /><path fill="#03294f" d="M2437.58 2336.31c20.69.44 89.55 12.11 110.85 16.94l1.24 8.15c-38.59-9.9-73.48-9.88-112.09-25.09" /><path fill="#03294f" d="M1968.23 2134.85c99.69-6.18 390.38-6.9 463.1 57.53 19.81 17.55 25.17 38.65 26.37 64.02-32.27 1.56-74.79-.14-107.71-.81l-179.42-3.5c-108.19-.26-216.39.24-324.58 1.51-50.74.64-116.44 4.46-165.82 1.9-2.02-1.98-3.48-3.68-2.94-6.97 16.72-102.74 209.95-108.73 291-113.68" /><path fill="#bb8944" d="M1813.42 2205.25c63.5-36.51 99.58-35.89 172.86-42.2-3.88 1.45-34.95 14.57-35.59 14.62-52.09 4.5-84.44 6.73-132.15 30.73z" /><path fill="#a2773a" d="M1818.54 2208.4c-6.98 4.68-20.22 14.86-27.78 14.24 5.91-7.49 14.5-12.1 22.66-17.39z" /><path fill="#03294f" d="M2002.15 1843.6c44.09-.27 88.18-.25 132.27.03.69 90.44.85 180.87.48 271.31-42.02.75-90.02-.72-132.6-.95z" /><defs><linearGradient id="a" x1="2028.535" x2="2065.286" y1="1923.622" y2="1926.365" gradientUnits="userSpaceOnUse"><stop offset="0" stop-color="#ab7f43" /><stop offset="1" stop-color="#c69a4f" /></linearGradient></defs><path fill="url(#a)" d="M2026.37 1887c15.7-.44 36.25-.29 51.21-3.47-40.32 42.64-38.25 58.17-42.42 114.57-1.98 18.65-5 60.84-9.33 76.76-3.4-3.91-.76-98.96-.26-110.89-.21-25.66.06-51.32.8-76.97" /><path fill="#a2773a" d="M2025.57 1963.97c1.04 13.62 1.75 27.26 2.14 40.91.4-7.11.06-16.64 3.38-22.55 4.11 5.06 3.09 8.04 4.07 15.77-1.98 18.65-5 60.84-9.33 76.76-3.4-3.91-.76-98.96-.26-110.89" /><path fill="#fdfcfb" d="M947.177 1691.7c8.652 4.92 57.653 36.76 59.533 41.95l-3.32 4.48-22.123 6.87c-25.049-9.42-33.113-27.38-34.09-53.3" /><path fill="#fdfcfb" d="M1081.43 1281.81c12.92 3.33 18.36 11.29 17.32 24.11-1.06 13.05 15.93 27.99 13.08 41l-3.54 2.1c-7.61-.79-10.9-4.35-17.06-9-4.4-3.52-3.23-1.84-5.33-7l5.8-6.83c-2.86-5.89-9.52-7.69-16.73-12.07-3.83-7.24-2.99-3.51-2.79-11.57 5.09-3.41 10.76-1.61 17.91-2.38-3.1-6.26-5.83-11.97-8.66-18.36" /><path fill="#fdfcfb" d="M1017.69 1744.83c22.6-4.36 37.12-3.28 40.5 22.48-8.47.4-36.03-13.78-40.5-22.48" /><path fill="#fdfcfb" d="M2726.51 1156.81c3.76.97 4.09 1.38 7.62 3.09l1.69 4.9c-2.72 13.02-12.53 21.99-21.43 32.09l-1.87 1.1-2.84-1.04c1.99-14.18 9.72-27.87 16.83-40.14" /><path fill="#fdfcfb" d="M1558.3 1387c1.35.62 3.63 2.38 4.96 3.31 4.28 10.03 7.21 23.45 5.3 34.29-10.67-8.08-12.84-25.23-10.26-37.6" /><path fill="#ea2e41" d="M2023.1 201.313c4.53-8.473 10.14-23.022 20.7-22.204 8.02 10.489 4.54 31.075 11.93 40.202l3.44-.852c13.38-15.81 5.35-93.117 16.91-99.973 4.95 5.61 13.7 24.435 14.03 31.631 1.63 35.601 5.57 63.411 20.48 96.302l.92 1.977c9.01-17.293 7.42-40.911 20.29-56.681l2.88.226c5.32 14.656 4.98 46.088 8.32 63.203 6.41 32.811 20.62 80.543 33.01 111.305l5.21-28.88 2.6.515c10.88 29.856 18.62 59.35 29.78 88.9 16.31 43.215 44.85 82.965 50.83 129.201 16.79-5.433 34.06-15.199 48.72-18.902-4.57 50.14-25.54 178.088 71.02 134.573 63.32-28.533 119.95-81.745 175.74-122.51 10.7-8.032 30.09-27.745 42.08-29.831 4.39 11.629-42.02 119.613-47.76 144.918 11.25 13.021 45.78-16.849 55.06-25.995 13.36-13.169 28.51-43.025 45.34-50.746l3.28.226c3.24 11.957-19.13 62.566-23.69 77.462l-33.9 109.554c-5.49 18.053-11.1 40.219-17.23 57.38-13.42 42.109-28.95 80.928-40.05 124.256-13.65 53.27-21.82 111.23-35.84 163.9-1.25 12.05-6.91 41.37-11.15 52.55-4.67 19.76-14.41 48.4-34.63 56.53l-7.31-.23c-10.42 12.16-.47 19.34-7.82 31.78 9.06 12.89 15.48 73.95-1.79 82.04-15.44 7.24-10.75 30.47-5.78 39.48-4.15 11.55-2.55 47.11-2.5 61.56l.05 102.62c-.08 78.6-1.11 142.13-57.72 203.68-88.01 95.7-206.64 78.8-323 79.56-105.46.69-199.29 6.66-282.7-70.01-75.65-69.55-66.36-158.85-66.45-251.81.2-53.81-.4-107.62-1.77-161.42l-5.69.52-2.16-1.57c-17.95-16.3-6.51-40.14-9.05-62.38-.85-7.42-.48-17.5-.76-25.14l9.99-3.42c8.48 1.21 30.97 1.9 38.52-1.02l2.01-5.35c-5.79-25.81-10.07-54.62-16.71-79.75-1.36-19.31-17.35-80.88-25.42-98.56.17 19.14 7.08 50.13 5.06 64.07-11.19-20.99-17.23-80.75-34.29-112.08l-5.36-10.06c-3.08-7.02-4.18-9.46-11.52-8.04-4.03 4.34-5.24 8.34-7.58 13.76-6.65-11.6 8.28-22.448-12.31-31.812-12.66-24.643-50.86-161.922-36.54-181.977 11.63 3.689 24.36 77.307 34.39 89.292 3.87 4.627 7.36 3.481 14.37 4.106 11.38 19.217 31.13 85.642 50.99 89.795l1.54-3.986c-1.76-13.501-12.88-33.332-18.68-46.387-36.15-81.413-61.59-168.951-85.23-254.682-3.02-10.931-3.49-55.648-14.83-59.543-6.22 4.396-7.46 14.118-14.27 22.191l-2.93-1.302c-6.34-17.662-12.58-33.299-20.21-52.774-5.27-13.473-28.92-62.316 6.75-60.145 16.05.976 22.06 33.609 30.99 43.423 10.6 11.635 18.84 24.455 28.02 38.154 3.89-4.364 1.03-29.016 7.48-38.507 13.62 6.193 16.68 49.194 25.31 55.744 4.02-3.949 3.92-12.146 4.45-18.115 1.34-15.272 4.7-27.666 9.45-42.174 16.3 24.43 30.55 52.395 55.69 68.297 10.86.867-.64-1.464 10.29-5.758 24.16 24.005 47.49 39.585 83.79 33.263 38.19-6.65 38.93-52.367 53.75-80.015 20.66-38.526 41.78-78.338 65.07-115.409 47.1-10.235 28.19-47.972 38.82-84.184 1.43-4.85 1.44-4.226 5.66-6.293 9.88 2.127 12.82 10.689 25.2 15.476l2.29-1.692c.83-11.177-5.4-42.799-7.35-56.341 13.32-34.237 31.44-59.922 44.95-92.338-1.67-14.685-4.05-27.337-5.47-42.774m375.79 1028.467c-1.31 6.55-3.02 10.78-.48 16.79 7.95 8.07 20.27 8.65 26.87-.09-4.16-22.04-3.34-23.85-18.83-40.06zm63.95-55.42c.28 4.62.4 4.45 1.48 8.99l2.45-.53c6.99-12 18.65-75.89 14.5-86.36-9.99 25.88-17.97 49.95-18.43 77.9" /><path fill="#03294f" d="M2554.23 664.433c11.25 13.021 45.78-16.849 55.06-25.995 13.36-13.169 28.51-43.025 45.34-50.746l3.28.226c3.24 11.957-19.13 62.566-23.69 77.462l-33.9 109.554c-5.49 18.053-11.1 40.219-17.23 57.38-13.42 42.109-28.95 80.928-40.05 124.256-13.65 53.27-21.82 111.23-35.84 163.9-1.25 12.05-6.91 41.37-11.15 52.55-4.67 19.76-14.41 48.4-34.63 56.53l-7.31-.23c-10.42 12.16-.47 19.34-7.82 31.78 9.06 12.89 15.48 73.95-1.79 82.04-15.44 7.24-10.75 30.47-5.78 39.48-4.15 11.55-2.55 47.11-2.5 61.56l.05 102.62c-.08 78.6-1.11 142.13-57.72 203.68-88.01 95.7-206.64 78.8-323 79.56-105.46.69-199.29 6.66-282.7-70.01-75.65-69.55-66.36-158.85-66.45-251.81.2-53.81-.4-107.62-1.77-161.42l-5.69.52-2.16-1.57c-17.95-16.3-6.51-40.14-9.05-62.38-.85-7.42-.48-17.5-.76-25.14l9.99-3.42c8.48 1.21 30.97 1.9 38.52-1.02l2.01-5.35c.31 3.4-.26 1.65 2.37 4.98 4.76-.31 8.37-.46 13.14-.43 4.93 6.89 3.03 72.59 1.19 83.66-3.87 3.35-8.57 6.16-8.66 11.89-1.07 64.09.65 131.08-1.05 194.92-1.71 64.03.79 121.98 44.97 172.86 90.74 104.51 242.74 62.59 363.39 71.79 119.67 9.12 238.31-57.33 244.08-186.99 3.22-84.12.5-170.72.08-255.02-.03-6.74-9.08-.45-15.46-7.9-2.9-39.11 3.52-141.69 24.17-171.18l3.11-.45c3.09 8.5-8.64 44.79-11.36 59.46l1.43 3.75c-1.31 6.55-3.02 10.78-.48 16.79 7.95 8.07 20.27 8.65 26.87-.09l-.14 1.44 1.97 1.75c7.39-9.4 2.5-60.32 5.78-76.69 10.34-51.58 86.19-300.784 80.98-333.857-.61-3.817 0-2.446-3.1-4.927-7.63 10.14-17.59 31.458-26.11 44.877 16.14-65.798 45.33-130.338 63.26-195.235 1.94-6.614 4.09-12.879 6.31-19.405m-91.39 509.927c.28 4.62.4 4.45 1.48 8.99l2.45-.53c6.99-12 18.65-75.89 14.5-86.36-9.99 25.88-17.97 49.95-18.43 77.9" /><path fill="#fdfcfb" fill-opacity=".039" d="M2481.27 1096.46c4.15 10.47-7.51 74.36-14.5 86.36l-2.45.53c-1.08-4.54-1.2-4.37-1.48-8.99.46-27.95 8.44-52.02 18.43-77.9" /><path fill="#bb8944" d="M2528.95 933.523c11.09-20.613 32.3-91.232 54.14-101.209-13.42 42.109-28.95 80.928-40.05 124.256-13.65 53.27-21.82 111.23-35.84 163.9-1.25 12.05-6.91 41.37-11.15 52.55-4.67 19.76-14.41 48.4-34.63 56.53l-7.31-.23c-10.42 12.16-.47 19.34-7.82 31.78-5.28.5-2.95 1.26-7.29-1.54-2.41-19.72 15.96-63.94 23.84-85.2.28 4.62.4 4.45 1.48 8.99l2.45-.53c6.99-12 18.65-75.89 14.5-86.36-2.6-10.75 24.06-124.446 30.01-139.716 12.95-6.568 8.49-11.641 15.71-25.103z" /><path fill="#03294f" d="M2528.95 933.523c11.09-20.613 32.3-91.232 54.14-101.209-13.42 42.109-28.95 80.928-40.05 124.256-13.65 53.27-21.82 111.23-35.84 163.9-3.44-22.31 14.45-77.59 16.76-102.58 2.98-32.301-1.29-52.325 4.99-84.367" /><path fill="#0c1c48" d="M2472.32 1182.75c11.87-9.12 15.28-18.9 22.87-23.72l1.83 2.07-.97 11.92c-4.67 19.76-14.41 48.4-34.63 56.53 4.5-16.61 7.63-29.92 10.9-46.8" /><path fill="#bb8944" d="M2554.23 664.433c11.25 13.021 45.78-16.849 55.06-25.995 13.36-13.169 28.51-43.025 45.34-50.746l3.28.226c3.24 11.957-19.13 62.566-23.69 77.462l-33.9 109.554c-5.49 18.053-11.1 40.219-17.23 57.38-21.84 9.977-43.05 80.596-54.14 101.209l-1.96-1.882c-7.22 13.462-2.76 18.535-15.71 25.103 3.01-13.818 9.95-35.562 15.65-48.435 32.92-74.365 63.95-151.395 67.61-233.326-17.34 5.559-28.64 8.135-46.62 8.855 1.94-6.614 4.09-12.879 6.31-19.405" /><path fill="#f64246" d="M1696.78 1345.75c2.01-11.59 3.5-40.91 1.29-52.45l-5.58-3c4.82-9.21 6.57-14.34 7.49-24.53l3.08-2.84 2.64 2.28c.93 18.6.31 61.98-1.07 81.59l-5.69.52z" /><path fill="#03294f" d="M2111.51 248.396c9.01-17.293 7.42-40.911 20.29-56.681l2.88.226c5.32 14.656 4.98 46.088 8.32 63.203 6.41 32.811 20.62 80.543 33.01 111.305l5.21-28.88 2.6.515c10.88 29.856 18.62 59.35 29.78 88.9 16.31 43.215 44.85 82.965 50.83 129.201-25.82 14.108-37.46-6.574-41.52-29.046-7.42-41.01-7.23-80.302-31.16-116.237-7.51-11.277-35.06-52.67-34.65-64.519 4.21-5.934 3.63-3.73 5.25-10.286-8.4-15.077-14.12-30.467-22.03-45.436-1-1.909-2.7-1.397-5.58-1.673-4.46 3.84-6.44 11.971-8.52 17.929-6.31-6.955-9.92-45.537-11.48-56.937z" /><path fill="#03294f" d="M2029.01 795.639a277 277 0 0 1 57.46-1.171c11.35.298 22.51.775 33.85.057 12.43-.573 28.99-1.674 40.69 2.725l38.79 8.793c14.17 5.097 22.46 8.761 35.82 16.135 5.88-1.119 32.68 13.906 37.95 18.291 4.07 3.009 29.65 22.742 32.52 23.677 40.6 40.188 52.35 63.889 58.21 120.884 2.76 18.52 3.18 89.83 1.45 108.5l.17 3.57c.77 17.01.81 30.8.38 47.84 4.11 29.16.53 102.27 1.26 136.09.11 12.52.76 24.88-1.21 37.19-.35 13.99-.96 27.99-.2 41.95 1.04 14.66 1.1 29.37.2 44.03l-.06 46.07c.66 17.77 1.28 85.08-2.16 100.15-2.44 53.96-18.82 81.36-55.92 118.97-14.02 11.55-24.61 15.7-37.42 25.08-9.68 5.66-26.29 11.66-37.19 15.96.15-11.76.22-23.52.2-35.28-8.54 13.94-18.67 38.32-31.08 43.89l-2.57-2.19c-1.99-8.24-1.17-37.91-1.22-47.84v50.27l-38.55 9.13c-12.83.63-26.67 1.57-39.44 1.7l-35.09.3c-12.24-.72-28.56-.42-41.12-.55l-31.02-.32c-10.43-1.61-30.7-1.82-43.27-3.04-12.57-1.94-21.69-3.7-34.06-6.66-15.26-2.98-25.05-5.67-39.99-10.23-11.25-5.19-28.35-13.67-37.78-21.29-10.42-6.85-26.81-18.25-35.39-26.9-47.35-48.7-54.32-90.97-55.2-155.31-.83-19.65-.69-37.31-.44-56.9.34-13.68.07-28.26.05-42.03-.73-16.64-.6-29.42-.03-46.11.45-12.73.03-25.83-.19-38.6-1.85-17.47-1.07-41.01-.12-58.74l.84-31.69c-.13-20-.66-41.23.36-61.11l-.1-4.27c-1.11-14.36.26-39.61-.21-56.33-8.81-12.09-9.26-50.96.22-61.23 1.45-21.37-1.68-42.28 1.18-65.381 5.33-50.454 18.8-75.04 51.55-113.009 9.71-11.954 25.52-23.302 38.17-31.983 13.53-7.932 24.55-13.238 38.79-19.969 12.65-5.333 26.23-10.679 39.95-11.972l28.5-5.98c6.3-2.493 38.46-4.287 46.15-4.697z" /><path fill="#86683a" d="M1769.61 1012.03c20.41-11.08 40.32-21.95 63.16-27.204 22.12-5.089 169.04-9.102 189.05-3.087 7.74 2.325 14.41 6.877 18.23 14.13 3.51 6.651 3.74 14.581 1.43 21.661-2.23 6.84-7.05 13.21-13.8 16.07-23.1 9.79-145.51-1.1-181.87 2.72-25.87 2.72-51.38 14.48-75.92 22.69l.04 40.39c22.15-8.53 44.49-16.79 68-20.7 25.34-4.22 177.78-7.44 192.73.75 5.71 3.14 9.21 9.04 10.56 15.27 1.32 6.17.92 12.72-2.76 18.08-6.49 9.47-19.53 12.15-30.19 13.06-57.96 4.93-196.32-17.5-237.92 26.54-1.86 6.19-1.64 7.88-1.96 14.26-1.11-14.36.26-39.61-.21-56.33-8.81-12.09-9.26-50.96.22-61.23 1.45-21.37-1.68-42.28 1.18-65.381z" /><path fill="#f64246" d="M1768.18 1110.33c-8.81-12.09-9.26-50.96.22-61.23-.03 18.66.57 42.99-.22 61.23" /><path fill="#86683a" d="M1767.58 1449.21c88.35-40.64 162.09-29.82 256.6-27.37 10.01 2.22 17.03 13.9 18.81 21.9 2.36 10.59-4.21 31.29-15.45 33.1-91.7 14.84-172.99-19.38-259.52 29.27-.83-19.65-.69-37.31-.44-56.9" /><path fill="#86683a" d="m1767.29 1263.73 1.15 7.37c4.92 2.1 8.05.91 12.94-.87 17.55-6.41 31.5-13.72 50.27-17.11 26.06-4.72 171.18-8.29 191.9-.38 7.03 2.69 14.02 7.28 17.22 14.39 2.16 4.81 1.8 9.42-.41 14.09-3.8 8.05-13.62 12.44-21.77 14.3-18.26 4.16-40.41 1.61-59.12 1.36-37.95-.51-90.72-5.38-126.96 2.76-22.28 5-43.86 14.57-65.1 22.83-1.85-17.47-1.07-41.01-.12-58.74" /><path fill="#86683a" d="M1767.6 1361.07c24.34-9.43 48.46-19.12 74.36-23.39 23.8-3.93 169.96-5.5 186.94 2.65 6.58 3.16 13.06 10.4 14.81 17.6 1.19 4.94.95 8.62-2.23 12.79-7.54 9.88-23.59 12.59-35.17 13.02-38.59 1.43-77.95-.81-116.61-1.3-16.84-.22-34.6-1.77-51.21 1.17-24.11 4.28-48 14.91-70.86 23.57-.73-16.64-.6-29.42-.03-46.11" /><defs><linearGradient id="b" x1="2309.594" x2="2140.83" y1="1422.583" y2="1303.481" gradientUnits="userSpaceOnUse"><stop offset="0" stop-color="#957842" /><stop offset="1" stop-color="#debf86" /></linearGradient></defs><path fill="url(#b)" d="M2181.29 1382.37c-21.21.35-60.41 5.84-75.12-10.9-7.6-6.05.6-32.4 9.22-32.85 53.52-2.77 149.64-10.47 198.73 4.35 6.14 4.85 16.73 9.95 24.32 12.08-3.09 8.05-6.33 25.75-4.04 34.09l-2.33-.33c-6.4-.84-9.03-1.89-14.6 1.21-33.8-10.7-66.4-7.41-101.81-8.1z" /><path fill="#e4bd79" d="m2181.29 1382.37-8.82-3.73c8.2-.43 11.99 1.15 18.81-3.95 8.03-11.69 1.7-16.96 9.16-24.17l4.44.67c2.91 9.81-3.01 10.79 1.78 20.92 8.99 7.81 19.98 6.52 31.66 6.43-7.57.99-15.13 2.12-22.66 3.38z" /><path fill="#86683a" d="M1822.13 1168.76c12.86-3.01 25.44-5.54 38.64-6.54 24.25-1.83 155.76-5.95 169.36 2.96 6.1 3.99 9.37 9.73 10.22 16.83.88 7.32-.86 15.35-5.64 21.09-6.44 7.73-17.04 8.46-26.41 8.82-58.36 2.3-119.12-6.93-176.98 1.02-10.93-19.88-3.42-27.59-9.19-44.18" /><path fill="#bd9d5f" d="M2267.27 1211.89c-29.39.55-140.92 8.88-160.02-9.89-4.71-4.63-6.19-9.85-5.74-16.32.63-9.07 7.26-17.26 14.25-22.37 14.49-3.43 150.43-3.02 165.58.29 10.25 9.06 19.63 3.06 28.99 9.55-12.38 10.42-7.24 19.75-5.86 35.66-14.78 2.41-20.23-1.3-37.2 3.08" /><defs><linearGradient id="c" x1="2106.169" x2="2241.32" y1="1438.877" y2="1459.238" gradientUnits="userSpaceOnUse"><stop offset="0" stop-color="#b28f51" /><stop offset="1" stop-color="#dfbf85" /></linearGradient></defs><path fill="url(#c)" d="M2229.5 1480.43c-22.51 1.03-110.07 4.72-118.86-8.25-47.91-70.71 81.7-52.9 98.46-52.16l3.6 1.19c7.87 2.52 18.82 4.54 27.12 6.28 3.43 8.72 3.92 33.64-.07 42.12l-8.97.44.46 1.92 5.25 1.35c-3.42 2.87-4.62 3.37-6.99 7.11" /><path fill="#bd9d5f" d="M2249.65 1124.16c-16.24.82-129.69 5.58-136.38-2.35-53.44-63.33 95.38-47 126.23-46.24l2.57.97c12.69 4.68 15.35 4.03 28.18 4.77 1.02 12.06 4.39 27.19-2.77 36.38-7.46 3.75-10.59 1.9-17.83 6.47" /><defs><linearGradient id="d" x1="2359.615" x2="2240.565" y1="1461.091" y2="1455.249" gradientUnits="userSpaceOnUse"><stop offset="0" stop-color="#745630" /><stop offset="1" stop-color="#c09f63" /></linearGradient></defs><path fill="url(#d)" d="M2209.1 1420.02c72.26-2.43 90.11.47 157.19 30.25.66 17.77 1.28 85.08-2.16 100.15-.49-14.55.4-33.12.68-47.96-63.32-20.26-70.31-21.3-135.31-22.03 2.37-3.74 3.57-4.24 6.99-7.11l-5.25-1.35-.46-1.92 8.97-.44c3.99-8.48 3.5-33.4.07-42.12-8.3-1.74-19.25-3.76-27.12-6.28z" /><defs><linearGradient id="e" x1="2360.771" x2="2232.244" y1="1022.393" y2="1009.494" gradientUnits="userSpaceOnUse"><stop offset="0" stop-color="#70522b" /><stop offset="1" stop-color="#c2a266" /></linearGradient></defs><path fill="url(#e)" d="M2208.81 979.804c62.72-.609 98.9 4.157 156.02 35.466-.37-9.72-1.11-20.622-.53-30.24 2.76 18.52 3.18 89.83 1.45 108.5-1.6-8.56-.82-26.71-.7-36.28-18.12-5.22-54.23-17.05-71.41-18.3-29.51-2.13-64.48-.69-94.97-1.38 9.51-5.08 22.12 2.7 31.99-5.41 1.61-4.03-.87-41.791-2.18-44.618-5.56-5.13-12.19-5.887-19.67-7.738" /><path fill="#86683a" d="M2044.73 1729.86c-.34-24.52-2.42-139.04 1.32-157.57.95-4.86 3.35-9.32 6.9-12.77 3.79-3.65 9.68-6.27 15.04-5.96 4.97.29 9.8 2.56 12.62 6.79 11.25 16.94 5.42 140.88 5.24 170.06-12.24-.72-28.56-.42-41.12-.55" /><path fill="#86683a" d="m1970.44 1726.5.18-101.34c-.01-3.41.03-30.29-.39-31.77-7.74-27.38 25.87-57.65 39.19-25.58 11.64 28.04-5.31 139.72 4.29 161.73-10.43-1.61-30.7-1.82-43.27-3.04" /><defs><linearGradient id="f" x1="2109.191" x2="2233.689" y1="1002.902" y2="1016.266" gradientUnits="userSpaceOnUse"><stop offset="0" stop-color="#b59354" /><stop offset="1" stop-color="#e5c690" /></linearGradient></defs><path fill="url(#f)" d="M2117.71 1037.15c-9.9-10.8-23.53-31.07-11.47-44.459 19.16-21.255 75.93-13.668 102.57-12.887 7.48 1.851 14.11 2.608 19.67 7.738 1.31 2.827 3.79 40.588 2.18 44.618-9.87 8.11-22.48.33-31.99 5.41-27.12.25-53.85.72-80.96-.42" /><defs><linearGradient id="g" x1="2359.962" x2="2232.36" y1="1279.875" y2="1282.155" gradientUnits="userSpaceOnUse"><stop offset="0" stop-color="#6c5430" /><stop offset="1" stop-color="#c3a268" /></linearGradient></defs><path fill="url(#g)" d="M2196.56 1249.22c60.47-1.36 115.53-6.29 169.72 25.42l1.28 6.39c.11 12.52.76 24.88-1.21 37.19-75.47-26.28-90.45-19.5-168.99-20.62 6.21-1.42 22.66-2.52 29.99-3.25 11.08-62.29-20.66-35.28-34.05-41.09z" /><path fill="#bb8944" d="M2120.94 1730.11c.4-28.48-6-151.7 5.23-167.07 3.37-4.61 8.46-8.11 14.32-8.22 5.36-.11 10.62 2.58 14.2 6.47 3.63 3.96 4.39 7.89 5.01 13.05 2.32 19.43.89 40.19.76 59.79-.24 31.42-.26 62.85-.08 94.28-12.83.63-26.67 1.57-39.44 1.7" /><path fill="#86683a" d="M1896.39 1709.61c1.24-46.35-1.97-93.82 2.83-139.59 1.42-13.59 23.33-16.56 34.56-5.34 6.85 15.21 2.87 129.5 2.6 155.16-15.26-2.98-25.05-5.67-39.99-10.23" /><defs><linearGradient id="h" x1="2113.094" x2="2228.557" y1="1265.9" y2="1279.143" gradientUnits="userSpaceOnUse"><stop offset="0" stop-color="#b38f51" /><stop offset="1" stop-color="#e3c28a" /></linearGradient></defs><path fill="url(#h)" d="M2115.32 1252.79c8.47-4.84 67.8-3.55 81.24-3.57l-3.26 4.04c13.39 5.81 45.13-21.2 34.05 41.09-7.33.73-23.78 1.83-29.99 3.25-15.69.38-31.38.66-47.07.87-19.55.11-31.95 1.2-45.7-12.46-3.29-15.78-2.07-22.95 10.73-33.22" /><path fill="#bb8944" d="M2115.32 1252.79c1.91 9.65 5.48 18.92 4.53 28.15-4.73 6.5-6.9 6.78-15.26 5.07-3.29-15.78-2.07-22.95 10.73-33.22" /><path fill="#86683a" d="M1966.54 800.806c6.3-2.493 38.46-4.287 46.15-4.697.01 20.685 5.14 119.482-6.46 131.215-3.51 3.556-8.33 5.253-13.29 5.191a22.43 22.43 0 0 1-16.71-7.874c-15.64-17.987 4.26-121.657-9.69-123.835" /><defs><linearGradient id="i" x1="2048.697" x2="2081.567" y1="862.281" y2="861.384" gradientUnits="userSpaceOnUse"><stop offset="0" stop-color="#82663c" /><stop offset="1" stop-color="#977a47" /></linearGradient></defs><path fill="url(#i)" d="M2029.01 795.639a277 277 0 0 1 57.46-1.171c-1.47 38.696.68 77.555-.08 116.092-.29 14.331-23.8 31.376-36.22 12.559-12.44-18.848 2.58-117.033-7.16-126.58-5-.443-8.95-.777-14-.9" /><path fill="#bb8944" d="M2120.32 794.525c12.43-.573 28.99-1.674 40.69 2.725-.58 35.591 5.37 90.568-5.26 124.708-4.73 15.156-33.1 9.056-34.42-7.375-3.18-39.737.47-79.938-1.01-120.058" /><path fill="#f0d29f" d="M2198.93 1669.01c-.14-19.2-10.85-149.58 32.59-105.72 5.22 5.27 2.1 97.29 2.28 111.86-8.54 13.94-18.67 38.32-31.08 43.89l-2.57-2.19c-1.99-8.24-1.17-37.91-1.22-47.84" /><defs><linearGradient id="j" x1="2362.259" x2="2268.171" y1="1112.201" y2="1103.27" gradientUnits="userSpaceOnUse"><stop offset="0" stop-color="#785a34" /><stop offset="1" stop-color="#a78751" /></linearGradient></defs><path fill="url(#j)" d="M2239.5 1075.57c36.21.16 66.2 3.1 100.54 14.88 5.7 1.95 20.57 7.68 25.88 6.65.77 17.01.81 30.8.38 47.84-50.63-14.6-64.31-19.42-116.65-20.78 7.24-4.57 10.37-2.72 17.83-6.47 7.16-9.19 3.79-24.32 2.77-36.38-12.83-.74-15.49-.09-28.18-4.77z" /><path fill="#a2773a" d="M2270.79 1694.47c.11-16.62-1.49-126.19 5-131.77 48.28-41.57 34.03 87.5 32.42 106.69-14.02 11.55-24.61 15.7-37.42 25.08" /><path fill="#86683a" d="M1898.09 818.758c12.65-5.333 26.23-10.679 39.95-11.972-.22 23.689-.02 47.3-.16 70.97-.11 20.963 4.37 53.305-24.27 54.29-25.77-8.505-16.03-90.304-15.52-113.288" /><path fill="#86683a" d="M1823.22 1661.42c-.86-17.65-7.29-95.48 7.71-103.68 43.83-23.96 25.11 69.04 28.86 87.52 1.79 15.39-.49 33.44-1.18 43.06-10.42-6.85-26.81-18.25-35.39-26.9" /><path fill="#e4bd79" d="M2199.8 806.043c14.17 5.097 22.46 8.761 35.82 16.135 1.33 21.974 7.73 92.907-8.81 105.727-16.08 5.617-19.79 2.895-29.39-10.507 2.15-9.882 2.24-94.92 2.38-111.355" /><path fill="#f0d29f" d="m2197.42 917.398 3.21-5.423c3.74.823 21.5 12.655 26.18 15.93-16.08 5.617-19.79 2.895-29.39-10.507" /><path fill="#86683a" d="M2366.3 1144.94c4.11 29.16.53 102.27 1.26 136.09l-1.28-6.39c-.95-13.41-.45-31.88-.46-45.71-39.11-5.15-51.88-15.82-98.55-17.04 16.97-4.38 22.42-.67 37.2-3.08-1.38-15.91-6.52-25.24 5.86-35.66-9.36-6.49-18.74-.49-28.99-9.55 25.2.61 60.9 14.5 84.89 23.51-.39-14.45-.24-27.71.07-42.17" /><path fill="#86683a" d="M1859.3 838.727c.31 12.709 4.25 81.619-3.88 86.339-43.85 25.438-36.31-27.602-33.02-52.394l-1.27-1.962c9.71-11.954 25.52-23.302 38.17-31.983" /><path fill="#a2773a" d="M1768.49 1170.93c.34 4.23.33 14.38 2.52 16.78 17-6.43 34.04-12.75 51.12-18.95 5.77 16.59-1.74 24.3 9.19 44.18a605 605 0 0 0-63.19 19.1c-.13-20-.66-41.23.36-61.11" /><path fill="#bb8944" d="M2273.57 840.469c4.07 3.009 29.65 22.742 32.52 23.677.82 12.747 4.51 50.629-2.3 56.709-45.15 40.332-30.54-72.61-30.22-80.386" /><path fill="#86683a" d="M2314.12 1342.97c15.32 2.95 37.15 11.21 52.03 17.2 1.04 14.66 1.1 29.37.2 44.03l-48.88-14.18c5.57-3.1 8.2-2.05 14.6-1.21l2.33.33c-2.29-8.34.95-26.04 4.04-34.09-7.59-2.13-18.18-7.23-24.32-12.08" /><path fill="#03294f" d="m3161.78 2665.89 3.5-.08c9.83 15.85-3.18 451.29 3.52 498.89 5.33 37.88 35.24 13.56 51.22 22.17l-.36 3.9c-14.42 15.26-86.71 41.94-109.78 48.92-53.38 16.15-62.77 2.8-73.96-44.98a195 195 0 0 1-9.66 13.51c-43.1 56.11-122.32 51.01-174.28 11.15-76.45-63.87-81.01-203.03-28.5-282.73 38.79-58.88 116.52-92.47 183.93-63.26 8.78 3.8 18.89 11.12 26.88 16.46.65-45.99-.15-85.87-12.65-130.18-17.36-19.14-18.02-13.66-39.37-12.06l-1.92-4.32 1.59-4.09c11.61-7.51 36.34-16.12 50.08-22.08 42.9-18.61 85.74-35.42 129.76-51.22m-171.28 509.42c8.76 2.54 43.55 8.25 44.32-7.98 2.62-55.22-2-112.12.9-167.57 2.06-39.54-3.61-112.33-59.67-105.56-60.77 35.21-57.79 192.36-25.58 248.08 9.96 17.22 22.26 25.54 40.03 33.03" /><path fill="#03294f" d="m1133.31 2670.97 118.31.74c-44.47 49.36-39.25 99.52-38.95 161.67l.56 112.07c.05 16.29.59 38.79-.06 54.05-4.11 97.1-3.35 176.85 117.16 186.51 69.62 5.59 117.09-23.68 120.9-100.49-.58-38.99 1.28-78.91-.24-117.86-3.96-101.76 19.82-213.16-52.76-294.87l138.84-.64c-68.71 81.14-50.78 202.91-53.23 302.5-2.43 98.37 19 183.81-69.79 250.98a254.94 254.94 0 0 1-195.1 20.31c-124.06-35.88-155.51-122.28-151.25-242.25.43-11.93.04-25.24.07-37.29l.61-181.49c.05-21.21 7.08-86.77-24.5-87.97-90.302-3.44-160.926 108.83-105.435 184.5 2.45-17.01-5.758-30.07 6.47-46.84 8.851-12.13 18.867-19.91 34.088-22.52a56.54 56.54 0 0 1 42.707 9.79c26.25 19.22 28.42 68.45 7.44 88.1-64.306 60.24-164.817 5.41-164.32-77.89.497-83.27 69.338-133.21 142.36-151.41 41.29-10.29 85.24-9.51 126.12-9.7" /><path fill="#03294f" d="m1696.02 2856.61 1.25.55c3.1 3.91 5.34 57.43 6.05 66.04 49.07-72.19 172.23-94.45 207.65-4.39 25.44 64.68-10.25 233.92 13.82 299.98l.98 2.61c-32.72 12.76-45.06 24.21-73.68 37.9-21.93-15.38-47.54-35.45-68.72-52.14-1.22-50.9-1.94-101.81-2.16-152.72-.15-28.67 1.04-72.34-1.95-99.35-1.95-5.78-3.29-11.95-7.3-16.74a29.04 29.04 0 0 0-19.86-10.39c-18.33-1.55-33.44 10.48-46.18 21.52-10.79 35.28-4.92 213.15-4.84 259.71-19.02 16.1-42.39 31.93-63.44 49.65-20.71-16.36-49.28-34.7-71.4-49.68-2.48-85.46 2.68-175.19-2.73-260.8-1.3-20.4-32.22-11.53-46.88-19.72l.27-3.05c14.85-8.33 32.01-12.09 47.85-18.47 42.73-17.24 89.57-31.44 131.27-50.51" /><path fill="#03294f" d="M2599.27 2862.9c43.29-1.32 102.84 4.4 134.63 35.1 93.19 90-41.13 140.01-108.99 169.4-12.98 5.62-40.76 11.63-49.43 20 1.38 9.55 9.15 19.42 13.94 27.19 39.82 64.6 117.4 83.73 164.22 13.83 3.4-5.08 13.2-16.75 18.63-20.54l1.52 2.04c-1.52 12.87-7.54 26.12-12.3 38.33-28.54 58.53-64.28 98.47-133.34 102.14-112.55 5.98-190.31-60.59-198.68-173.44a205.32 205.32 0 0 1 50.56-151.42c29.5-33.76 74.08-59.58 119.24-62.63m.53 189.41c31.36-27.33 49.16-46.39 51.54-90.31 2.14-39.52-9.03-83.36-57.5-77.69-51.85 30.37-43.22 133.39-26.29 182.44.41 1.16 2.67 2.18 3.78 2.77 9.64-1.69 20.73-10.94 28.47-17.21" /><path fill="#03294f" d="m2364.98 2759.57 1.32 1.37c2.06 6.03-8.63 94.77-9.89 107.09 21.23.41 71.87-4.92 86.66 4.96 2.65 6.77 2.52 3.31-.51 10.72-9.15 6.2-71.09 4.75-87.46 5.47-1.04 45.26-7.57 263.41.49 291.28 1.67 5.78 4.93 7.9 10.15 10.38 23.05 10.98 50.42-4.46 72.48-11.98-19.26 30.05-39.74 46.49-72.79 59.73-52.93 16.76-130.15 19.51-143.85-51.07-7.97-41.04-5.55-87.98-5.46-130.07l.41-169.72c-10.14-.26-18.01.05-26.64-5.22l-.87-3.81c6.82-11 80.06-33.3 103.04-49.43 39.26-27.55 43.75-31.68 72.92-69.7" /><path fill="#03294f" d="M2136.71 2856.38c11.55 5.55-.87 303.58 7.02 335.25 1.84 7.39 8.07 15.7 12.04 22.25-21.25 13.69-57.06 30.74-80.91 44.85-21-11.72-41.57-24.2-61.66-37.42-8.28-5.01-9.47-3.96-13.62-11.19 1.17-3.05 2.27-6.13 3.47-9.16 2.97-7.48 5.36-12.99 5.14-21.16-1.03-37.3 3.25-219.93-5.92-238.69-6.11-12.48-24.52-8.13-35.42-12.9-3.58-1.56-2.38-.44-3.89-3.99 10.61-8.56 84.79-32.5 103.2-39.34 23.75-8.91 47.27-18.42 70.55-28.5" /><path fill="#ea2e41" d="M1606.07 3482.54c9.15-1.7 19.31-1.17 28.57-.86 141.57 4.9 153.66 184.02 15.3 218.26-35.94 5.11-73.34 1-103.77-20.42a100.26 100.26 0 0 1-40.76-65.42c-11.03-65.17 37.23-121.95 100.66-131.56m30.46 209.18c36.34-21.33 28.51-96.92 22.1-131.7-4.88-26.46-10.98-69.77-44.72-68.22-32.92 24.26-25.72 102.6-20.22 138.62 3.67 24.07 12.1 63.03 42.84 61.3" /><path fill="#ea2e41" d="M2065.56 3497.83c33.9-99.2 125.33-130.51 220.38-97.65 54.76 18.94 66.48 105.47-4.78 88.06-13.4-3.27-26.66-34.34-32.43-45.92-11.09-25.5-33.47-49.99-63.72-38.09-55.56 21.87-54.34 111.31-35.7 157.3 13.34 32.95 31.68 58.5 63.23 73.08a102.77 102.77 0 0 0 79.55 2.72c49.49-18.65 46.02-50.05 55.22-54.18 3.78 10.67-7.76 42.84-13.25 53.43-37.14 71.65-134.08 79.59-200.64 48.43-11.64-5.45-31.28-19.09-38.18-28.96-39.74-39.07-42.91-107.36-29.68-158.22" /><path fill="#e11727" d="M2065.56 3497.83c4.03 3.51 4.6 2.43 4.53 9.08-.57 57.94-11 92.2 27.73 141.28 2.18 2.75 1.2 1.07 2.7 4.62l-5.28 3.24c-39.74-39.07-42.91-107.36-29.68-158.22" /><path fill="#ea2e41" d="M691.554 3393.4c23.094-4.64 40.955-7.83 64.486-1 15.894 2.09 36.296 9.18 51.672 14.29 4.929-5.18 9.064-10.92 15.763-12.44 7.137 4.14 16.239 62.79 20.375 74.27 2.549 7.08 6.154 25.18 6.762 32.8-37.771-46.93-65.145-92.46-126.591-99.49l-17.895 3.36c-12.24 7.69-22.843 15.92-25.392 31.83-9.711 55.47 62.233 66.58 103.771 81.37 80.373 28.61 108.406 124.12 22.69 169.37-51.247 27.05-110.783 12.9-164.739-5.2l-20.225 14.09c-2.528-33.05-1.866-80.84-2.465-115.03 25.29 41.42 28.644 67.52 73.779 95.56 44.042 27.36 117.473 11.6 102.599-49.07-14.439-29.95-79.393-46.06-107.166-57.46-87.845-36.05-97.586-141.45 2.576-177.25" /><path fill="#ea2e41" d="M1198.56 3480.49c4.84-.85 2.48-1.14 7.07 1.01 2.53 9.02.97 26.35.87 37.09 18.67-27.11 32.5-34.61 65.94-36.47 26.53-1.47 64.86 10.45 66.57 42.54 2.57 48.4.35 98.9.51 147.87 4.93 9.45 9.38 14.72 15.81 23.1-35.73.74-72.6.49-108.43.7 14.45-22.78 14.39-32.04 14.46-58.83.09-34.49-.18-68.94-.63-103.42-14.27-21.29-46.83-11.97-50.51 10.88-6.06 37.71-3.83 84.57-1.11 123.03.23 3.19 10.29 20.67 12.53 26.38l.65 1.7-113.85.17 2.99-3.74c5.59-6.92 15.12-19.37 15.69-29.13 2.41-41.87 5.17-89.15-.99-130.43-.87-5.82-23.87-13.69-29.25-15.73 35.66-13.31 64.49-21.3 101.68-36.72" /><path fill="#ea2e41" d="M3328.88 3519.58c11.62-16.31 25.44-30.27 44.39-34.17 85.57-17.6 91.45 33.06 87.69 100.86-1.37 24.86-1.4 72.39 4.34 92.94 5.87 5.39 11.78 11.91 17.32 17.73-29.86 1.94-89.77 1.75-119.79.62 19.97-17.01 20.31-27.71 20.22-53.85-.11-32.71-.6-65.52-.76-98.21-2.01-35.75-34.13-24.48-52.78-9.21-3.47 29.54-.4 77.71-1.36 109.02-.74 23.92 4.44 37.02 20.4 52.59-37.29-.92-74.59-1.48-111.89-1.7 3.28-4.31 10.53-14.13 11.25-19.03 5.17-35.17 4.61-115.64.81-150.01-9.09-2.66-16.35-5.26-25.19-8.52 18.73-10.89 76.87-29.73 99.18-36.97l4.93 2.55c2.89 6.3 1.42 26.8 1.24 35.36" /><path fill="#ea2e41" d="M913.261 3519.54c19.095-20.94 44.885-37.23 73.632-38.88 32.537-1.87 95.437 17.94 97.167 55.94 1.74 38.44-97.592 59.74-108.974 74.91 1.821 9.14 16.973 24.2 25.234 29.3 41.08 25.37 70.12.08 94.29-28.67-7.12 31.19-18.65 58.76-47.53 76.31-39.14 23.79-103.041 18.12-133.673-17.04-40.598-37.15-37.024-112.04-.146-151.87m72.824 69.82c30.085-26.64 54.885-82.74-.714-93.49-12.491 6.07-16.002 10.78-20.411 24.25-6.274 19.16-11.603 65.97 5.327 79.3 6.848-1.3 10.374-5.44 15.798-10.06" /><path fill="#ea2e41" d="M3112.47 3482.63c18.17-.47 32.79 1.2 49.99 7.23 18.95 6.53 59.17 32.18 44.29 57.32-19.21 32.44-73.16 50.05-105.63 62.4 7.85 15.19 13.76 25.46 29.3 34.83a57.3 57.3 0 0 0 44.49 6.39c25.07-6.94 31.39-22.13 42.39-41.64-3.39 19.17-5.92 27.99-12.9 45.99-15.28 22.19-32.09 38.9-60.52 44.2-112.99 21.03-168.54-89.84-107.64-177.55 16.91-24.34 46.89-35.62 76.23-39.17m-18.24 119.36 19.55-11.28c30.04-22.19 48.07-97.57-6.51-94.48-33.05 19.08-24.16 75.65-13.04 105.76" /><path fill="#ea2e41" d="M1861.67 3545.39c14.24-31.43 29.46-70.27 72.96-61.31 27.7 5.7 16.43 67.2.69 74.84-3.51-1.41-7.03-2.81-10.56-4.18-72.69-28.94-63.7 60.83-61.12 103.75.49 17.76 8.71 25.67 19.97 37.65-37.97 1.17-80.78.32-119.24.42 8.85-9.65 13.55-14.28 20.35-25.5.25-40.68 1.79-102.91-1.13-142.45-6.63-2.09-15.14-3.87-19.68-8.59l1.32-3.45c24.63-11.59 62.49-23.81 89-32.04l4.33.39c6.17 8.83 2.1 43 2.95 58.09z" /><path fill="#ea2e41" d="M2646.73 3657.85c-1.67 2.09-3.39 4.14-5.15 6.16-22 24.9-42.11 36.18-75.4 38.78-22.93 3.11-50.71-14.87-53.45-39.81-5.48-49.95-.16-106.47-.65-157.16-.07-6.51 1.19-6.42-3.15-10.8-6.79.43-10.95 1.67-14.84-3.98 6.92-12.88 47.29-22.88 62.82-33.65 17.81-12.36 28.34-24.22 44.11-38.48-2.37 15.08-4.23 40.74-8.33 53.79-4.88 13.49-4.07 23.99-2.71 38.21.36 34.8-.65 70.79-.68 105.6-.05 58.87 4.99 64.52 57.43 41.34" /><path fill="#03294f" d="M2059.31 2668.22c42.27-4.84 80.53 25.31 85.7 67.53s-24.68 80.72-66.86 86.22c-42.65 5.56-81.66-24.7-86.89-67.39s25.32-81.46 68.05-86.36" /><path fill="#ea2e41" d="M2970.99 3486.77c7.26-.2 9.98-1.63 14.91 1.59-.72 6.44-98.54 173.16-110.34 195.28l-2.34-1.64c-16.66 22.05-38.6-.74-59.88 14.47-10.91 1.05-24.2.48-35.33.36 6.01-9.62 12.02-19.34 18.23-28.83 36.02-55.15 62.19-115.03 99.7-169.21l1.73-1.05c7.72-16.03 57.62 1.52 73.32-10.97" /><path fill="#ea2e41" d="M2742.41 3486.53c1.96.13 8.57.08 8.72 3.54 2.74 62.04-3.67 125.81 2.59 187.39.42 4.06 12.39 16.09 15.62 19.49-31.64 2.12-80.7.22-112.9-.58l-.97-1.63c.99-6.21 10.9-16.76 15.57-22.72.4-25.12 3.98-124.62-2.91-142-5.92-6.09-15.45-8.93-23.64-12.25 26.93-15.48 67.19-26.34 97.92-31.24" /><path fill="#ea2e41" d="m2455.32 3480.74 3.5-.65c7.9 9.92-2.98 165.53 6.64 188.27 4.49 10.61 8.56 18.55 14.2 28.66-38.03-.33-76.07-.25-114.1.25l-.5-3.29c5.79-6.02 17.65-20.5 17.52-29.03-.64-43.56 4.21-90.9-3.78-133.54-1.29-6.88-18.8-11.75-24.61-13.71 33.2-13.67 66.94-26 101.13-36.96" /><path fill="#ea2e41" d="M1402.45 3504.91c21.7-7.98 43.44-15.82 65.24-23.51 2.52 63.15.55 135.02 4.33 196.12 6.44 8.23 8.47 8.03 9.6 16.79-7.13 6.61-19.54 3.32-29.07 2.35l-76.65-.45c2.82-4.98 11.03-18.3 11.82-23.19 6.84-41.83 3.75-101.15 3.51-143.95-7.37-2.39-16.31-4.28-21.55-9.56l.27-3.36c7.63-5.43 22.87-8.58 32.5-11.24" /><path fill="#bb8944" d="M2243.84 3836.6c17.01-.7 23.59 1.8 39.55 7.63 2.66.97 7.18-5.66 16.09-4.1 7.98 9.43 2.9 95.47 1.79 112.42-4.18 6.15-8.82 12.51-14.27 17.58a54.95 54.95 0 0 1-41.77 14.92c-19.55-1.41-41.57-14.27-39.99-36.18 17.09-3.7 25.58 16.31 46.1 17.17 27.9 1.17 33.2-13.29 30.86-37.22-4.91-4.98-60.14 27.03-75.45-18.87-12.62-37.85-.41-61.64 37.09-73.35m13.33 81.16a30.93 30.93 0 0 0 23.91-20.38 30.91 30.91 0 0 0-6.25-30.79 30.91 30.91 0 0 0-29.97-9.42c-16.31 3.79-26.65 19.87-23.31 36.28 3.33 16.41 19.12 27.18 35.62 24.31" /><path fill="#bb8944" d="M1976.88 3836.3c20.98-1.76 20.92 3.58 40.05 7.91 4.67-5.64 4.72-6.7 11.67-9.22 6.8 1.63 4.53-.27 8.26 4.21 2.63 18.75 4.18 67.82-1.16 87.29-1.45 5.28-4.93 6.18-9.04 7.9-8.19-.64-7.8-.91-14.59-6.02-28.86 16.82-61.2 6.69-72.13-25.53a52.17 52.17 0 0 1 3.16-40.74c8.23-15.66 18.03-20.52 33.78-25.8m18.18 79.69c16.51-4.31 26.34-21.27 21.86-37.74-4.47-16.47-21.53-26.12-37.95-21.48-16.2 4.57-25.69 21.33-21.28 37.57 4.42 16.25 21.09 25.9 37.37 21.65" /><path fill="#bb8944" d="M2873.32 3836.75c22.04-.79 27.15 8.61 37.85 7.96 6.6-6.21 9.1-10.84 18.25-8.86 5.88 8.02 3.36 81.12 2.04 94.96-3.59 4.49-1.44 2.57-7.6 4.6-6.33-1.27-7.81-2.75-13.09-6.3l-1.8-1.23-3.45 1.96c-69.4 34.93-109.13-73.12-32.2-93.09m14.32 81.82c37.14-16.2 32.86-65.62-10.52-65.03-11.07 3.73-18.06 7.19-23.24 18.54a34.23 34.23 0 0 0-.56 27.31c6.52 15.62 18.76 19.41 34.32 19.18" /><path fill="#bb8944" d="M2742.69 3835.17c27.6-4.34 53.52 14.42 58.03 41.99 4.52 27.57-14.08 53.61-41.62 58.3-27.79 4.72-54.11-14.07-58.66-41.89s14.41-54.02 42.25-58.4m16.7 80.75c17.23-5.06 27.04-23.19 21.86-40.39-5.19-17.19-23.39-26.87-40.55-21.55-16.97 5.26-26.53 23.23-21.4 40.24 5.14 17.02 23.04 26.7 40.09 21.7" /><path fill="#bb8944" d="M1402.92 3837.11c27.04-6.94 54.61 9.24 61.74 36.22 7.14 26.99-8.83 54.67-35.76 62.01-27.21 7.41-55.26-8.76-62.47-36.03s9.17-55.19 36.49-62.2m17.91 80.53c17.06-3.1 28.46-19.36 25.55-36.46s-19.03-28.68-36.16-25.96a31.64 31.64 0 0 0-24.69 20.14 31.64 31.64 0 0 0 5.34 31.42c7.3 8.75 18.75 12.9 29.96 10.86" /><path fill="#bb8944" d="M3274.92 3837.53c26.78-8.66 55.49 6.17 63.92 33.02 8.43 26.86-6.65 55.44-33.58 63.63-26.6 8.1-54.75-6.76-63.08-33.28-8.32-26.53 6.28-54.81 32.74-63.37m25.9 78.32a30.966 30.966 0 0 0 10.29-52.94 30.95 30.95 0 0 0-30.73-5.51c-15.89 5.82-24.17 23.32-18.58 39.29 5.58 15.98 22.96 24.51 39.02 19.16" /><path fill="#bb8944" d="M812.495 3836.7c27.182-4.62 52.981 13.61 57.7 40.78 4.719 27.16-13.418 53.03-40.565 57.85-27.29 4.84-53.323-13.41-58.067-40.72s13.606-53.27 40.932-57.91m12.568 80.57a32.248 32.248 0 0 0 19.778-53.52 32.24 32.24 0 0 0-31.869-9.71c-16.559 4.18-26.988 20.54-23.78 37.32 3.207 16.77 18.939 28.13 35.871 25.91" /><path fill="#bb8944" d="M2433.82 3902.45c6.76 30.54-50.87 41.99-77.08 22.94a41.68 41.68 0 0 1-17.14-29.57c-7.78-68.92 93.96-90.15 99.94-1.37-21.4 1.11-59.35-2.62-76.17 4.3l-2.69 3.63c5.1 13.47 27.12 20.62 39.45 13.43 16.69-9.74 14.4-11.49 33.69-13.36m-79.27-23.47 42.96.07c7.18.28 12.26 1.48 18.01-2.41 6.07-15.39-21.44-22.72-33-23.1-15.15 6.93-18.12 11.75-27.97 25.44" /><path fill="#bb8944" d="M1127.55 3836.62c12.95-1.78 21.28-2.46 33.25 3.6 15.95 8.08 34.61 32.85 24.03 50.44-20.01 12.09-64.9-4.89-77.13 8.41l.96 5.04c13.63 17.91 29.24 16.41 48.51 10.3 8.39-5.8 12.05-10.83 21.34-5.36l.51 4.78c-4.22 8.57-9.33 14.6-18.23 18.03-49.54 19.08-85.48-23.03-64.9-70.3 6.72-15.42 17.09-19.97 31.66-24.94m17.45 42.87c9.83-.06 12.97 1.52 20.58-3.03 5.43-16.58-18.35-24.69-31.72-24.34-9.37 4.16-19.73 8.32-24.07 18.23 3.23 12.99 24.48 9.55 35.21 9.14" /><path fill="#ea2e41" d="M2407.91 3377.25c18.75-4.94 38.56 2.6 49.26 18.77a45.226 45.226 0 0 1-26.26 68.71c-24.15 6.31-48.84-8.12-55.19-32.26-6.34-24.13 8.07-48.84 32.19-55.22" /><path fill="#ea2e41" d="M2696.26 3377.85c15.82-4.05 32.59.75 43.86 12.57a45.13 45.13 0 0 1 10.47 44.41 45.11 45.11 0 0 1-33.63 30.84c-24.02 5.17-47.77-9.84-53.41-33.76s8.9-47.95 32.71-54.06" /><path fill="#bb8944" d="M2597.69 3788.49c23.26-2.97 57.64-.57 71.1 24.08 1.64 2.99.2 4.21-.99 7.49-1.73 1.05-3.46 2.09-5.19 3.14-20.51-8.63-43.62-20.76-66.43-14.31-29.76 8.42-42.68 40.9-35.31 69.27 3.66 14.06 9.17 22.09 21.52 29.53 18.53 11.16 34.91 10.66 54.61 3.14 10.1-5.22 22.65-17.83 33.52-6.31-.23 15.28-19.32 25.19-31.8 29.62-36.07 13.73-87.13-10.78-95.8-49.47-10.35-46.17 10.83-82.58 54.77-96.18" /><path fill="#bb8944" d="M1706.1 3788.59c20.9-2.55 36.92-1.69 55.36 9.4 8.22 4.94 23.86 13.39 15.77 24.54-9 1.59-25.72-6.75-34.98-10.02-95.22-33.69-101.84 124.56.3 102.84 11.71-4.68 25.67-20.82 37.21-13.72l-.17 4.52c-16.1 29.2-58.91 41.07-86.16 25.9-64.33-35.8-59.5-121.17 12.67-143.46" /><path fill="#ea2e41" d="M1417.68 3377.33c23.49-5.09 46.69 9.72 51.96 33.17 5.28 23.45-9.35 46.76-32.75 52.22-23.68 5.53-47.32-9.3-52.65-33.01-5.33-23.72 9.68-47.24 33.44-52.38" /><path fill="#bb8944" d="M1818.4 3772.34c9.12.18 7.81-1.21 14.41 2.95 6.55 13.8 3.07 52.48 3.08 70.07 74.67-43.72 72.55 74.84 58.65 90.91l-4.22-.69c-11.59-14.69-7.13-36.08-6.92-56.7-5.94-17.48-17.55-27.18-36.85-18.57-28.28 12.62.23 64.02-23.57 73.13l-2.57-2.19c-5.74-15.71-5.85-145.38-2.01-158.91" /><path fill="#bb8944" d="M747.52 3788.7c7.744.79 8.071-.52 13.012 3.62-1.602 8.66-46.449 131.59-50.841 138.16-6.304 3.01-12.227 4.37-19.016 1.77-5.778-2.21-35.821-91.79-40.683-104.54-4.484-11.35-10.766-24.13-8.306-36.18l3.232-1.43c18.154 8.58 48.213 95.66 54.852 117.26 6.882-22.03 36.886-98.6 47.75-118.66" /><path fill="#bb8944" d="M2121.48 3836.52c22.96-2.39 32.32 5.04 43.22 24.58.04 12.63 1.9 65.07-2.58 72.21l-5.79 1.25c-27.41-8.71 13.15-71.65-34.1-80.38-40.22 19.22-9.46 67.96-27.24 80.02-3.81-.21-7.1.12-9.45-4.19-7.77-14.31-4.87-72.3-2.9-86.12 5.27-7.5 17.98-1.5 26.42-1.82z" /><path fill="#bb8944" d="M1006.34 3836.44c19.41-1.35 45.77 2.15 53.02 25.96 1.37 4.5-.99 6.74-3.64 9.59-6.24 1.47-6.8.66-12.82-1.43-8.54-11.1-13.27-17.16-28.54-16.12a31.75 31.75 0 0 0-22.957 12.31 32.34 32.34 0 0 0-5.931 25.17c4.525 24.13 27.508 29.29 48.328 23.46 4.21-5.04 4.54-5.92 10.09-9.71 7.66-.62 4.47-1.67 10.15 2.39 5.41 35.59-67.359 41.4-84.255-1.73a51.87 51.87 0 0 1 1.119-40.25c8.145-17.52 18.382-23.07 35.436-29.64" /><path fill="#bb8944" d="M3417.99 3836.54c21.08-3.12 26.88 2.22 40.14 17.75 2.67 13.73 8.12 63.9 4.07 75.53-5.09 5.4-2.13 4.01-8.78 5.11-26.73-14.83 15.46-75.03-32.71-80.09-38.21 15.39-17.39 45.47-23.82 74.15-4.54 5.13-1.79 3.68-8.44 4.65l-3.92-2.96c-7.58-15.85-4.6-68.93-3.17-87.93 2.95-3.88 1.09-2.29 6.55-3.71 3.36 2.42 6.75 4.79 10.16 7.12a552 552 0 0 1 19.92-9.62" /><path fill="#bb8944" d="M1327.51 3772.19c6.61 1.08 16.01 2.68 15.19 10.66-4.64 7.36-13.85 9.3-22.35 15.14-2.71 11.4-1.48 29.28-1.2 41.57 8.35-.06 12.23-.74 19.83 2.17 5.04 5.27 3.9 2.31 4.66 8.63-6.58 9.81-13.85 8.04-24.6 8.37v66.77c-.08 1.43-1.2 3.62-1.82 5.13-7.23 3.09-4.68 2.23-13.28 1.32-8.94-7.22 1.34-51.52-5.86-72.62-4.07-2.25-6.95-2.66-11.52-3.46-4.16-5.92-2.84-4.52-3.46-12.89l2.61-2.89c6.17-.02 6.65.09 12.57-1.32 12.22-24.91-17.16-51.81 29.23-66.58" /><path fill="#bb8944" d="M2770.78 2400.18c-12.53-22.52-44.26-64.7-46.35-92.3 4.45 6.37 13.98 19.24 17.25 25.58 1.46 8.31 6.86 25.56 11.57 32.3l1.48-1.81-2.91-15.63 1.95-1.86c2.83 5.49 5.81 10.9 8.91 16.24 2.2-5.91 1.46-6.11 1.12-12.69 10.51 19.91 79.34 123.55 78.92 133.92l-3.53 2.86c-29.23-12.88-51.33-19.96-78.22-30.98 8.56-.67 18.2 1.31 24.86-3.13 3.88.35 16.34 3.65 20.79 4.71-8.6-14.63-25.17-46.1-35.84-57.21" /><path fill="#e11727" fill-opacity=".973" d="M1629.36 985.968c20.59 9.364 5.66 20.212 12.31 31.812 2.34-5.42 3.55-9.42 7.58-13.76 7.34-1.42 8.44 1.02 11.52 8.04l-9.61.38c-6.72 15.58 39.12 212.23 45.8 242.37l-9.99 3.42c-7.03-21.42-12.87-51.17-17.87-73.68-9.31-40.96-17.98-82.06-26.01-123.29-4.61-24.08-8.65-52.06-13.73-75.292" /><path fill="#bb8944" d="m3117.6 3803.28 7.1 3.19c5.22 8.37 3.38 21.64 3.02 31.93 8.87.44 16.09.24 24.56 2.9 2.07 5.23 1.53 2.54.6 8.29-4.52 4.34-14.67 4.81-22 6.41-7.09 8.66 2.87 67.01-4.17 78.2-5.94-.47-7.05-.72-12.84-2.23-5.27-7.58-3.02-62.83-2.9-76.19-9.83-1.1-16.02-.65-24.08-6.18l-.16-3.84c6.16-6.31 14.02-8.83 22.25-12.47 6.75-14.25-5.43-16.36 8.62-30.01" /><path fill="#bb8944" d="M2978.43 3771.9c8.78 1.87 8.83.33 13.6 5.67 2.34 18.23 3.22 141.93-.13 156.42-4.24-.2-15.42.1-15.25-5.48.69-22.84-6.48-144.45 1.78-156.61" /><path fill="#bb8944" d="M1504.68 3836.48c29.91-1.94 14.46 11.81 52.28-3.35-.29 26.77-2.84 22.21-25.16 31.43-7.29 7.67-7.19 16.63-7.79 26.94.4 14.19 3.44 32.39-4.95 42.52-6.55 1.02-6.17 1.29-12.3-1.03-6.03-8.36-3.48-83.07-2.08-96.51" /><path fill="#ea2e41" d="M2920.74 3681.21c50.91-23.51 47.36-52.14 72.64-83.32-2.57 31.64-9.86 64.28-13.76 96.39-22.33-4.38-47.29 8.46-58.88-13.07" /><path fill="#fdfcfb" fill-opacity=".024" d="M2048.02 2387.63c56.75.94 114.98-3.58 171.99-1 17.38.79 44.18.46 60.93 3.26-29.83 2.78-186.59-1.38-196.11 5.48l1.53 7.61-2.15 1.25-3.53-1.43c-5.7-3.89-6.93-3.48-13.66-3.41l-14.92.19.9-3.96c-6.52-4.16-206.32 1.16-235.45-1.77 33.58-4.73 123.7-4.41 161.26-6.08 23.07.17 46.14.13 69.21-.14" /><path fill="#bb8944" d="M911.844 3840.07c7.129.1 11.848-.97 15.843 2.86 1.663 14.27 2.927 80.54-2.446 90.89-7.851-.93-11.617-.35-16.277-5.12-1.498-13.39-3.409-79.64 2.88-88.63" /><defs><linearGradient id="k" x1="2827.604" x2="2806.241" y1="3528.555" y2="3499.756" gradientUnits="userSpaceOnUse"><stop offset="0" stop-color="#cd0915" stop-opacity=".973" /><stop offset="1" stop-color="#c0212f" /></linearGradient></defs><path fill="url(#k)" d="M2798.62 3512.33c7.47-5.02 3.89-9.87 18.23-18.8 11.53-7.17 18.01-3.23 32.54.2 3.64 3.77 3.34 3.37 8.02 5.49-32.29 6.02-48.79 48.01-71.46 71.76 3.89-19.57 9.11-39.52 12.67-58.65" /><path fill="#bb8944" d="M3185.13 3839.97c6.85-.17 7.27-.08 14.01 1.25 5.62 10.32 3.67 78.31 2.24 92.5-8.17.03-11.68.68-16.71-3.97-1.86-15.63-1.26-73.84.46-89.78" /><path fill="#bb8944" d="M3043.93 3837.83c5.96.35 8.78-.17 13.27 3.65 3.27 20.55.42 58.42.8 80.63.15 8.62-1.97 9.34-6.89 13.94-4.88-2.95-8.54-3.7-9.01-10.09-1.1-14.92-4.21-78.96 1.83-88.13" /><path fill="#e11727" fill-opacity=".969" d="M2800.49 3487.11c57.26-1.11 113.28-.28 170.5-.34-15.7 12.49-65.6-5.06-73.32 10.97l-1.73 1.05c-10.3-3.73-27.36-.85-38.53.43-4.68-2.12-4.38-1.72-8.02-5.49-14.53-3.43-21.01-7.37-32.54-.2-14.34 8.93-10.76 13.78-18.23 18.8z" /><path fill="#fdfcfb" fill-opacity=".051" d="M2433.82 3902.45c-19.29 1.87-17 3.62-33.69 13.36-12.33 7.19-34.35.04-39.45-13.43l2.69-3.63c16.82-6.92 54.77-3.19 76.17-4.3-4.2 5.22-1.57 3.25-8.72 5.3z" /><path fill="#e11727" fill-opacity=".965" d="M2813.34 3696.47c21.28-15.21 43.22 7.58 59.88-14.47l2.34 1.64c19 2.41 27.2 1.51 45.18-2.43 11.59 21.53 36.55 8.69 58.88 13.07-19.56 5.21-140.18 2.91-166.28 2.19" /><path fill="#fdfcfb" fill-opacity=".224" d="m2838.86 2041.3 6.8-1.31c-1.16 24.06-53.61 46.69-68.97 68.55l-6.79-3.3-9.67 4.32c11.1-16.28 61.55-51.26 78.63-68.26" /><path fill="#fdfcfb" fill-opacity=".106" d="M1695.36 1070.13c8.07 17.68 24.06 79.25 25.42 98.56-5.7-9.9-5.98-22.22-12.88-26.37-.37 4.44.22 2.32-1.82 6.36l-4.23-2.37c-3.61-7.29-2.87-3.43-1.43-12.11 2.02-13.94-4.89-44.93-5.06-64.07" /><path fill="#e11727" fill-opacity=".929" d="M2589.98 3510.91c-1.36-14.22-2.17-24.72 2.71-38.21 4.63 26.68 31.91 3.91 46.67 15.47.8 5.41 1.53 2.99-1.76 7.53-14.11 3.36-32.67-4.33-44.92 3.57-1.84 5.4-1.98 5.98-2.7 11.64" /><path fill="#fdfcfb" fill-opacity=".035" d="M892.469 1730.77c15.259 6.7 27.761 14.33 41.029 24.55-6.134.33-59.862-14.73-72.498-17.33 11.185-1.57 15.571.69 27.769-1.35z" /><path fill="#0c1c48" fill-opacity=".886" d="m2052.1 2399.58 14.92-.19c6.73-.07 7.96-.48 13.66 3.41-11.38 4.42-31.24 13.21-42.31 5.18 3.69-5.53 7.41-6.05 13.73-8.4" /></svg>