<svg xmlns="http://www.w3.org/2000/svg" xmlns:xlink="http://www.w3.org/1999/xlink" width="2000" zoomAndPan="magnify" viewBox="0 0 1500 1499.999933" height="2000" preserveAspectRatio="xMidYMid meet" version="1.0"><defs><g/><clipPath id="75c1598fd8"><path d="M 666.019531 829 L 834 829 L 834 1018.433594 L 666.019531 1018.433594 Z M 666.019531 829 " clip-rule="nonzero"/></clipPath><clipPath id="bd6659c4a9"><path d="M 696 726.683594 L 804 726.683594 L 804 809 L 696 809 Z M 696 726.683594 " clip-rule="nonzero"/></clipPath></defs><path fill="#ed1c23" d="M 812.648438 1259.414062 L 812.648438 1516.472656 L 687.28125 1516.472656 L 687.28125 1259.414062 L 812.648438 1259.414062 " fill-opacity="1" fill-rule="nonzero"/><path fill="#ed1c23" d="M 1486.941406 836.160156 L 1118.292969 1141.207031 L 1170.53125 1362.804688 L 1011.882812 1304.582031 L 987.175781 1199.960938 L 1249.234375 982.949219 L 1211.292969 961.25 L 1272.175781 803.699219 L 1110.175781 817.460938 L 1092 767.707031 L 889.589844 1023.175781 L 925.234375 600.34375 L 866.117188 649.164062 L 749.929688 420.28125 L 633.882812 649.199219 L 574.695312 600.292969 L 610.253906 1023.175781 L 407.824219 767.53125 L 389.59375 817.460938 L 227.804688 803.699219 L 288.652344 961.25 L 250.550781 983.125 L 512.59375 1199.960938 L 488.046875 1304.757812 L 329.453125 1362.804688 L 381.40625 1141.207031 L 12.953125 836.160156 L 93.28125 790.289062 L 0 548.703125 L 255.898438 570.492188 L 301.269531 446.355469 L 493.234375 688.664062 L 453.847656 220.246094 L 583.800781 327.601562 L 749.910156 -0.0273438 L 916.234375 327.601562 L 1046.117188 220.246094 L 1006.589844 688.664062 L 1198.765625 446.355469 L 1243.941406 570.492188 L 1500 548.703125 L 1406.648438 790.289062 L 1486.941406 836.160156 " fill-opacity="1" fill-rule="nonzero"/><path fill="#333333" d="M 803.691406 817.363281 L 803.691406 879.066406 C 803.691406 907.875 773.234375 931.167969 745.484375 928.90625 C 723.054688 927.082031 696.320312 904.742188 696.320312 881.15625 L 696.320312 817.363281 Z M 803.691406 817.363281 " fill-opacity="1" fill-rule="nonzero"/><g clip-path="url(#75c1598fd8)"><path fill="#333333" d="M 683.765625 829.910156 C 685.132812 858.078125 678.355469 887.132812 694.765625 911.992188 C 721.507812 952.5 781.804688 951.039062 806.773438 909.339844 C 821.261719 885.136719 814.851562 856.804688 816.242188 829.910156 L 833.671875 829.910156 C 832.402344 853.222656 836.882812 878.527344 829.808594 901.003906 C 820.3125 931.1875 790.96875 956.042969 759.066406 958.203125 L 759.066406 995.851562 L 783.820312 995.851562 C 784.449219 995.851562 789.042969 997.589844 789.96875 998.066406 C 797.289062 1001.820312 799.785156 1010.398438 799.507812 1018.160156 L 700.5 1018.160156 C 700.171875 1010.25 702.53125 1001.914062 710.039062 998.066406 C 710.964844 997.589844 715.558594 995.851562 716.1875 995.851562 L 740.941406 995.851562 L 740.941406 958.203125 C 709.277344 955.839844 679.921875 931.664062 670.339844 901.5625 C 663.074219 878.746094 667.585938 853.597656 666.339844 829.910156 L 683.769531 829.910156 Z M 683.765625 829.910156 " fill-opacity="1" fill-rule="nonzero"/></g><g clip-path="url(#bd6659c4a9)"><path fill="#333333" d="M 803.691406 808.296875 L 696.316406 808.296875 L 696.316406 771.695312 C 696.316406 760.542969 707.539062 744.445312 716.203125 737.890625 C 745.210938 715.941406 789.527344 727.359375 801.089844 762.441406 C 801.808594 764.613281 803.691406 770.492188 803.691406 772.394531 L 803.691406 808.300781 Z M 745.816406 732.296875 C 744.222656 739.792969 753.9375 740.195312 754.136719 733.425781 L 753.035156 732.40625 Z M 739.367188 739.382812 C 735.664062 740.058594 734.839844 745.480469 738.316406 747.121094 C 745.667969 750.597656 746.609375 738.0625 739.367188 739.382812 Z M 763.035156 740.871094 C 760.058594 737.253906 753.664062 740.429688 755.949219 745.535156 C 758.269531 750.710938 766.96875 745.648438 763.035156 740.871094 Z M 718.105469 746.773438 C 721.40625 749.800781 726.738281 745.558594 724.570312 741.34375 C 723.242188 739.34375 715.78125 744.644531 718.105469 746.773438 Z M 776.199219 740.683594 C 771.773438 741.980469 778.164062 752.542969 782.761719 745.199219 C 781.277344 744.230469 777.785156 740.222656 776.199219 740.683594 Z M 730.226562 748.515625 C 724.804688 749.117188 725.230469 757.804688 731.492188 756.707031 C 736.445312 755.835938 735.273438 747.957031 730.226562 748.515625 Z M 766.210938 755.839844 C 769.257812 758.886719 776.636719 754.429688 772.34375 750.050781 C 767.925781 745.542969 762.925781 752.554688 766.210938 755.839844 Z M 713.398438 749.046875 C 712.226562 750.074219 706.988281 755.703125 710.015625 756.625 C 714.945312 758.125 717.554688 751.941406 713.398438 749.046875 Z M 748.414062 749.175781 C 744.949219 750.203125 744.972656 755.539062 748.414062 756.5625 C 755.792969 758.75 755.789062 746.984375 748.414062 749.175781 Z M 786.609375 749.046875 C 781.503906 752.105469 786.054688 759.117188 790.464844 756.375 C 792.273438 755.25 787.578125 750.25 786.609375 749.046875 Z M 724.039062 764.90625 C 727.515625 761.429688 721.632812 754.992188 717.613281 759.519531 C 713.976562 763.617188 720.839844 768.101562 724.039062 764.90625 Z M 736.941406 764.890625 C 741.722656 769.890625 748.152344 760.113281 741.835938 758.238281 C 737.230469 756.871094 734.402344 762.234375 736.941406 764.890625 Z M 758.179688 758.21875 C 753.589844 759.53125 755.539062 767.492188 760.488281 766.167969 C 765.96875 764.707031 764.027344 756.550781 758.179688 758.21875 Z M 781.910156 758.964844 C 778.707031 755.75 772.210938 760.316406 775.734375 764.789062 C 778.917969 768.832031 786.039062 763.101562 781.910156 758.964844 Z M 710.066406 767.285156 C 705.355469 768.671875 706.933594 775.78125 711.246094 775.539062 C 717.40625 775.199219 715.824219 765.589844 710.066406 767.285156 Z M 729.605469 767.269531 C 724.507812 768.199219 725.714844 776.449219 731.359375 775.421875 C 736.457031 774.492188 735.25 766.242188 729.605469 767.269531 Z M 748.417969 767.28125 C 743.921875 768.566406 745.246094 777.28125 751.4375 775.226562 C 756.429688 773.566406 753.972656 765.699219 748.417969 767.28125 Z M 772.796875 773.929688 C 776.804688 769.0625 768.066406 764.34375 765.691406 769.25 C 763.328125 774.136719 769.742188 777.640625 772.796875 773.929688 Z M 787.464844 767.28125 C 782.917969 768.578125 784.53125 777 789.945312 775.40625 C 794.773438 773.980469 793.488281 765.570312 787.464844 767.28125 Z M 704.492188 783.703125 C 706.421875 781.371094 705.484375 777.335938 702.601562 776.226562 L 702.601562 784.59375 C 702.660156 784.679688 704.34375 783.886719 704.492188 783.703125 Z M 720.53125 776.335938 C 715.21875 777.148438 715.5 785.492188 721.726562 784.609375 C 726.59375 783.917969 725.71875 775.542969 720.53125 776.335938 Z M 739.367188 776.335938 C 734.296875 777.257812 735.222656 785.605469 741.121094 784.484375 C 746.25 783.503906 744.980469 775.3125 739.367188 776.335938 Z M 763.035156 777.820312 C 758.132812 771.871094 751.351562 783.136719 758.886719 784.484375 C 762.777344 785.179688 765.46875 780.777344 763.035156 777.820312 Z M 778.398438 776.335938 C 773.371094 777.109375 774.121094 785.097656 779.5625 784.59375 C 785.808594 784.007812 783.214844 775.597656 778.398438 776.335938 Z M 797.40625 784.59375 L 797.070312 776.230469 C 793.488281 778.851562 792.796875 782.816406 797.40625 784.59375 Z M 714.261719 786.863281 C 710.121094 782.511719 703.925781 789.738281 708.46875 793.007812 C 712.917969 796.210938 717.527344 790.292969 714.261719 786.863281 Z M 730.242188 785.433594 C 725.023438 785.921875 724.800781 794.800781 731.492188 793.660156 C 736.953125 792.730469 734.394531 785.042969 730.242188 785.433594 Z M 746.703125 786.863281 C 742.421875 791.363281 751.335938 797.066406 753.828125 791.550781 C 755.757812 787.277344 749.859375 783.535156 746.703125 786.863281 Z M 788.699219 785.601562 C 783.519531 785.601562 782.769531 793.6875 788.699219 793.6875 C 794.628906 793.6875 793.878906 785.601562 788.699219 785.601562 Z M 766.207031 786.851562 C 763.078125 789.980469 767.710938 796.089844 772.019531 793.007812 C 776.867188 789.539062 770.027344 783.03125 766.207031 786.851562 Z M 704.492188 795.9375 C 704.339844 795.753906 702.660156 794.964844 702.601562 795.046875 L 702.601562 802.019531 C 706.097656 802.898438 706.082031 797.855469 704.492188 795.9375 Z M 724.039062 801.855469 C 727.160156 798.738281 722.558594 792.621094 718.226562 795.699219 C 713.082031 799.359375 720.308594 805.582031 724.039062 801.855469 Z M 736.925781 801.855469 C 740.652344 805.582031 747.882812 799.359375 742.738281 795.699219 C 738.40625 792.621094 733.804688 798.738281 736.925781 801.855469 Z M 763.082031 801.855469 C 766.976562 792 750.957031 793.558594 756.972656 802.371094 Z M 777.714844 795.175781 C 773.878906 795.953125 773.710938 801.566406 776.980469 802.582031 C 784.660156 804.960938 785.15625 793.660156 777.714844 795.175781 Z M 798.109375 795.054688 C 793.53125 794.824219 792.070312 802.128906 797.070312 802.722656 C 798.3125 802.867188 798.160156 802.800781 798.039062 801.71875 C 797.757812 799.242188 798.003906 797.5 798.109375 795.054688 Z M 798.109375 795.054688 " fill-opacity="1" fill-rule="nonzero"/></g><g fill="#333333" fill-opacity="1"><g transform="translate(479.12194, 1144.230937)"><g><path d="M 46.34375 2.09375 C 37.78125 2.09375 30.5625 0.84375 24.6875 -1.65625 C 18.8125 -4.164062 14.359375 -7.851562 11.328125 -12.71875 C 8.296875 -17.582031 6.78125 -23.515625 6.78125 -30.515625 L 6.78125 -69.921875 L 25.78125 -69.921875 L 25.78125 -31.109375 C 25.78125 -24.984375 27.578125 -20.253906 31.171875 -16.921875 C 34.773438 -13.585938 40.054688 -11.921875 47.015625 -11.921875 C 53.859375 -11.921875 59.117188 -13.59375 62.796875 -16.9375 C 66.472656 -20.289062 68.3125 -25.015625 68.3125 -31.109375 L 68.3125 -69.921875 L 85.9375 -69.921875 L 85.9375 -30.46875 C 85.9375 -23.46875 84.421875 -17.539062 81.390625 -12.6875 C 78.367188 -7.84375 73.910156 -4.164062 68.015625 -1.65625 C 62.128906 0.84375 54.90625 2.09375 46.34375 2.09375 Z M 46.34375 2.09375 "/></g></g></g><g fill="#333333" fill-opacity="1"><g transform="translate(571.842925, 1144.230937)"><g><path d="M 8.84375 0 L 8.84375 -69.921875 L 27.546875 -69.921875 L 67.53125 -26.21875 L 71.96875 -21.6875 L 71.625 -27.734375 L 71.625 -69.921875 L 88.09375 -69.921875 L 88.09375 0 L 69.78125 0 L 29.34375 -43.65625 L 25 -48.25 L 25.25 -42.1875 L 25.25 0 Z M 8.84375 0 "/></g></g></g><g fill="#333333" fill-opacity="1"><g transform="translate(668.762964, 1144.230937)"><g><path d="M 41.0625 2.09375 C 36.800781 2.09375 32.644531 1.671875 28.59375 0.828125 C 24.539062 -0.015625 20.78125 -1.257812 17.3125 -2.90625 C 13.84375 -4.550781 10.828125 -6.582031 8.265625 -9 C 5.710938 -11.425781 3.804688 -14.203125 2.546875 -17.328125 L 14.453125 -24.03125 L 14.796875 -24.03125 C 16.128906 -21.488281 18.023438 -19.289062 20.484375 -17.4375 C 22.941406 -15.582031 25.863281 -14.148438 29.25 -13.140625 C 32.632812 -12.128906 36.394531 -11.625 40.53125 -11.625 C 43.59375 -11.625 46.15625 -11.847656 48.21875 -12.296875 C 50.28125 -12.753906 51.929688 -13.375 53.171875 -14.15625 C 54.410156 -14.9375 55.296875 -15.800781 55.828125 -16.75 C 56.367188 -17.695312 56.640625 -18.65625 56.640625 -19.625 C 56.640625 -21.1875 56.160156 -22.40625 55.203125 -23.28125 C 54.242188 -24.164062 52.796875 -24.898438 50.859375 -25.484375 C 48.921875 -26.078125 46.503906 -26.664062 43.609375 -27.25 L 28.765625 -30.421875 C 21.015625 -32.109375 15.257812 -34.6875 11.5 -38.15625 C 7.738281 -41.625 5.859375 -46.160156 5.859375 -51.765625 C 5.859375 -56.117188 7.128906 -59.800781 9.671875 -62.8125 C 12.210938 -65.820312 15.90625 -68.109375 20.75 -69.671875 C 25.601562 -71.234375 31.476562 -72.015625 38.375 -72.015625 C 43.351562 -72.015625 48.039062 -71.445312 52.4375 -70.3125 C 56.832031 -69.175781 60.785156 -67.351562 64.296875 -64.84375 C 67.816406 -62.332031 70.765625 -59.03125 73.140625 -54.9375 L 59.96875 -49.03125 C 59.894531 -49.0625 59.8125 -49.066406 59.71875 -49.046875 C 59.625 -49.035156 59.539062 -49.03125 59.46875 -49.03125 C 58.5 -51.070312 57.175781 -52.71875 55.5 -53.96875 C 53.820312 -55.226562 51.976562 -56.195312 49.96875 -56.875 C 47.96875 -57.5625 45.96875 -58.023438 43.96875 -58.265625 C 41.96875 -58.515625 40.140625 -58.640625 38.484375 -58.640625 C 34.703125 -58.640625 31.660156 -58.335938 29.359375 -57.734375 C 27.066406 -57.140625 25.398438 -56.328125 24.359375 -55.296875 C 23.316406 -54.273438 22.796875 -53.113281 22.796875 -51.8125 C 22.796875 -50.21875 23.300781 -48.953125 24.3125 -48.015625 C 25.320312 -47.085938 26.625 -46.363281 28.21875 -45.84375 C 29.8125 -45.320312 31.503906 -44.882812 33.296875 -44.53125 L 51.171875 -40.375 C 56.023438 -39.4375 60.191406 -38.1875 63.671875 -36.625 C 67.148438 -35.0625 69.832031 -32.984375 71.71875 -30.390625 C 73.613281 -27.804688 74.5625 -24.476562 74.5625 -20.40625 C 74.5625 -17.09375 73.800781 -14.054688 72.28125 -11.296875 C 70.769531 -8.546875 68.570312 -6.171875 65.6875 -4.171875 C 62.8125 -2.171875 59.296875 -0.628906 55.140625 0.453125 C 50.992188 1.546875 46.300781 2.09375 41.0625 2.09375 Z M 41.0625 2.09375 "/></g></g></g><g fill="#333333" fill-opacity="1"><g transform="translate(746.787253, 1144.230937)"><g><path d="M 34.578125 0 L 0.34375 -69.921875 L 21.484375 -69.921875 L 46.09375 -15.71875 L 70.796875 -69.921875 L 90.578125 -69.921875 L 56.296875 0 Z M 34.578125 0 "/></g></g></g><g fill="#333333" fill-opacity="1"><g transform="translate(837.652853, 1144.230937)"><g><path d="M 47.796875 2.09375 C 40.929688 2.09375 34.722656 1.222656 29.171875 -0.515625 C 23.617188 -2.253906 18.875 -4.742188 14.9375 -7.984375 C 11 -11.222656 7.972656 -15.101562 5.859375 -19.625 C 3.742188 -24.15625 2.6875 -29.203125 2.6875 -34.765625 C 2.6875 -40.398438 3.726562 -45.503906 5.8125 -50.078125 C 7.894531 -54.648438 10.875 -58.570312 14.75 -61.84375 C 18.625 -65.113281 23.273438 -67.625 28.703125 -69.375 C 34.140625 -71.132812 40.226562 -72.015625 46.96875 -72.015625 C 51.039062 -72.015625 55.03125 -71.613281 58.9375 -70.8125 C 62.84375 -70.019531 66.507812 -68.816406 69.9375 -67.203125 C 73.375 -65.597656 76.441406 -63.582031 79.140625 -61.15625 C 81.847656 -58.726562 84.046875 -55.882812 85.734375 -52.625 C 87.429688 -49.375 88.457031 -45.71875 88.8125 -41.65625 L 72.3125 -37.796875 L 71.828125 -38.03125 C 71.398438 -41.0625 70.597656 -43.664062 69.421875 -45.84375 C 68.253906 -48.03125 66.820312 -49.851562 65.125 -51.3125 C 63.4375 -52.78125 61.582031 -53.945312 59.5625 -54.8125 C 57.550781 -55.675781 55.460938 -56.296875 53.296875 -56.671875 C 51.128906 -57.046875 49.003906 -57.234375 46.921875 -57.234375 C 43.304688 -57.234375 39.976562 -56.726562 36.9375 -55.71875 C 33.894531 -54.707031 31.242188 -53.253906 28.984375 -51.359375 C 26.722656 -49.472656 24.972656 -47.171875 23.734375 -44.453125 C 22.492188 -41.734375 21.875 -38.664062 21.875 -35.25 C 21.875 -31.601562 22.53125 -28.378906 23.84375 -25.578125 C 25.164062 -22.785156 27.03125 -20.425781 29.4375 -18.5 C 31.851562 -16.582031 34.703125 -15.132812 37.984375 -14.15625 C 41.273438 -13.1875 44.890625 -12.703125 48.828125 -12.703125 C 51.304688 -12.703125 53.765625 -12.925781 56.203125 -13.375 C 58.640625 -13.832031 60.925781 -14.582031 63.0625 -15.625 C 65.195312 -16.664062 67.09375 -18.039062 68.75 -19.75 C 70.40625 -21.457031 71.691406 -23.550781 72.609375 -26.03125 L 89.203125 -20.796875 C 87.898438 -17.148438 85.957031 -13.898438 83.375 -11.046875 C 80.789062 -8.203125 77.695312 -5.800781 74.09375 -3.84375 C 70.5 -1.894531 66.476562 -0.421875 62.03125 0.578125 C 57.59375 1.585938 52.847656 2.09375 47.796875 2.09375 Z M 47.796875 2.09375 "/></g></g></g><g fill="#333333" fill-opacity="1"><g transform="translate(929.250807, 1144.230937)"><g><path d="M 47.796875 2.09375 C 40.929688 2.09375 34.722656 1.222656 29.171875 -0.515625 C 23.617188 -2.253906 18.875 -4.742188 14.9375 -7.984375 C 11 -11.222656 7.972656 -15.101562 5.859375 -19.625 C 3.742188 -24.15625 2.6875 -29.203125 2.6875 -34.765625 C 2.6875 -40.398438 3.726562 -45.503906 5.8125 -50.078125 C 7.894531 -54.648438 10.875 -58.570312 14.75 -61.84375 C 18.625 -65.113281 23.273438 -67.625 28.703125 -69.375 C 34.140625 -71.132812 40.226562 -72.015625 46.96875 -72.015625 C 51.039062 -72.015625 55.03125 -71.613281 58.9375 -70.8125 C 62.84375 -70.019531 66.507812 -68.816406 69.9375 -67.203125 C 73.375 -65.597656 76.441406 -63.582031 79.140625 -61.15625 C 81.847656 -58.726562 84.046875 -55.882812 85.734375 -52.625 C 87.429688 -49.375 88.457031 -45.71875 88.8125 -41.65625 L 72.3125 -37.796875 L 71.828125 -38.03125 C 71.398438 -41.0625 70.597656 -43.664062 69.421875 -45.84375 C 68.253906 -48.03125 66.820312 -49.851562 65.125 -51.3125 C 63.4375 -52.78125 61.582031 -53.945312 59.5625 -54.8125 C 57.550781 -55.675781 55.460938 -56.296875 53.296875 -56.671875 C 51.128906 -57.046875 49.003906 -57.234375 46.921875 -57.234375 C 43.304688 -57.234375 39.976562 -56.726562 36.9375 -55.71875 C 33.894531 -54.707031 31.242188 -53.253906 28.984375 -51.359375 C 26.722656 -49.472656 24.972656 -47.171875 23.734375 -44.453125 C 22.492188 -41.734375 21.875 -38.664062 21.875 -35.25 C 21.875 -31.601562 22.53125 -28.378906 23.84375 -25.578125 C 25.164062 -22.785156 27.03125 -20.425781 29.4375 -18.5 C 31.851562 -16.582031 34.703125 -15.132812 37.984375 -14.15625 C 41.273438 -13.1875 44.890625 -12.703125 48.828125 -12.703125 C 51.304688 -12.703125 53.765625 -12.925781 56.203125 -13.375 C 58.640625 -13.832031 60.925781 -14.582031 63.0625 -15.625 C 65.195312 -16.664062 67.09375 -18.039062 68.75 -19.75 C 70.40625 -21.457031 71.691406 -23.550781 72.609375 -26.03125 L 89.203125 -20.796875 C 87.898438 -17.148438 85.957031 -13.898438 83.375 -11.046875 C 80.789062 -8.203125 77.695312 -5.800781 74.09375 -3.84375 C 70.5 -1.894531 66.476562 -0.421875 62.03125 0.578125 C 57.59375 1.585938 52.847656 2.09375 47.796875 2.09375 Z M 47.796875 2.09375 "/></g></g></g></svg>