<svg xmlns="http://www.w3.org/2000/svg" width="1012" height="1012" viewBox="0 0 1012 1012"><path fill="#e4313f" d="M587.992 338.012c9.683-6.2 52.354-54.922 56.346-54.616-.194 1.255-.281 1.468-.167 2.714l.998-.05c2.519-1.529 4.932-4.08 6.65-6.575 4.917-7.137 19.817-42.662 27.283-43.617 5.499 4.225-5.334 22.496 8.209 27.863l.623.24c.062-2.758-.186-4.7 1.356-6.971l.931-.256c1.8 1.814.958 4.782.65 7.125 1.636 2.432 5.862 5.118 6.622 7.378 2.945 8.755.898 14.169 11.636 16.376 13.034 2.679 16.484-3.242 25.898-9.94 10.325-7.346 23.033-9.002 34.837-4.256l.675-.336c6.626-3.346 14.218-9.264 20.642-13.255 2.5-1.553 5.016-4.06 7.614-4.919l.784.306c-.331 4.549-18.009 27.791-21.324 35.444 4.515-1.67 8.354-4.382 13.365-6.142 9.217-5.962 11.147-10.574 22.575-14.492-11.529 14.692-22.345 37.506-30.328 54.445l-11.39 27.43c1.522-.52 2.49-1.063 4.013-.671 2.951 3.66-6.072 15.086-7.64 19.91 1.359 1.453 2.743-.25 2.624 2.605-.115 2.728-1.005 5.868-1.367 8.613 2.794.694 3.961.801 6.778 1.051 2.442 1.297 2.367 1.76 3.34 4.63 9.89 4.073 23.26-.375 36.394 4.2-14.057 5.15-19.294 4.856-32.947 12.85 3.305.428 6.335.319 9.655.082 12.78-.91 26.466-2.566 39.206-.45-11.04 5.168-21.09 8.257-31.877 14.587-7.21 4.23-16.05 12.896-22.525 16.241-6.968 5.3-11.736 6.795-18.755 11.306-11.86 7.623-23.718 15.345-35.904 22.462-3.233 1.887-8.923 5.951-11.797 7.407-2.063 1.772-3.804 3.262-5.728 5.21-4.508 4.641-30.653 23.744-35.784 21.552l1.011-1.85c-6.757 3.746-12.55 8.557-20.475 12.494-2.428 1.467-4.218 2.713-6.928 3.59 6.614 16.019 14.184 22.203 20.138 37.168a197 197 0 0 0 2.934 7.45c6.432 9.63 13.485 21.863 19.38 31.914-4.462-1.794-23.56-9.472-27.476-8.165l-.299 1.804c-2.33.553-5.095-3.408-7.263-4.47-5.786-2.836-12.244-2.748-18.37-3.653l-2.682-.125c-9.858-.218-23.073-.316-32.687-1.623-6.144-1.289-12.287-4.14-18.566-4.783-24.544-2.514-50.168-4.15-74.829-2.576l-4.212-.142q-25.518.682-51.025 1.686c-13.23.606-29.06.817-41.665 4.824-9.99 3.176-18.807 2.74-28.772 5.132-6.597 1.63-18.661 14.28-24.326 10.26-.343-3.017 2.732-4.802 5.312-4.843 1.565-1.904 1.884-1.801 1.177-3.962-3.247-6.23 9.168-16.131 7.558-20.233-9.425 4.494-16.22 9.31-24.313 15.583 1.573-4.383 4.673-10.975 8.186-13.965 4.583-3.9 7.85-4.313 10.955-10.043 3.981-7.348-1.93-13.093 3.416-20.515 3.192-4.432 10.23-6.978 12.606-12.075.892-1.912.286-2.643-.405-4.3-13.584-6.872-22.008-14.751-33.976-23.817a425 425 0 0 0-33.12-23.171c-6.995-3.868-26.39-15.805-32.202-20.259-2.92-1.892-5.264-4.057-8.63-6.054-3.2-1.898-6.159-3.29-9.284-5.134-2.945-1.264-6.079-4.048-8.699-6.115-.84-1.296-2.764-3.567-3.79-4.862-1.373-1.266-3.247-3.445-4.717-4.918-5.3-5.768-21.734-12.184-28.883-17.876-2.453-1.952-9.131-.94-13.468-5.393l.053-.78c3.248-2.742 12.534-1.08 16.69-.553 7.168-3.687 10.112-3.079 17.806-4.787 4.082-.907 8.856-2.396 12.912-3.642 2.858 2.527 8.17 6.895 12.098 4.747.538-3.844-6.819-5.945-9.675-6.483 4.646-4.534 7.994-7.25 11.233-12.956-4.296-11.296-21.951-23.57-22.022-32.396 1.544-3.469 4.915-1.742 7.892-.914-1.033-25.337-8.492-19.77-16.722-37.299l5.565-1.159c-3.215-7.582-6.822-9.704-10.044-15.96.758-.977 1.925-.44 4.005-1.103-2.352-5.214-19.018-19.706-23.463-27.618 12.009 2.617 11.433 6.073 21.091 11.747 5.801 3.407 16.407 5.865 22.15 9.563a435 435 0 0 0-4.88-9.041c9.588 1.403 17.944 5.276 26.573 9.573 7.027 3.499 12.543 7.217 20.36 8.507 1.071-3.812 1.513-6.853 3.832-9.992 3.56-1.743 6.242 4.142 9.945 6.055 2.366 1.222 4.22 1.716 6.718 2.494 2.062 2.124 4.11 5.592 5.767 8.181-.22-4.66-4.064-23.679 2.534-25.112 2.094 1.113 1.57 1.039 3.036 3.35 3.958-5.62 7.913-14.164 8.33-21.152.197-3.324-3.693-12.466-1.387-15.482l.895-.107c2.97 2.343 14.26 18.963 17.774 23.594 11.15 14.696 22.615 29.421 33.79 44.135 4.68 6.164 8.804 16.793 15.11 21.977 6.847 5.627 12.94 5.278 21.027 4.566.703 16.219.525 34.503.196 50.715-.724 35.708 24.212 57.958 59.71 58.2 2.625.14 6.331.011 8.526.97l.702 1.467c3.156.2 8.23.035 11.532.037 3.133-.042 18.577-.419 20.748.36l.39.946c.78-.627.426-1.04 1.04-1.729 2.236-2.504 8.842-1.553 11.701-1.975l.601-.093a57.56 57.56 0 0 0 36.498-16.726c16.414-16.357 15.332-32.347 15.456-53.444zm69.897 213.36.956 1.23 1.358.928.69-.09c-.062-3.288-6.99-13.559-9.828-15.206l-.768 1.34c2.331 4.392 4.198 8.118 7.592 11.799M260.167 418.248c-.246-2.915-11.025-8.666-13.837-10.404 1.09 8.707 4.242 14.486 13.837 10.404m22.032-90.798c1.507.3 2.334.68 3.72.349-.325-3.422-3.365-12.705-5.878-14.879-.553-.479-.56-.457-1.097-.782.634 1.608 1.173 2.44.822 4.113-2.943 1.336-1.094-1.456-3.386.788-.027 2.56 1.977 3.165 4.064 4.445l-.098.573c-.247 1.49-.52 2.164.044 3.55zm-9.66 97.66c-1.516-5.7-3.948-6.102-9.71-5.521 2.71 3.112 5.725 4.57 9.71 5.521"/><path fill="#132741" d="M783.672 405.096c3.305.428 6.335.319 9.655.082 12.78-.91 26.466-2.566 39.206-.45-11.04 5.168-21.09 8.257-31.877 14.587-7.21 4.23-16.05 12.896-22.525 16.241-6.968 5.3-11.736 6.795-18.755 11.306-11.86 7.623-23.718 15.345-35.904 22.462-3.233 1.887-8.923 5.951-11.797 7.407-2.063 1.772-3.804 3.262-5.728 5.21-4.508 4.641-30.653 23.744-35.784 21.552l1.011-1.85c-6.757 3.746-12.55 8.557-20.475 12.494-2.428 1.467-4.218 2.713-6.928 3.59l-.124-.233a328 328 0 0 1-4.532 2.707C636.998 507.387 637.37 504.645 648 496c10.025-8.153 21.002-20.007 32.776-25.545-2.342 3.148-5.202 6.44-7.734 9.482 14.467-9.842 27.696-20.176 42.554-29.755 8.074-5.205 15.683-9.392 23.527-14.34a689 689 0 0 0 43.05-29.493z"/><path fill="#a78455" d="M783.672 405.096c3.305.428 6.335.319 9.655.082 12.78-.91 26.466-2.566 39.206-.45-11.04 5.168-21.09 8.257-31.877 14.587-7.21 4.23-16.05 12.896-22.525 16.241-6.968 5.3-11.736 6.795-18.755 11.306-11.86 7.623-23.718 15.345-35.904 22.462-3.233 1.887-8.923 5.951-11.797 7.407-2.063 1.772-3.804 3.262-5.728 5.21l-1.484-1.89c-.182-2.485 3.352-4.23 5.444-5.59 15.906-10.698 28.9-24.285 43.823-36.26 13.42-10.767 34.062-18.811 44.836-31.62-4.667.638-11.945 1.304-16.394-.233z"/><path fill="#132741" d="M711.675 476.73c2.065-2.94 15.19-12.21 19.104-15.452 8.175-6.769 18.184-16.501 27.127-21.9 3.521-2.125 16.39-5.26 20.225-3.822-6.968 5.3-11.736 6.795-18.755 11.306-11.86 7.623-23.718 15.345-35.904 22.462-3.233 1.887-8.923 5.951-11.797 7.407"/><path fill="#938670" d="m684.885 483.909-.352 3.137c-1.946 1.86-3.274 3.192-5.08 5.233-1.832 2.386-7.504 8.02-8.055 9.337l-.224.028c-6.757 3.745-12.55 8.556-20.475 12.493-2.428 1.467-4.218 2.713-6.928 3.59l-.124-.233c8.112-10.05 13.605-13.175 23.764-20.604 5.792-4.237 11.527-8.746 17.474-12.981"/><defs><linearGradient id="a" x1="674.461" x2="672.754" y1="509.199" y2="506.625" gradientUnits="userSpaceOnUse"><stop offset="0" stop-color="#1f2c41"/><stop offset="1" stop-color="#33404a"/></linearGradient></defs><path fill="url(#a)" d="M658.415 520.234c3.047-3.928 25.105-21.606 29.095-22.118-1.854 2.415-7.593 8.115-8.151 9.448l-.226.028c-6.837 3.79-12.699 8.658-20.718 12.642" transform="scale(.98828)"/><path fill="#938670" d="M684.885 483.909c8.378-6.43 15.328-11.49 22.812-19.071-2.061 5.009-3.911 8.755-7.837 12.688-2.87 2.874-13.311 6.872-14.32 10.102l-1.007-.582z"/><path fill="#e1dede" d="m684.533 487.046 1.007.582c-1.153 3.935-10.47 12.64-14.142 13.988.551-1.318 6.223-6.95 8.055-9.337 1.806-2.041 3.134-3.373 5.08-5.233"/><path fill="#ad434e" d="m754.587 430.84.656.625c-.684 2.921-19.827 12.446-23.61 14.76l-.26-.09-.167-.45c9.422-7.535 12.277-9.394 23.381-14.846"/><path fill="#132741" d="M421.94 562.458c41.955-7.471 86.68-5.996 129.169-4.424 27.48 1.016 55.946 6.73 81.942 15.938 1.485.822 5.787 3.047 6.755 4.164l.835.85c-1.176.647-6.004.614-7.827.789l-2.681-.125c-9.858-.218-23.073-.316-32.687-1.623-6.144-1.289-12.287-4.14-18.566-4.783-24.544-2.514-50.168-4.15-74.829-2.576l-4.212-.142q-25.518.682-51.025 1.686c-13.23.606-29.06.817-41.665 4.824-9.99 3.176-18.807 2.74-28.772 5.132-6.597 1.63-18.661 14.28-24.326 10.26-.343-3.017 2.732-4.802 5.312-4.843 1.565-1.904 1.884-1.801 1.177-3.962-3.247-6.23 9.168-16.131 7.558-20.233l.273-.53c4.984-2.612 12.05-4.411 17.572-5.963l1.756 6.59c3.268-.257 4.787-.624 7.965-1.36l.53 1.265c3.541.475 5.524-.807 8.892-2.206l.218.598c.442 1.397.36 1.713 1.269 2.765 5.138-.275 10.14-1.723 15.367-2.09"/><defs><linearGradient id="b" x1="429.6" x2="426.436" y1="586.657" y2="572.544" gradientUnits="userSpaceOnUse"><stop offset="0" stop-color="#eae5d2"/><stop offset="1" stop-color="#fefdff"/></linearGradient></defs><path fill="url(#b)" d="m372.463 570.071.276-.536c5.043-2.644 12.193-4.464 17.781-6.034l1.776 6.667c3.307-.259 4.844-.631 8.06-1.376l.536 1.281c3.583.48 5.59-.817 8.998-2.232l.22.605c.447 1.413.364 1.733 1.284 2.797 5.199-.278 10.261-1.743 15.549-2.115l-.204.594q1.467.186 2.931.394c10.751-1.326 52.682-4.303 61.348-1.284 1.504 1.372 1.501 1.791 2.206 3.795 1.869.713 7.006.695 9.307.772.554 1.529.681 2.138 1.692 3.452l1.543.44a4097 4097 0 0 0-51.63 1.706c-13.386.613-29.404.827-42.159 4.881-10.108 3.214-19.03 2.773-29.113 5.193-6.675 1.65-18.883 14.449-24.615 10.382-.347-3.053 2.765-4.859 5.375-4.9 1.584-1.927 1.907-1.823 1.191-4.009-3.285-6.305 9.277-16.323 7.648-20.473" transform="scale(.98828)"/><path fill="#a78455" d="m368.098 563.39.273-.53c4.984-2.612 12.05-4.411 17.572-5.963l1.756 6.59c3.268-.257 4.787-.624 7.965-1.36l.53 1.265c3.541.475 5.524-.807 8.892-2.206l.218.598c.442 1.397.36 1.713 1.269 2.765 5.138-.275 10.14-1.723 15.367-2.09l-.202.586q1.45.184 2.897.39c-4.174.64-9.727 1.333-13.73 2.293-7.643 2.077-26.369 5.44-32.382 7.873l-.368 1.603c-4.989 3.844-14.096 4.43-17.615 8.42-3.247-6.232 9.168-16.132 7.558-20.234"/><path fill="#2e2d2d" d="M406.573 564.549c5.138-.275 10.14-1.723 15.367-2.09l-.202.586q1.45.184 2.897.39c-4.174.64-9.727 1.333-13.73 2.293-7.643 2.077-26.369 5.44-32.382 7.873-1.616-.708-1.16-.13-1.72-1.51l.617-1.055c5.147-3.015 22.638-5.347 29.153-6.487"/><path fill="#a66c53" d="M487.444 565.916c1.847.705 6.924.687 9.198.763.547 1.511.673 2.113 1.672 3.412l1.525.435q-25.518.682-51.025 1.686c-13.23.606-29.06.817-41.665 4.824-9.99 3.176-18.807 2.74-28.772 5.132-6.597 1.63-18.661 14.28-24.326 10.26-.343-3.017 2.732-4.802 5.312-4.843 6.576-.798 14.819-7.46 21.873-9.177 24.89-6.058 51.021-8.002 76.506-10.057 5.41-.436 26.116.62 29.27-2.142z"/><path fill="#a78455" d="M424.635 563.435c10.625-1.31 52.064-4.253 60.629-1.27 1.486 1.357 1.483 1.77 2.18 3.751l-.432.293c-1.618-.841-2.69-.88-4.512-.831-20.113.548-40.188 3.014-60.327 2.18-2.818-.117-5.757-.332-8.56-.091-.852-.355-1.912-1.184-2.708-1.74 4.003-.959 9.556-1.652 13.73-2.292"/><path fill="#bc9c6e" d="M378.523 573.601c6.013-2.433 24.74-5.796 32.382-7.873.796.555 1.856 1.384 2.707 1.739-4.935.966-9.426 2.336-14.34 3.385-6.984 1.49-14.308 2.26-21.117 4.352z"/><path fill="#938670" d="M496.642 566.68c14.034-2.188 21.185-3.922 34.98-.188-6.541.096-21.786 1.446-27.571 4.176l-4.212-.142-1.525-.435c-1-1.299-1.125-1.9-1.672-3.412"/><path fill="#e1dede" d="M630.133 579.65c.526-1.198.496-1.097 1.209-2.187 2.548-.927 5.713.103 8.464.673l.835.85c-1.176.647-6.004.614-7.827.789z"/><path fill="#bc9c6e" d="M588.445 571.103c-2.306.08-11.493-1.016-13.389-2.049 4.627-5.286 43.902 2.77 50.693 6.231 1.562.386 1.89.327 3.133 1.36-1.986 2.091-15.118-.31-18.205-1.14-4.65-.478-16.301-3.385-22.232-4.402"/><path fill="#e1dede" d="M588.445 571.103c3.364-1.874 21.883 1.557 25.502 2.918l.846 1.245c-1.705.27-2.388-.182-4.116.239-4.65-.478-16.301-3.385-22.232-4.402"/><path fill="#fdf9f7" d="M613.947 574.021c3.345.572 8.55 1.654 11.802 1.264 1.562.386 1.89.327 3.133 1.36-1.986 2.091-15.118-.31-18.205-1.14 1.728-.421 2.411.031 4.116-.24z"/><path fill="#132741" d="M501.433 443.818c3.133-.042 18.577-.419 20.748.36l.39.946c-.605 6.265-.35 16.046-.36 22.603q-.082 19.705.102 39.411c-6.357.138-15.747.242-22.012-.188l-10.789.12c.205-20.676-.618-42.657.389-63.29 3.156.201 8.23.036 11.532.038"/><path fill="#d5bb8d" d="M501.433 443.818c3.133-.042 18.577-.419 20.748.36l.39.946c-.605 6.265-.35 16.046-.36 22.603q-.082 19.705.102 39.411c-6.357.138-15.747.242-22.012-.188 4.618-.857 8.707.483 12.638-.918.618-.22.58-1.127.77-2.03-.313-2.948-.178-8.568-.21-11.733-.498-4.874-.282-14.688-.246-19.982.058-8.392-.235-18.19.183-26.462-5.82-.048-6.504-1.089-12.003-2.007"/><defs><linearGradient id="c" x1="528.883" x2="518.594" y1="481.235" y2="480.764" gradientUnits="userSpaceOnUse"><stop offset="0" stop-color="#23111e"/><stop offset="1" stop-color="#352a3e"/></linearGradient></defs><path fill="url(#c)" d="M507.379 449.081c3.17-.043 18.797-.424 20.994.365l.395.956c-.613 6.34-.355 16.237-.365 22.871a2962 2962 0 0 0 .104 39.879c-6.433.139-15.934.244-22.273-.191 4.672-.867 8.81.489 12.787-.928.626-.223.587-1.141.779-2.055 1.814.27 3.892.257 5.745.304q-.077-18.872.061-37.744c.016-4.679.312-15.666-.433-19.623-1.354-.95-3.52-.879-4.891.03-1.211 2.978-.272 38.301-.693 45.161-.505-4.931-.286-14.862-.25-20.219.059-8.491-.238-18.406.185-26.775-5.889-.049-6.581-1.102-12.145-2.031" transform="scale(.98828)"/><path fill="#938670" d="M495.172 454.277c3.672-.365 7.332-.79 11.022-.838-10.8 12.668-8.364 19.019-10.226 35.662-.438-.527-.726-1.133-1.075-1.746.38-10.284.484-22.756.28-33.078"/><path fill="#8e8e85" d="M494.893 487.355c.35.613.637 1.219 1.075 1.746-.32 3.347-.535 6.502-1.303 9.78-.061-4.117-.14-7.442.228-11.526"/><path fill="#132741" d="M791.62 284.525c9.217-5.962 11.147-10.574 22.575-14.492-11.529 14.692-22.345 37.506-30.328 54.445l-11.39 27.43c1.522-.52 2.49-1.063 4.013-.671 2.951 3.66-6.072 15.086-7.64 19.91 1.359 1.453 2.743-.25 2.624 2.605-.115 2.728-1.005 5.868-1.367 8.613-9.532-2.883-14.693-4.452-18.255-14.689 2.396-7.236 17.23-24.828 14.454-32.335-2.463-.802-2.212.971-5.149.775l-.45-.835c.21-6.888 13.725-38.22 17.548-44.614 4.515-1.67 8.354-4.382 13.365-6.142"/><path fill="#a78455" d="M791.62 284.525c9.217-5.962 11.147-10.574 22.575-14.492-11.529 14.692-22.345 37.506-30.328 54.445-3.7 3.413-12.202 22.647-16.263 28.873.769-6.854 2.512-11.716 4.174-18.252 4.534-17.812 10.718-34.55 19.842-50.574"/><path fill="#2f2735" d="M633.898 571.173c-8.898-4.07-15.844-6.239-25.53-8.356-4.059-.886-9.864-1.744-13.656-2.821l.666-.66-1.544.108c8.396-.91 42.506 7.533 52.486 10.409 4.523 1.302 11.908 5.097 17.234 5.65 1.868.195 3.848-.947 5.321-1.98a285 285 0 0 1-3.45-6.236l-1.144-4.158.316-.613.446-.054c-.21-.801-.269-.46-.017-1.038.378.85.119.467.784 1.14l1.033-.22c6.432 9.63 13.485 21.864 19.38 31.915-4.462-1.794-23.56-9.472-27.476-8.165l-.299 1.804c-2.33.553-5.095-3.408-7.263-4.47-5.786-2.836-12.244-2.748-18.37-3.653 1.822-.175 6.65-.142 7.826-.789l-.835-.85c-.968-1.117-5.27-3.342-6.755-4.164l1.878-.123c-.45-.863-.745-1.745-1.03-2.676"/><path fill="#a78455" d="m664.281 563.13.316-.614.446-.054c-.21-.801-.269-.46-.017-1.038.378.85.119.467.784 1.14l1.033-.22c6.432 9.63 13.485 21.864 19.38 31.915-4.462-1.794-23.56-9.472-27.476-8.165l-.299 1.804c-2.33.553-5.095-3.408-7.263-4.47-5.786-2.836-12.244-2.748-18.37-3.653 1.822-.175 6.65-.142 7.826-.789l-.835-.85c-.968-1.117-5.27-3.342-6.755-4.164l1.878-.123c-.45-.863-.745-1.745-1.03-2.676 6.724 3.17 15.573 7.773 22.244 10.485 4.175 1.697 15.492 4.113 20.187 5.19-2.151-3.977-5.03-9.679-7.455-13.326a285 285 0 0 1-3.45-6.235z"/><path fill="#2f2735" d="M248.841 428.663c5.526 2.601 16.745 8.966 22.542 12.13 8.414 4.595 26.977 13.328 33.814 18.5l.132.786-1.475.895c.554 1.143 2.379 1.876 3.364 2.099 8.562 1.946 10.534 7.007 16.864 12.291 2.72 2.271 8.294 5.192 11.07 7.454l-.646.938c-6.18-3.88-12.387-7.82-18.658-11.545-2.159-1.283-2.492-1.639-4.4-1.124-6.996-3.868-26.39-15.805-32.203-20.259-2.92-1.892-5.264-4.057-8.63-6.054-3.2-1.898-6.159-3.29-9.284-5.134-2.945-1.264-6.079-4.048-8.699-6.115-.84-1.296-2.764-3.567-3.79-4.862"/><path fill="#bc9c6e" d="M261.331 439.64c4.112-.602 23.478 10.598 27.153 13.317a90 90 0 0 1 2.608 2.011c-5.464-1.34-7.328-2.688-11.847-4.14-2.92-1.892-5.264-4.057-8.63-6.054-3.2-1.898-6.159-3.29-9.284-5.134"/><defs><linearGradient id="d" x1="360.363" x2="356.99" y1="502.629" y2="508.632" gradientUnits="userSpaceOnUse"><stop offset="0" stop-color="#c78958"/><stop offset="1" stop-color="#a78e74"/></linearGradient></defs><path fill="url(#d)" d="M315.141 476.673c1.931-.521 2.268-.161 4.452 1.137 6.346 3.77 12.626 7.757 18.88 11.682 4.781 3.309 9.767 6.669 14.46 10.068 8.617 6.701 18.732 15.17 28.329 19.861.688 1.477 1.68 3.24 1.77 4.797-13.745-6.953-22.269-14.926-34.379-24.099a430 430 0 0 0-33.512-23.446" transform="scale(.98828)"/><path fill="#a78455" d="m643.647 517.494.124.233c6.614 16.019 14.184 22.203 20.138 37.168-1.874-.242-2.182-.178-3.706-1.365l.69-.09c-.062-3.288-6.99-13.559-9.828-15.206l-.768 1.34c-2.57-3.015-9.723-15.379-10.979-18.99l-.203-.383q2.276-1.335 4.532-2.707"/><path fill="#eff1d5" d="M639.318 520.584c2.825 1.761 9.593 13.505 12.334 17.25l-.587.4-.768 1.34c-2.57-3.015-9.723-15.379-10.979-18.99"/><path fill="#2f2735" d="M350.104 493.29c5.367 3.614 9.18 5.62 15.182 7.965 4.651 1.817 9.793 7.264 11.508 12.079-9.485-4.636-19.481-13.006-27.997-19.628z"/><path fill="#bc9c6e" d="m658.845 552.601 1.358.93c1.524 1.186 1.832 1.122 3.706 1.364a197 197 0 0 0 2.934 7.45l-1.033.22c-.665-.674-.406-.291-.784-1.141-.252.578-.193.237.017 1.038l-.446.054-.316.613c-1.624-4.256-3.707-6.532-5.436-10.528"/><path fill="#642937" d="M665.424 567.287c-2.46-2.405-5.421-8.602-7.024-11.802-1.036-2.068-1.15-2.367-.511-4.112l.956 1.228c1.729 3.996 3.812 6.272 5.436 10.528z"/><path fill="#191115" d="M335.153 482.818a642 642 0 0 1 14.951 10.473l-1.307.415c-4.638-3.36-9.566-6.68-14.29-9.95z"/><path fill="#ad434e" d="M687.934 263.97c.062-2.757-.186-4.698 1.356-6.97l.931-.256c1.8 1.814.958 4.782.65 7.125-.666-1.503-.245-1.135-1.4-2.022-.471.946-.813 1.352-1.537 2.124"/><path fill="#bc9c6e" d="M395.664 562.126c3.041-.746 8.134-2.321 11.003-2.097l-1.58 1.157c-3.369 1.399-5.352 2.68-8.893 2.206z"/><path fill="#642937" d="M406.667 560.03c2.167-.84 4.263-1.797 6.545-2.123l.55.457-.138-.512.983.115-.233.237-.28-.268-.31.624c-3.277 1.62-4.962 2.136-8.48 3.224l-.218-.598z"/><path fill="#132741" d="m488.13 539.474-42.578.205c-5.017.07-27.785 1.264-30.059-.747-1.369-12.344 13.113-19.508 23.002-22.268 19.234-5.366 39.5-5.469 59.316-5.727 19.58-.256 38.903-.02 58.389 2.169 10.99 1.65 27.893 4.666 35.681 13.681 2.165 2.505 4.802 8.608 4.5 12.218l-.655.899c-29.847 1.378-61.07-1.412-91.029-.402-5.204.176-11.4.195-16.567-.028"/><path fill="#c5a977" d="M556.2 513.106c10.99 1.65 27.893 4.666 35.681 13.681 2.165 2.505 4.802 8.608 4.5 12.218l-.655.899c-29.847 1.378-61.07-1.412-91.029-.402-5.204.176-11.4.195-16.567-.028 5.953-1.684 45.036.945 48.115-1.152l.144-1.688.56-.737c5.847-3.067 13.29-5.518 18.394-9.57 4.522-3.589 3.354-6.802-.529-9.922-.675-4.63.438-.438 1.386-3.3"/><path fill="#2f2735" d="M556.2 513.106c10.99 1.65 27.893 4.666 35.681 13.681 2.165 2.505 4.802 8.608 4.5 12.218l-.655.899c-29.847 1.378-61.07-1.412-91.029-.402-5.204.176-11.4.195-16.567-.028 5.953-1.684 45.036.945 48.115-1.152l.144-1.688.56-.737c2.457.244 5.682.125 8.21.134 15.878.055 31.748.473 47.623.82-1.226-3.825-1.737-5.506-4.648-8.61-6.755-7.2-23.876-11.56-33.32-11.836-.675-4.63.438-.438 1.386-3.3"/><path fill="#8e8e85" d="m479.61 518.07 5.791-.242c-3.01 1.443-4.404 1.988-6.987 4.11-12.221-.202-19.701 1.006-30.48 6.311-1.862 1.143-2.603 1.7-4.642 2.382l.06-.403c12.333-9.146 20.935-11.15 36.259-12.158"/><path fill="#e1dede" d="M657.772 282.857c1.863 1.41 1.348.536 1.934 2.485-.6 3.277-3.02 4.974-5.464 7.308l-.547.152-.3-.698c.713-3.401 2.367-6.443 4.377-9.247"/><path fill="#e1dede" d="M389.11 336.396c1.76 1.688 2.1 7.335 1.552 9.67-1.871-3.545-3.837-5.86-1.551-9.67"/><path fill="#2f2735" d="M500.97 53.965c.238 3.152.287 5.723.677 8.94 1.16 1.57.512 1.354 1.848 1.603 3.821-3.6 1.315-22.618 4.602-24.263 3.994 4.181 3.044 13.801 4.011 19.638a39.3 39.3 0 0 0 4.212 12.422l.297.532c.984-6.53 1.484-10.59 4.653-16.425 1.672 6.984 1.708 14.12 2.975 21.252.691 3.899 3.604 10.225 4.014 13.535.74 3.313 1.413 4.602 2.817 7.685.417-3 .752-5.535.974-8.565 2.546 9.84 5.332 17.545 9.26 26.842 3.717 8.8 8.517 16.858 10.06 26.27 4.626-1.336 7.296-3.216 11.154-4.394-1.44 13.173-6.79 41.33 17.898 30.145 13.463-6.1 25.21-17.255 36.848-26.165 2.973-2.353 8.2-7.59 11.488-8.605 1.386 3.125-8.965 27.86-10.514 34.452 8.425 3.973 17.234-16.084 23.22-17.92.517.671.82.896.378 2.238-2.09 6.328-5.017 15.163-7.22 21.101-2.499 6.738-8.211 29.585-11.188 34.671l-17.198 63.355c-.68 4.076-1.765 9.75-2.995 13.701l-.685-.74c-2.11 1.538-2.745 2.976-4.615 4.664l-.369-.825-2.395-.072-.93 3.838c-.766 2.937-1.047 5.062-1.024 8.109-.559 2.51-1.254 4.47-1.688 6.958-.717 4.104 2.075 18.218-1.796 19.969l-.69.428c-1.726 3.05-1.18 6.091-1.057 9.673l-.125 33.145c-.124 21.097.958 37.087-15.456 53.444a57.56 57.56 0 0 1-36.498 16.726l-.6.093c-2.86.422-9.466-.53-11.702 1.975-.614.688-.26 1.102-1.04 1.729l-.39-.945c-2.171-.78-17.615-.403-20.748-.36-3.303-.003-8.376.162-11.532-.038l-.702-1.467c-2.195-.959-5.9-.83-8.527-.97-35.497-.242-60.433-22.492-59.709-58.2.33-16.212.507-34.496-.196-50.715.092-1.712.089-2.055-.1-3.755-.568-.664-2.011-2.311-2.15-3.067-1.032-5.627-.429-12.356-.672-18.153 1.559-.71 4.474-.764 6.297-.907l5.38-.51c-.017-5.654-3.855-20.407-5.312-26.326-2.93-2.73-2.989-3.846-4.157-7.668-1.97-5.76-2.959-12.187-5.573-17.62-1.443-3-2.314-3.573-5.314-4.531l-2.853.79c-4.747-19.351-11.78-28.706-10.282-51.573 3.097 6.283 3.614 12.48 6.26 18.76 1.637 3.886 5.889 7.744 8.315 11.58 2.226 3.52 5.523 13.66 8.306 15.53.608-1.278-.011-3.563-.557-4.824-8.16-18.867-14.774-38.366-20.74-58.028-1.99-6.07-2.039-12.385-2.706-18.672-.254-2.39-1.804-4.285-4.292-3.03-1.28 1.737-1.313 3.299-1.676 5.455-2.275-5.54-10.422-22.545-7.215-27.44 2.132-1.361 4.537-.794 5.743 1.245 3.985 6.739 8.127 12.525 12.926 18.696-.11-2.294-.631-8.304-.032-10.155 3.096 2.268 3.599 10.223 5.94 11.486 1.563-2.474.119-8.038 2.963-10.865 3.257.772 9.623 11.987 12.823 13.6 1.153-1.176.692-1.023 2.078-1.545 7.399 5.339 10.183 9.12 20.179 6.939 9.41-2.054 8.985-13.692 13.057-20.777 4.464-7.767 8.573-16.104 13.349-23.556l.31-.477c1.23-.3 4.953-1.213 5.812-1.782 4.784-3.17 1.355-11.69 3.158-17.586 2.767-2.974 6.37.772 8.87 2.663-2.237-12.13-3.692-16.192 3.738-27.128 4.439-6.533 2.955-12.536 3.108-19.833 2.168-2.995 2.371-3.162 5.222-5.4m79.582 251.772c1.885.143 3.162.238 5.045.188 1.628-1 1.095-.513 1.838-2.735-1.977-4.454-2.965-7.134-4.106-11.822-1.138 3.368-4.128 11.033-2.777 14.369"/><path fill="#e4313f" d="M500.97 53.965c.238 3.152.287 5.723.677 8.94 1.16 1.57.512 1.354 1.848 1.603 3.821-3.6 1.315-22.618 4.602-24.263 3.994 4.181 3.044 13.801 4.011 19.638a39.3 39.3 0 0 0 4.212 12.422l.297.532c.984-6.53 1.484-10.59 4.653-16.425 1.672 6.984 1.708 14.12 2.975 21.252.691 3.899 3.604 10.225 4.014 13.535.74 3.313 1.413 4.602 2.817 7.685.417-3 .752-5.535.974-8.565 2.546 9.84 5.332 17.545 9.26 26.842 3.717 8.8 8.517 16.858 10.06 26.27 4.626-1.336 7.296-3.216 11.154-4.394-1.44 13.173-6.79 41.33 17.898 30.145 13.463-6.1 25.21-17.255 36.848-26.165 2.973-2.353 8.2-7.59 11.488-8.605 1.386 3.125-8.965 27.86-10.514 34.452 8.425 3.973 17.234-16.084 23.22-17.92.517.671.82.896.378 2.238-2.09 6.328-5.017 15.163-7.22 21.101-2.499 6.738-8.211 29.585-11.188 34.671l-17.198 63.355c-.68 4.076-1.765 9.75-2.995 13.701l-.685-.74c-2.11 1.538-2.745 2.976-4.615 4.664l-.369-.825-2.395-.072-.93 3.838c-3.903 3.268-3.625 6.16-5.23 10.997.177-2.801.318-11.859.069-14.48l-.052-.486c-.68 2.688-1.23 4.817-1.54 7.624-.254 2.28.898 5.02.181 6.64l-.24.02c-1.977-4.454-2.965-7.134-4.106-11.822-1.138 3.368-4.128 11.033-2.777 14.369-.54.058-4.872.67-5.015.667l-2.204-.246c.083-.96-.077-2.693-.133-3.72l-.627.177-6.044-1.754c-2.198-1.099-2.528-1.436-4.326-3.14.014-2.564.308-5.005.559-7.554 1.222-.045 3.151.049 4.428.072.508-4.036-1.107-2.795.993-6.79 1.471.396 3.022 1.324 4.42 2.05.911-2.867 1.767-5.153 2.132-8.155l.246-.135.436-4.066c-.006-1.214-.11-2.59-.172-3.816.048-2.835.425-6.617.628-9.518 1.583-10.268-.728-25.35-6.999-33.916-3.085-4.214-9.78-10.82-14.61-12.72-2.943-.247-7.015-2.04-10.286-2.848-.707 1.505-1.157 2.494-2.052 3.923 1.731.73 2.26.521 3.735 1.805-8.346-1.893-10.01 6.38-11.352 12.917-1.071 5.219-1.483 11.786-1.72 17.197 7.28 1.034 15.182 1.914 22.054 4.495 2.418 3.641 1.977 6.839-1.104 9.873l2.345-.1c1.71 2.429.977 4.969-.323 7.361-1.179.42-1.172.356-2.444.338-3.787-1.198-6.95-1.756-10.86-2.507-3.633-.692-5.929-1.083-9.595-1.362l-.64-.638c-.567-1.987-.242-3.585-.055-5.655l.373-.715-3.157-.301c-4.405-.388-8.673-.525-13.085-.689-7.552-.435-15.772-.293-23.389-.298l-.148-.822c-3.351-.341-9.24-.172-12.78-.175l.16-8.961c-1.288-1.027-3.178-.807-5.128-.95-7.889-.138-15.917.218-23.797.604-4.166.416-8.582.78-12.708 1.355-.087 3.789-.016 7.579.212 11.361l-.333 1.085c-1.154 2.443-.215 11.97-.353 15.8-.03 2.017.022 4.79-.293 6.714-.053 2.798-.92 10.432-.367 12.44.03 2.017.169 3.298-.295 5.24-.74 1.34-.573 6.198-.49 7.932l-.811.35c-2.032-1.512-3.697-1.453-6.055-1.905-.018-5.654-3.856-20.407-5.313-26.326-2.93-2.73-2.989-3.846-4.157-7.668-1.97-5.76-2.959-12.187-5.573-17.62-1.443-3-2.314-3.573-5.314-4.531l-2.853.79c-4.747-19.351-11.78-28.706-10.282-51.573 3.097 6.283 3.614 12.48 6.26 18.76 1.637 3.886 5.889 7.744 8.315 11.58 2.226 3.52 5.523 13.66 8.306 15.53.608-1.278-.011-3.563-.557-4.824-8.16-18.867-14.774-38.366-20.74-58.028-1.99-6.07-2.039-12.385-2.706-18.672-.254-2.39-1.804-4.285-4.292-3.03-1.28 1.737-1.313 3.299-1.676 5.455-2.275-5.54-10.422-22.545-7.215-27.44 2.132-1.361 4.537-.794 5.743 1.245 3.985 6.739 8.127 12.525 12.926 18.696-.11-2.294-.631-8.304-.032-10.155 3.096 2.268 3.599 10.223 5.94 11.486 1.563-2.474.119-8.038 2.963-10.865 3.257.772 9.623 11.987 12.823 13.6 1.153-1.176.692-1.023 2.078-1.545 7.399 5.339 10.183 9.12 20.179 6.939 9.41-2.054 8.985-13.692 13.057-20.777 4.464-7.767 8.573-16.104 13.349-23.556l.31-.477c1.23-.3 4.953-1.213 5.812-1.782 4.784-3.17 1.355-11.69 3.158-17.586 2.767-2.974 6.37.772 8.87 2.663-2.237-12.13-3.692-16.192 3.738-27.128 4.439-6.533 2.955-12.536 3.108-19.833 2.168-2.995 2.371-3.162 5.222-5.4"/><defs><linearGradient id="e" x1="484.398" x2="540.416" y1="221.766" y2="232.145" gradientUnits="userSpaceOnUse"><stop offset="0" stop-color="#927548"/><stop offset="1" stop-color="#e9d09c"/></linearGradient></defs><path fill="url(#e)" d="M512.586 201.586c3.941-.137 3.634.468 6.184.628 3.523-.19 7.682-.604 10.288 2.098 2.849.302 7.709.646 10.24 1.779 7.098 1.018 15.285 3.856 20.692 8.66l.846.95c-2.977-.25-7.098-2.064-10.408-2.882-.715 1.523-1.17 2.524-2.076 3.97 1.752.739 2.287.527 3.779 1.826-8.445-1.915-10.129 6.456-11.486 13.07-1.084 5.281-1.501 11.926-1.741 17.401 7.367 1.046 15.362 1.937 22.316 4.548 2.447 3.685 2 6.92-1.117 9.99l2.373-.101c1.729 2.458.988 5.028-.327 7.449-1.193.424-1.186.36-2.473.342-3.832-1.213-7.032-1.777-10.989-2.537-3.676-.7-5.999-1.096-9.709-1.378l-.648-.646c-.573-2.01-.244-3.627-.055-5.722l.377-.723-3.194-.305c-4.457-.393-8.776-.531-13.24-.697-7.642-.44-15.959-.297-23.666-.302l-.15-.831c-3.391-.346-9.35-.175-12.931-.178l.162-9.067c-1.304-1.039-3.217-.816-5.19-.961l-.121-.417c-2.431-.284-4.667-.34-7.105-.435l5.93-.115c2.383-3.74 6.707-11.807 9.63-14.402l1.214.812c10.64 4.018 8.224-12.211 11.414-19.873l.269-.633c2.39-6.169 5.383-8.481 10.912-11.318" transform="scale(.98828)"/><path fill="#132741" d="M497.739 244.672c10.136-.111 21.027.517 31.167 1.069 1.694.356 1.948.38 3.683.426 7.28 1.034 15.182 1.914 22.054 4.495 2.418 3.641 1.977 6.839-1.104 9.873l2.345-.1c1.71 2.429.977 4.969-.323 7.361-1.179.42-1.172.356-2.444.338-3.787-1.198-6.95-1.756-10.86-2.507-3.633-.692-5.929-1.083-9.595-1.362l-.64-.638c-.567-1.987-.242-3.585-.055-5.655l.373-.715-3.157-.301c-4.405-.388-8.673-.525-13.085-.689-7.552-.435-15.772-.293-23.389-.298l-.148-.822c-.613-2.991-.372-4.73-.125-7.697.258-1.183.243-1.111.913-2.126 1.557-.634 2.717-.565 4.39-.652"/><path fill="#c5a977" d="M542.887 258.684c3.944.86 6.664 1.455 10.652 1.85l2.345-.1c1.71 2.43.977 4.97-.323 7.362-1.179.42-1.172.356-2.444.338-3.787-1.198-6.95-1.756-10.86-2.507.797-1.81.606-4.848.63-6.943"/><path fill="#d5bb8d" d="M532.34 257.257c3.221.387 6.067.72 9.257 1.34l1.29.087c-.024 2.095.167 5.134-.63 6.943-3.633-.692-5.929-1.083-9.595-1.362l-.64-.638c-.567-1.987-.242-3.585-.055-5.655z"/><path fill="#e7d2a8" d="M532.34 257.257c3.221.387 6.067.72 9.257 1.34l-.254 1.127c-1.78 1.695-6.066 1.202-8.776 1.22l-.6-2.972z"/><path fill="#132741" d="M506.579 199.224c3.895-.136 3.591.462 6.112.62 3.481-.188 7.592-.597 10.167 2.074-18.046 5.65-9.53 24.783-17.729 29.51-9.379 1.546-5.338-11.371-4.232-16.387-.916-3.29 1.864-4.67 1.506-8.293l-.712-.4.205 1.358c-2.155.166.329-.354-1.743-1.763-1.566.813-2.695 3.03-4.358 4.466 2.362-6.097 5.32-8.382 10.784-11.185"/><path fill="#8a6c40" d="M506.579 199.224c3.895-.136 3.591.462 6.112.62-7.062 2.115-9.44 8.899-11.794 15.197-.916-3.29 1.864-4.67 1.506-8.293l-.712-.4.205 1.358c-2.155.166.329-.354-1.743-1.763-1.566.813-2.695 3.03-4.358 4.466 2.362-6.097 5.32-8.382 10.784-11.185"/><defs><linearGradient id="f" x1="550.882" x2="526.587" y1="226.941" y2="217.491" gradientUnits="userSpaceOnUse"><stop offset="0" stop-color="#232431"/><stop offset="1" stop-color="#0e2b44"/></linearGradient></defs><path fill="url(#f)" d="M539.298 206.091c7.098 1.018 15.285 3.856 20.692 8.66-6.741-2.242-11.821-4.371-18.612-.608-8.86 5.84-4.914 15.545-12.021 21.401-1.755 1.371-6.29-1.103-6.314-3.03-.166-13.466 4.436-22.087 16.255-26.423" transform="scale(.98828)"/><path fill="#bc9c6e" d="M535.034 211.633c6.711-3.718 11.731-1.614 18.393.601l.837.94c-2.943-.248-7.015-2.04-10.286-2.849-.707 1.505-1.157 2.494-2.052 3.923 1.731.73 2.26.521 3.735 1.805-8.346-1.893-10.01 6.38-11.352 12.917-1.071 5.219-1.483 11.786-1.72 17.197-1.735-.046-1.989-.07-3.683-.426 2.196-2.08.063-13.61 1.687-17.325 1.575-3.598 2.612-9.18 4.767-12.458.127-.194 2.818-2.438 3.635-3.316l-.384-.574c-1.693.167-2.018.042-3.577-.435"/><path fill="#a78455" d="M479.942 246.01c4.287.58 7.731-.29 11.89.612l.604.828c-.247 2.968-.488 4.706.125 7.697-3.351-.341-9.24-.172-12.78-.175z"/><path fill="#222e37" d="M474.693 244.649c7.238-.01 15.98-.305 23.046.023-1.673.087-2.833.018-4.39.652-.67 1.015-.655.943-.913 2.126l-.603-.828c-4.16-.902-7.604-.031-11.891-.611-1.289-1.027-3.18-.807-5.13-.95z"/><path fill="#132741" d="M618.244 168.864c8.425 3.973 17.234-16.084 23.22-17.92.517.671.82.896.378 2.238-2.09 6.328-5.017 15.163-7.22 21.101-2.499 6.738-8.211 29.585-11.188 34.671l-17.198 63.355c-.68 4.076-1.765 9.75-2.995 13.701l-.685-.74c-2.11 1.538-2.745 2.976-4.615 4.664l-.369-.825-2.395-.072-.93 3.838c-3.903 3.268-3.625 6.16-5.23 10.997.177-2.801.318-11.859.069-14.48l-.052-.486c.122-2.004.784-4.796 1.278-6.775 4.88-19.554 10.954-38.792 15.65-58.391 1.097-4.579 2.253-8.972 2.187-13.726l-.671-.352c-1.319-.976-1.342-1.059-2.846-1.64a1390 1390 0 0 1 12.026-35.225c.52-1.588.743-2.457 1.586-3.933"/><path fill="#a78455" d="M618.244 168.864c8.425 3.973 17.234-16.084 23.22-17.92.517.671.82.896.378 2.238-2.09 6.328-5.017 15.163-7.22 21.101-2.499 6.738-8.211 29.585-11.188 34.671l-17.198 63.355c-.68 4.076-1.765 9.75-2.995 13.701l-.685-.74c-2.11 1.538-2.745 2.976-4.615 4.664l-.369-.825c1.248-3.932 4.93-22.262 3.503-25.062 2.615-9.712 3.87-18.948 6.943-28.758 2.943-9.396 6.612-16.265 10.131-25.033 5.174-12.887 8.126-25.606 9.822-39.346-3.8.754-7.532.99-11.313 1.887.52-1.588.743-2.457 1.586-3.933"/><path fill="#132741" d="M606.236 272.309c-.7-4.412 2.87-14.48 3.679-19.349 1.393-8.381.096-16.843 3.017-24.824 2.2-6.012 6.257-14.368 10.502-19.182z"/><path fill="#fdf9f7" d="M601.075 264.047c1.428 2.8-2.255 21.13-3.503 25.062l-2.395-.072c2.182-7.876 3.872-16.84 5.898-24.99"/><path fill="#8a6c40" d="M485.178 200.426c3.16-1.356 5.918-2.063 9.162-1.12 4.055-.637 8.143-.372 12.239-.082-5.464 2.803-8.422 5.088-10.784 11.185l-.266.626c-3.153 7.572-.765 23.61-11.28 19.64l-1.2-.803c-2.889 2.565-7.162 10.537-9.517 14.233l-5.86.114c2.409.094 4.619.15 7.021.43l.12.412c-7.889-.138-15.917.218-23.797.604.174-3.905 1.434-10.545 2.103-14.639-.796-7.682 1.224-13.83 3.897-20.868 3.439-3.67 5.237-4.55 9.838-5.832 3.701-1.738 4.58-2.151 8.615-1.768 3.45-1.71 5.962-1.797 9.709-2.132"/><path fill="#132741" d="M494.34 199.306c4.055-.637 8.143-.372 12.239-.082-5.464 2.803-8.422 5.088-10.784 11.185l-.266.626c-3.153 7.572-.765 23.61-11.28 19.64-4.323-8.723 2.51-25.518 10.091-31.37"/><path fill="#132741" d="m485.178 200.426.146.923-.444.447c-4.22 4.326-4.434 6.474-6.45 11.976-2.093 5.005-.303 15.671-6.327 17.694-.715.24-3.402-.73-3.646-1.266-3.397-7.464 1.825-22.568 7.012-27.642 3.45-1.71 5.962-1.797 9.709-2.132"/><path fill="#222e37" d="M466.854 204.326c.133.642-2.592 6.35-3.164 7.114-3.296 4.403-.255 26.57-10.571 19.586-.796-7.682 1.224-13.83 3.897-20.868 3.439-3.67 5.237-4.55 9.838-5.832"/><path fill="#c5a977" d="M451.074 213.61c2.07-2.262 2.77-4.007 5.942-3.452-2.673 7.038-4.693 13.186-3.897 20.868-.67 4.094-1.93 10.734-2.103 14.639-4.166.416-8.582.78-12.708 1.355.431-7.456.337-16.95 4.591-23.234 2.177-4.63 3.537-7.682 8.175-10.176"/><path fill="#222e37" d="M442.9 223.786c2.176-4.63 3.536-7.682 8.174-10.176-2.64 6.727-2.848 18.965-6.602 21.482-2.96-.868-1.79-9.104-1.573-11.306"/><path fill="#132741" d="m527.87 91.416.389-.217c.74 3.313 1.413 4.602 2.817 7.685.417-3 .752-5.535.974-8.565 2.546 9.84 5.332 17.545 9.26 26.842 3.717 8.8 8.517 16.858 10.06 26.27-7.88 5.787-10.105-4.98-10.316-10.314-.487-12.35-4.895-21.795-11.752-31.893-1.224-1.802-3.061-4.909-3.07-7.226.853-.981 1.214-1.355 1.639-2.582"/><path fill="#132741" d="M516.617 72.837c.984-6.53 1.484-10.59 4.653-16.425 1.672 6.984 1.708 14.12 2.975 21.252.691 3.899 3.604 10.225 4.014 13.535l-.388.217c-2.764-3.248-3.805-7.415-5.934-11.564l-2.938 5.508c-1.132-4.285-1.264-8.448-2.382-12.523"/><path fill="#132741" d="M562.762 290.167c1.222-.045 3.151.049 4.428.072 2.762.77 3.981 1.468 6.167 3.41-.05 2.237-.2 5.13-.072 7.31l-.085 1.479-.627.177-6.044-1.754c-2.198-1.099-2.528-1.436-4.326-3.14.014-2.564.308-5.005.559-7.554"/><path fill="#866443" d="m574.735 277.344.246-.135c.375 4.166-.99 19.202-1.696 23.75-.128-2.18.022-5.073.072-7.31-2.186-1.942-3.405-2.64-6.167-3.41.508-4.036-1.107-2.795.993-6.79 1.471.396 3.022 1.324 4.42 2.05.911-2.867 1.767-5.153 2.132-8.155"/><path fill="#642937" d="M575.537 306.404c3.357-2.92 2.973-16.116 6.658-20.824l.718.248c1.081 2.304.62 3.072.416 5.54-1.138 3.368-4.128 11.033-2.777 14.369-.54.058-4.872.67-5.015.667"/><path fill="#e1dede" d="M420.053 272.043c-.004-4.549-.984-8.086-1.036-12.444 1.563 5.28 4.392 14.745 5.193 20.112-2.93-2.73-2.989-3.846-4.157-7.668"/><path fill="#2f2735" d="M604.632 208.022c1.504.581 1.527.664 2.846 1.64-2.048 2.65-3.906 5.906-5.657 8.8.64-3.363 1.837-7.114 2.811-10.44"/><path fill="#132741" d="M451.016 245.665c7.88-.386 15.908-.742 23.797-.604 1.95.143 3.84-.077 5.129.95l-.16 8.96c3.539.004 9.428-.165 12.78.176l.147.822c7.617.005 15.837-.137 23.39.298 4.41.164 8.68.3 13.084.689l3.157.301-.373.715c-.187 2.07-.512 3.668.054 5.655l.64.638c3.667.279 5.963.67 9.596 1.362 3.91.751 7.073 1.309 10.86 2.507 2.73 3.054 2.11 5.67 1.112 9.468-3.578 1.162-7.196.008-10.956-.718-.57 1.874-1.077 5.73-1.687 6.595l7.967 1.396c5.571 1.577 6.467 8.151 1.678 10.966-1.068.075-1.701.118-2.777.113l-.49.758c1.889.53 1.206.008 2.283 1.378.012 1.632.022 2.304-.223 3.965 1.089.092.558.082 1.593.039l-.85.226c-.3.663-.115.423-.517.776 4.848 3.052 4.097 11.808-4.456 10.212.96.499 1.616.84 2.555 1.393l-.09 1.296 1.574.198c.25 1.385-.69 2.769-1.932 3.374-.869-.35-1.84-.87-2.618-1.133l-.798 1.524c7.484 1.4 9.346 4.143 5.434 11.001-1.427.056-3.17-.03-4.626-.065.964 1.773 1.783 2.867 1.755 4.89-.925 1.764-.277 1.122-1.934 2.073l1.308.37 2.656.948c.708 1.297 1.024 1.78 1.546 3.18.045 3.301.49 4.21-1.673 6.643l-2.427.228-.544.224-7.421-1.4c.872 3.038.15 3.912-.463 6.916q3.28.545 6.55 1.157l3.705 1.346c.75 2.146.834 3.043 1.176 5.329-1.035 2.882-1.093 3.99-4.425 4.541-3.194-.572-6.643-1.295-9.847-1.474q-3.33-.5-6.668-.964c-.955-.3-2.107-.182-3.164-.177-5.591-1.162-19.859-1.488-25.724-1.468-15.306-1.592-37.29-.495-53.122-.504-4.557-.03-7.739.167-12.298.56l.011-4.188c.028-2.494-.053-4.321.455-6.781.192-2.722.254-4.247.92-6.943l-.458-.104c-2.95-1.59.156-1.707-3.257-2.448-.115-2.078-.091-2.689.197-4.75.52.221.845.206 1.427.287 1.349-1.014 1.065-1.25 1.763-3.183l.345-.14c-.21-1.546-.068-3.082-.01-4.654l.201-1.787c-1.141.071-.736.091-1.853-.22-1.61-2.88-1.021-8.262-.927-11.77 1.307-2.99-.788-5.042 1.292-7.547 1.173.305.782.293 1.97.238l.033-1.732c-.082-1.734-.249-6.592.49-7.932.465-1.942.327-3.223.296-5.24-.553-2.008.314-9.642.367-12.44.315-1.925.263-4.697.293-6.713.138-3.832-.801-13.358.353-15.8l.333-1.086c-.228-3.782-.3-7.572-.212-11.361 4.126-.574 8.542-.939 12.708-1.355"/><path fill="#132741" d="M477.485 325.538c2.878-.6 7.647-.5 10.625-.197l.865 1.27c4.09.058 9.623-.02 13.579.436 6.271-.032 20.784.27 26.805 1.577 3.967-.002 11.794 1.524 15.934 2.272.964 1.773 1.783 2.867 1.755 4.89-.925 1.764-.277 1.122-1.934 2.073l1.308.37 2.656.948c.708 1.297 1.024 1.78 1.546 3.18.045 3.301.49 4.21-1.673 6.643l-2.427.228-.544.224-7.421-1.4c.872 3.038.15 3.912-.463 6.916q3.28.545 6.55 1.157l3.705 1.346c.75 2.146.834 3.043 1.176 5.329-1.035 2.882-1.093 3.99-4.425 4.541-3.194-.572-6.643-1.295-9.847-1.474q-3.33-.5-6.668-.964c-.955-.3-2.107-.182-3.164-.177-5.591-1.162-19.859-1.488-25.724-1.468-15.306-1.592-37.29-.495-53.122-.504-4.557-.03-7.739.167-12.298.56l.011-4.188c.028-2.494-.053-4.321.455-6.781.192-2.722.254-4.247.92-6.943l-.458-.104c-2.95-1.59.156-1.707-3.257-2.448-.115-2.078-.091-2.689.197-4.75.52.221.845.206 1.427.287 1.349-1.014 1.065-1.25 1.763-3.183l.345-.14c-.21-1.546-.068-3.082-.01-4.654l.201-1.787c.83-.994 1.71-1.077 2.978-1.444l4.025-.223c1.838-.761 23.935-.357 27.779-.392 2.474-.39 5.2.055 6.83-1.026"/><path fill="#132741" d="M502.554 327.047c6.271-.032 20.784.27 26.805 1.577 3.967-.002 11.794 1.524 15.934 2.272.964 1.773 1.783 2.867 1.755 4.89-.925 1.764-.277 1.122-1.934 2.073l1.308.37 2.656.948c.708 1.297 1.024 1.78 1.546 3.18.045 3.301.49 4.21-1.673 6.643l-2.427.228-.544.224-7.421-1.4c.872 3.038.15 3.912-.463 6.916-3.45-.554-6.847-.96-10.313-1.386l-6.264-.665a584 584 0 0 0-11.46-.706l.124-.612.863-.34c1.151-2.208 1.772-2.856 1.213-5.237l-1.62-.768c-6.63-.539-14.968-.373-21.969-.715l-.652-1.37.334-8.052.56-1.157c4.007.016 8.34.121 12.317.038-3.956-1.448-8.3-.596-10.488-1.885-1.831-5.56 8.308-4.586 11.813-5.066"/><path fill="#c5a977" d="M502.554 327.047c6.271-.032 20.784.27 26.805 1.577-.024 2.715.086 4.076-.75 6.716-7.873-.907-19.252-1.04-27.38-1.342-3.956-1.448-8.3-.596-10.488-1.885-1.831-5.56 8.308-4.586 11.813-5.066"/><path fill="#d5bb8d" d="M529.359 328.624c3.967-.002 11.794 1.524 15.934 2.272.964 1.773 1.783 2.867 1.755 4.89-.925 1.764-.277 1.122-1.934 2.073-4.928-1.07-11.413-1.803-16.504-2.52.835-2.64.725-4 .749-6.715"/><path fill="#d5bb8d" d="M510.64 345.254c3.517.114 7.896.137 11.3.616.77.059 6.135.69 6.22.68.029 2.749.103 4.275-.377 7.032l-6.264-.665a584 584 0 0 0-11.46-.706l.124-.612.863-.34c1.151-2.208 1.772-2.856 1.213-5.237z"/><path fill="#bc9c6e" d="M521.94 345.87c.77.059 6.135.69 6.22.68.029 2.749.103 4.275-.377 7.032l-6.264-.665c.382-2.793.65-4.181.422-7.047"/><path fill="#e7d2a8" d="M528.16 346.55c3.174-.111 7.221.835 10.399 1.502.872 3.038.15 3.912-.463 6.916-3.45-.554-6.847-.96-10.313-1.386.48-2.757.406-4.283.376-7.032"/><path fill="#222e37" d="m546.422 338.23 2.656.947c.708 1.297 1.024 1.78 1.546 3.18.045 3.301.49 4.21-1.673 6.643l-2.427.228c2.584-3.383 1.669-7.573-.102-10.999"/><path fill="#132741" d="M477.485 325.538c2.878-.6 7.647-.5 10.625-.197l.865 1.27c4.09.058 9.623-.02 13.579.436-3.505.48-13.644-.494-11.813 5.066 2.189 1.289 6.532.437 10.488 1.885-3.977.083-8.31-.022-12.317-.038l-.56 1.157c-2.308.05-10.544-.283-11.842.373-.096 1.88-.192 5.926-.533 7.609l.35 1.34-16.98.17c-3.026.05-9.063.318-11.86.06-1.422-.215-4.27-.024-5.804.029-2.07.125-4.04.121-6.018.704l-.458-.104c-2.95-1.59.156-1.707-3.257-2.448-.115-2.078-.091-2.689.197-4.75.52.221.845.206 1.427.287 1.349-1.014 1.065-1.25 1.763-3.183l.345-.14c-.21-1.546-.068-3.082-.01-4.654l.201-1.787c.83-.994 1.71-1.077 2.978-1.444l4.025-.223c1.838-.761 23.935-.357 27.779-.392 2.474-.39 5.2.055 6.83-1.026"/><defs><linearGradient id="g" x1="455.433" x2="494.912" y1="327.372" y2="341.075" gradientUnits="userSpaceOnUse"><stop offset="0" stop-color="#6f5a37"/><stop offset="1" stop-color="#aa8851"/></linearGradient></defs><path fill="url(#g)" d="M483.147 329.398c2.912-.607 7.738-.505 10.751-.199l.875 1.285c4.138.059 9.737-.021 13.74.441-3.546.486-13.806-.5-11.953 5.126 2.215 1.304 6.61.442 10.613 1.908-4.025.084-8.409-.023-12.464-.039l-.566 1.171c-2.336.051-10.669-.287-11.983.377l-.229-.591c-1.63-1.343-10.741-.8-13.943-.961-3.89-.002-11.242-.154-14.731.553.276-2.065.773-5.187-.307-6.92-1.503-1.127-2.865-.79-4.822-.716 1.859-.77 24.218-.361 28.108-.397 2.503-.394 5.261.056 6.911-1.038" transform="scale(.98828)"/><path fill="#2e2d2d" d="M462.504 333.956c7.314-.816 18.95-.224 26.408.004l-.56 1.157c-2.308.05-10.544-.283-11.842.373l-.227-.584c-1.61-1.328-10.615-.79-13.78-.95"/><path fill="#2e2d2d" d="M477.485 325.538c2.878-.6 7.647-.5 10.625-.197l.865 1.27c-5.914-.232-12.282.057-18.32-.047 2.474-.39 5.2.055 6.83-1.026"/><path fill="#c5a977" d="M442.876 326.956c1.934-.073 3.28-.406 4.766.708 1.067 1.712.576 4.798.303 6.838l-1.705-.419c-2.758.563-7.659.879-10.558.98-.21-1.545-.068-3.08-.01-4.653l.201-1.787c.83-.994 1.71-1.077 2.978-1.444z"/><path fill="#bc9c6e" d="M435.873 328.623c.83-.994 1.71-1.077 2.978-1.444-1.342 2.006-1.311 1.3-1.092 3.215 1.783 2.232 5.7 3.61 8.48 3.69-2.757.562-7.658.878-10.557.98-.21-1.546-.068-3.082-.01-4.654z"/><path fill="#642937" d="M432.147 338.1c.52.221.845.206 1.427.287 1.349-1.014 1.065-1.25 1.763-3.183.063 3.575.127 6.536-.13 10.094-2.95-1.59.156-1.707-3.257-2.448-.115-2.078-.091-2.689.197-4.75"/><defs><linearGradient id="h" x1="464.902" x2="516.203" y1="360.575" y2="343.212" gradientUnits="userSpaceOnUse"><stop offset="0" stop-color="#7b6033"/><stop offset="1" stop-color="#ceb586"/></linearGradient></defs><path fill="url(#h)" d="M482.16 339.468c1.314-.664 9.647-.326 11.983-.377l-.338 8.148.66 1.386c7.084.346 15.52.178 22.23.723l1.638.777c.566 2.409-.062 3.065-1.227 5.3l-.873.343-.125.62c-6.511.154-15.631-.359-22.491-.416-3.961-.035-8.075-.002-12.01-.321-4.306-.662-17.255.519-18.876-1.05-.433-1.429-1.619-4.313-1.422-5.422 1.113-.028 1.485-.068 2.548-.287l.937-.196 17.181-.172-.354-1.357c.345-1.702.442-5.796.539-7.699" transform="scale(.98828)"/><path fill="#a78455" d="M476.51 335.49c1.298-.656 9.534-.322 11.842-.373l-.334 8.053c-3.675-.383-8.356-.206-12.041-.071.34-1.683.437-5.729.533-7.61"/><path fill="#2e2d2d" d="M475.977 343.099c3.685-.135 8.366-.312 12.041.07l.652 1.37c-3.922-.167-8.378-.083-12.343-.1z"/><path fill="#a78455" d="M475.963 351.483c3.889.315 7.955.283 11.87.317-.04 2.146.021 4.584-.39 6.66-.255 1.6.071.941-.857 2.118-3.515.701-7.468.353-11.16.32-.059-2.953-.155-5.152.234-8.112l-.26-.926z"/><path fill="#2e2d2d" d="M475.963 351.483c3.889.315 7.955.283 11.87.317-.04 2.146.021 4.584-.39 6.66.002-1.811.113-2.804-.424-4.556-2.338-2.286-7.04-1.097-11.36-1.118l-.26-.926z"/><path fill="#bc9c6e" d="M441.683 344.698c1.533-.053 4.382-.244 5.805-.03l-.139 3.702.024 3.456c-4.001.194-8.673.537-12.628.519.192-2.722.254-4.247.92-6.943 1.978-.583 3.947-.579 6.018-.704"/><path fill="#c5a977" d="M441.683 344.698c1.533-.053 4.382-.244 5.805-.03l-.139 3.702c-2.447-.158-4.982 1.071-6.543.306-.387-1.764.084-1.917.877-3.978"/><path fill="#79613c" d="M447.488 344.669c2.796.258 8.833-.01 11.86-.06l-.927.194c-1.05.217-1.418.256-2.518.284-.195 1.096.977 3.946 1.405 5.358 1.602 1.551 14.4.384 18.655 1.038l-.563.377c-7.954-.605-19.856-.123-28.027-.034l-.024-3.456z"/><defs><linearGradient id="i" x1="456.434" x2="500.546" y1="262.912" y2="261.782" gradientUnits="userSpaceOnUse"><stop offset="0" stop-color="#725a35"/><stop offset="1" stop-color="#ac8e5c"/></linearGradient></defs><path fill="url(#i)" d="M456.364 248.578c7.974-.39 16.097-.751 24.079-.611 1.973.145 3.886-.078 5.19.961l-.162 9.067c3.581.003 9.54-.168 12.931.178l.15.831c7.707.005 16.024-.138 23.666.302 4.464.166 8.783.304 13.24.697l3.194.305-.377.723c-.189 2.095-.518 3.712.055 5.722l.648.646c3.71.282 6.033.678 9.709 1.378 3.957.76 7.157 1.324 10.989 2.537 2.763 3.09 2.135 5.736 1.125 9.58-3.62 1.176-7.281.008-11.086-.727-.577 1.896-1.09 5.798-1.707 6.673-3.409-.645-7.084-1.078-10.543-1.546-.06-.017-6.859-.512-8.208-.72l-18.139-.62c-3.621.121-11.025.128-14.446-.324-.457 1.146-.644 1.544-.974 2.725l-.189-.382c-1.28-.885-8.773-.622-10.985-.646l-.691-1.545c-9.476-.18-19.282.61-28.764.758-3.609.252-8.842.781-12.34.784.319-1.948.266-4.753.297-6.793.139-3.877-.811-13.516.357-15.988l.337-1.098a138 138 0 0 1-.215-11.496c4.175-.581 8.644-.95 12.859-1.371" transform="scale(.98828)"/><path fill="#132741" d="M508.776 262.851q8.224.24 16.434.74c2.199.136 5.372.25 7.452.674 3.666.279 5.962.67 9.595 1.362 3.91.751 7.073 1.309 10.86 2.507 2.73 3.054 2.11 5.67 1.112 9.468-3.578 1.162-7.196.008-10.956-.718-.57 1.874-1.077 5.73-1.687 6.595-3.37-.638-7.001-1.066-10.42-1.528-.059-.017-6.778-.506-8.111-.712l-17.927-.613c-3.578.12-10.896.127-14.276-.32l.048-.499c-1.256-.914-2.808-3.108-3.147-4.798l1.105-1.17 2.865-.013-.703-1.699c.01-2.785.157-4.615.431-7.336l.696-2.003z"/><path fill="#c5a977" d="M491.723 273.826c4.864-.03 16.299-.349 20.805.326 5.46.043 9.908.244 15.345.618a65 65 0 0 0 3.904.284c-.909 1.717-.645 4.824-.61 6.897-.06-.017-6.78-.506-8.112-.712l-17.927-.613c-3.578.12-10.896.127-14.276-.32l.048-.499c-1.256-.914-2.808-3.108-3.147-4.798l1.105-1.17z"/><path fill="#a78455" d="M491.723 273.826c4.864-.03 16.299-.349 20.805.326q-7.933.216-15.85.786l-.46.507.398.752c1.124.16 2.076.385 3.157.73.51 1.302.404.661.197 1.963 1.987.63 3.467.584 5.158 1.736-3.578.12-10.896.127-14.276-.32l.048-.499c-1.256-.914-2.808-3.108-3.147-4.798l1.105-1.17z"/><path fill="#a78455" d="M527.873 274.77a65 65 0 0 0 3.904.284c-.909 1.717-.645 4.824-.61 6.897-.06-.017-6.78-.506-8.112-.712 1.695-.002 2.353.124 3.917-.574 1.493-2.064 1.208-3.152.9-5.895"/><path fill="#e7d2a8" d="M531.777 275.054c3.776.518 7.8.985 11.496 1.83-.57 1.874-1.077 5.73-1.687 6.595-3.37-.638-7.001-1.066-10.42-1.528-.034-2.073-.298-5.18.611-6.897"/><path fill="#132741" d="M450.316 256.78c.625 2.02.245 4.839.076 7.033 4.97-.38 9.554-.44 14.522-.512 4.798.226 9.585-.188 14.087.047-.238 2.82-.48 4.66-.158 7.511-.226 2.222.202 1.344-.931 2.908l10.946.073-1.105 1.169c.34 1.69 1.89 3.884 3.147 4.798l-.048.5c-.452 1.132-.637 1.525-.963 2.692l-.187-.377c-1.265-.875-8.67-.615-10.856-.639l-.683-1.527c-9.365-.178-19.056.603-28.427.75-3.567.249-8.738.771-12.195.774.315-1.925.263-4.697.293-6.713.138-3.832-.801-13.358.353-15.8l.333-1.086c.841-.333 3.092-.759 4.093-.975 2.405-.315 5.252-.449 7.703-.627"/><defs><linearGradient id="j" x1="457.343" x2="492.176" y1="287.073" y2="273.984" gradientUnits="userSpaceOnUse"><stop offset="0" stop-color="#695534"/><stop offset="1" stop-color="#a68857"/></linearGradient></defs><path fill="url(#j)" d="m483.579 277.013 11.076.074-1.118 1.183c.343 1.71 1.913 3.93 3.184 4.855l-.049.505c-.457 1.146-.644 1.544-.974 2.725l-.189-.382c-1.28-.885-8.773-.622-10.985-.646l-.691-1.545c-9.476-.18-19.282.61-28.764.758.217-2.17.253-4.853.344-7.07 9.666-.241 18.44-.506 28.166-.457" transform="scale(.98828)"/><path fill="#2e2d2d" d="M478.163 280.456c3.936.017 8.84.171 12.689-.15-.452 1.133-.637 1.526-.963 2.693l-.187-.377c-1.265-.875-8.67-.615-10.856-.639z"/><path fill="#bc9c6e" d="M437.834 275.267c4.78-.743 7.424-.994 12.242-1.049-.09 2.191-.125 4.843-.34 6.987-3.567.25-8.738.772-12.195.775.315-1.925.263-4.697.293-6.713"/><path fill="#d5bb8d" d="M450.316 256.78c.625 2.02.245 4.839.076 7.033l-3.597.123c-1.712.014-2.531.2-3.976-.703-1.177-2.214-.794-3.294-.206-5.827 2.405-.315 5.252-.449 7.703-.627"/><path fill="#bc9c6e" d="M438.52 258.381c.841-.333 3.092-.759 4.093-.975-.588 2.533-.971 3.613.206 5.827 1.445.903 2.264.717 3.976.703-2.624.352-5.562 1.18-7.74.04-1.237-1.917-.806-1.803-.868-4.51z"/><path fill="#132741" d="M451.016 245.665c7.88-.386 15.908-.742 23.797-.604 1.95.143 3.84-.077 5.129.95l-.16 8.96-.465 1.148c-4.457.122-26.225.068-29 .66-2.452.178-5.299.312-7.704.627-1 .216-3.252.642-4.093.975-.228-3.782-.3-7.572-.212-11.361 4.126-.574 8.542-.939 12.708-1.355"/><path fill="#c5a977" d="M516.098 256.267c4.412.164 8.68.3 13.085.689l3.157.301-.373.715c-.187 2.07-.512 3.668.054 5.655l.64.638c-2.079-.425-5.252-.538-7.45-.675a518 518 0 0 0-16.435-.739c-4.857-1.841-8.482-.84-13.91-1.372-1.5-1.26-1.173-.514-1.416-2.102 2.604-2.901 17.595-2.779 22.648-3.11"/><path fill="#a78455" d="m529.183 256.956 3.157.301-.373.715c-.187 2.07-.512 3.668.054 5.655l.64.638c-2.079-.425-5.252-.538-7.45-.675 1.363-.13 1.886-.068 3.113-.666 1.529-2.225 1.202-3.13.859-5.968"/><path fill="#a78455" d="M479.358 264.385c2.876-.01 9.758-.272 12.093.406-.274 2.72-.42 4.551-.43 7.336l.702 1.699-2.865.014-10.946-.073c1.133-1.564.705-.686.93-2.908l.227-.083z"/><path fill="#2e2d2d" d="m478.843 270.86.226-.084.63 1.213c3.135.577 8.01.26 11.321.138l.703 1.699-2.865.014-10.946-.073c1.133-1.564.705-.686.93-2.908"/><path fill="#222e37" d="M464.914 263.3c4.018-.74 21.969-.467 27.233-.512l-.696 2.003c-2.335-.678-9.217-.416-12.093-.406l-.289 6.391-.226.083c-.321-2.851-.08-4.69.158-7.51-4.502-.236-9.289.178-14.087-.048"/><path fill="#2e2d2d" d="M479.782 254.972c3.539.003 9.428-.166 12.78.175l.147.822c-4.435.002-8.95.1-13.392.15z"/><path fill="#132741" d="M449.736 281.205c9.37-.146 19.062-.927 28.427-.749l.683 1.527c.017 2.448-.094 6.356.298 8.658l.423.204c1.773-.625 2.828-1.231 4.635-.82 1.386.89 1.445.865 2.515 2.084 3.186 3.62 4.181 5.798 8.673 6.233-1.461.262-2.63.274-3.688 1.246 1.555 1.69 5.83 5.94 6.305 7.753-3.265 2.723-6.11 5.138-9.196 8.052l.657.614c1.008-.22 1.232-.444 2.22-.199l1.282.55c-2.882.782-3.619.36-4.583 3.426l-.277 5.557c-2.978-.302-7.747-.403-10.625.197-1.63 1.081-4.356.636-6.83 1.026-3.844.035-25.941-.369-27.779.392l-4.025.223c-1.269.367-2.147.45-2.978 1.444-1.141.071-.736.091-1.853-.22-1.61-2.88-1.021-8.262-.927-11.77 1.307-2.99-.788-5.042 1.292-7.547 1.173.305.782.293 1.97.238l.033-1.732c-.082-1.734-.249-6.592.49-7.932.465-1.942.327-3.223.296-5.24-.553-2.008.314-9.642.367-12.44 3.457-.003 8.628-.525 12.195-.775"/><path fill="#132741" d="M449.736 281.205c9.37-.146 19.062-.927 28.427-.749l.683 1.527c.017 2.448-.094 6.356.298 8.658l.423.204c-2.48 3.566-2.94 3.874-5.843 6.988-8.21.276-16.429.407-24.613 1.042q-6.12.357-12.232.785c.464-1.942.326-3.223.295-5.24-.553-2.008.314-9.642.367-12.44 3.457-.003 8.628-.525 12.195-.775"/><path fill="#79613c" d="m479.144 290.64.423.205c-2.48 3.566-2.94 3.874-5.843 6.988-8.21.276-16.429.407-24.613 1.042l.25-7.035c4.987-.353 27.283-.268 29.783-1.2"/><path fill="#bc9c6e" d="m437.174 294.42.165-.965c1.758-1.677 9.226-1.536 12.022-1.615l-.25 7.035q-6.12.357-12.232.785c.464-1.942.326-3.223.295-5.24"/><defs><linearGradient id="k" x1="475.577" x2="501.848" y1="311.414" y2="306.507" gradientUnits="userSpaceOnUse"><stop offset="0" stop-color="#99723a"/><stop offset="1" stop-color="#ac8d55"/></linearGradient></defs><path fill="url(#k)" d="M485.254 294.294c1.794-.633 2.861-1.246 4.69-.83 1.402.901 1.462.875 2.544 2.109 3.224 3.662 4.231 5.867 8.776 6.307-1.478.265-2.66.277-3.731 1.261 1.573 1.709 5.898 6.01 6.379 7.844-3.303 2.756-6.183 5.199-9.305 8.148l.665.621c1.02-.223 1.247-.449 2.246-.201l1.298.557c-2.917.791-3.662.363-4.638 3.466l-.28 5.623c-3.013-.306-7.839-.408-10.751.199-.458-3.092.567-5.883-.929-8.239-1.591-1.299-2.314-1.194-4.454-1.492l1.345-.601c-2.043-2.443-4.276-4.389-6.616-6.54l.483-2.043c2.308-3.046 4.315-4.989 7.024-7.708l-.659-1.41c2.938-3.151 3.403-3.463 5.913-7.071" transform="scale(.98828)"/><path fill="#222e37" d="m476.227 314.364 6.744 6.15c1.465-1.745 3.872-3.93 5.84-5.12l.657.613c1.008-.22 1.232-.444 2.22-.199l1.282.55c-2.882.782-3.619.36-4.583 3.426l-.277 5.557c-2.978-.302-7.747-.403-10.625.197-.453-3.056.56-5.814-.918-8.143-1.572-1.283-2.287-1.18-4.402-1.474l1.33-.594c1.38-1.037.479.602 2.732-.963"/><path fill="#a78455" d="M477.485 325.538c.26-1.55.4-3.638.624-5.31l.596-.217c6.452 5.385 5.073.98 9.682-.227l-.277 5.557c-2.978-.302-7.747-.403-10.625.197"/><path fill="#222e37" d="M479.567 290.845c1.773-.625 2.828-1.231 4.635-.82 1.386.89 1.445.865 2.515 2.084 3.186 3.62 4.181 5.798 8.673 6.233-1.461.262-2.63.274-3.688 1.246-3.01-3.178-5.483-5.815-8.802-8.705-2.574 2.274-5.992 5.856-8.525 8.344l-.651-1.394c2.903-3.114 3.363-3.422 5.843-6.988"/><path fill="#222e37" d="m466.956 308.864.477-2.02c2.967 2.387 6.138 4.816 8.794 7.52-2.253 1.565-1.352-.074-2.733.963-2.019-2.415-4.226-4.338-6.538-6.463"/><path fill="#79613c" d="M448.526 309.39c6.208-.102 12.122-.5 18.43-.526 2.312 2.125 4.52 4.048 6.538 6.463l-1.329.594c-5.622-.384-17.734.502-23.824.785z"/><path fill="#c5a977" d="M448.34 316.706c-1.702.005-9.027 1.163-10.357.453-3.95-2.108-1.525-7.494 2.953-7.553 1.947-.027 5.244-.18 7.59-.217z"/><path fill="#132741" d="M490.852 280.306c3.38.447 10.698.44 14.276.32l17.927.613c1.333.206 8.052.695 8.111.712 3.419.462 7.05.89 10.42 1.528l7.967 1.396c5.571 1.577 6.467 8.151 1.678 10.966-1.068.075-1.701.118-2.777.113-2.173-1.17-13.924-2.78-16.874-3.18-.357-.13-2.442-.204-2.963-.234-.229 1.931-.511 5.17-.989 6.945-1.682-.085-3.398-.262-5.08-.412a816 816 0 0 0-20.689-.732l-6.47.001c-4.491-.435-5.486-2.614-8.672-6.233-1.07-1.22-1.13-1.194-2.515-2.084-1.807-.411-2.862.195-4.635.82l-.423-.204c-.392-2.302-.281-6.21-.298-8.658 2.186.024 9.591-.236 10.856.639l.187.377c.326-1.167.51-1.56.963-2.693"/><defs><linearGradient id="l" x1="505.483" x2="528.171" y1="296.62" y2="299.763" gradientUnits="userSpaceOnUse"><stop offset="0" stop-color="#ac9366"/><stop offset="1" stop-color="#d7c9a3"/></linearGradient></defs><path fill="url(#l)" d="M504.982 294.951q11.748.165 23.492.529c2.18.116 4.257.167 6.411.529-.231 1.954-.517 5.231-1 7.027-1.702-.086-3.439-.265-5.141-.417a826 826 0 0 0-20.934-.74l-2.162-.596.148-.299-.268-.684c.415-1.681.635-3.929-.546-5.349" transform="scale(.98828)"/><path fill="#c5a977" d="M522.28 292.017c2.155.115 4.208.165 6.337.523-.229 1.931-.511 5.17-.989 6.945-1.682-.085-3.398-.262-5.08-.412-.194-2.332-.21-4.714-.267-7.056"/><path fill="#a78455" d="M478.846 281.983c2.186.024 9.591-.236 10.856.639l.187.377c-.073 2.133.1 5.906-1.013 7.404l-2.186-.23c-.018 1.03-.11.575.185 1.378q6.094-.082 12.19-.057c1.166 1.404.949 3.625.539 5.287l.265.676-.147.295 2.137.59h-6.47c-4.491-.435-5.486-2.614-8.672-6.233-1.07-1.22-1.13-1.194-2.515-2.084-1.807-.411-2.862.195-4.635.82l-.423-.204c-.392-2.302-.281-6.21-.298-8.658"/><path fill="#132741" d="M492.97 316.359c5.963-.426 26.41.517 32.408 1.11 1.85.248 2.485.312 4.339.27 4.266.55 10.709 1.273 14.768 2.22 7.484 1.401 9.346 4.144 5.434 11.002-1.427.056-3.17-.03-4.626-.065-4.14-.748-11.967-2.274-15.934-2.272-6.02-1.307-20.534-1.609-26.805-1.577-3.956-.457-9.49-.378-13.58-.436l-.864-1.27.277-5.557c.964-3.067 1.7-2.644 4.583-3.425"/><defs><linearGradient id="m" x1="514.349" x2="520.287" y1="324.311" y2="309.649" gradientUnits="userSpaceOnUse"><stop offset="0" stop-color="#b1986b"/><stop offset="1" stop-color="#d2bf94"/></linearGradient></defs><path fill="url(#m)" d="M494.607 319.133c3.122-2.949 6.002-5.392 9.305-8.148l.484 1.23c1.619.391 2.522.526 4.181.732 6.306.217 16.313.269 22.31.981 1.961.084 3.355.055 5.252.514l-.141 7.065c-1.876.042-2.519-.023-4.39-.273-6.069-.6-26.759-1.555-32.792-1.124l-1.298-.557c-.999-.248-1.226-.022-2.246.201z" transform="scale(.98828)"/><path fill="#a78455" d="M524.666 310.25c1.938.082 3.315.053 5.19.507l-.14 6.982c-1.853.042-2.489-.022-4.338-.27.302-.389.116-.191.676-.605l.472-.343c.582-3.223 1.181-1.47.436-4.598-.866-.483-1.548-1.025-2.296-1.674"/><path fill="#222e37" d="M488.81 315.393c3.086-2.914 5.932-5.329 9.197-8.052l.478 1.215c1.6.387 2.492.52 4.132.724-5.984-.006-7.071 2.335-10.93 6.528-.987-.245-1.211-.022-2.22.199z"/><defs><linearGradient id="n" x1="553.509" x2="538.259" y1="306.491" y2="296.358" gradientUnits="userSpaceOnUse"><stop offset="0" stop-color="#bfa571"/><stop offset="1" stop-color="#e6d3a8"/></linearGradient></defs><path fill="url(#n)" d="M534.885 296.009c.528.03 2.637.105 2.998.237 2.985.405 14.876 2.034 17.075 3.217l-.496.767c1.911.537 1.22.008 2.31 1.395.012 1.651.022 2.331-.226 4.012 1.102.093.565.083 1.612.039l-.86.229c-.303.671-.116.428-.523.785-5.957-1.507-13.612-2.442-19.754-3.315l-3.136-.339c.483-1.796.769-5.073 1-7.027" transform="scale(.98828)"/><path fill="#a78455" d="M528.617 292.54c.521.03 2.606.104 2.963.234-1.201 1.225-.967 2.358-.933 4.438q.027 1.302.08 2.608l-3.099-.335c.478-1.775.76-5.014.989-6.945"/><path fill="#d5bb8d" d="M529.856 310.757c4.262.354 11.816 1.366 15.938 2.55.96.5 1.616.842 2.555 1.394l-.09 1.296 1.574.198c.25 1.385-.69 2.769-1.932 3.374-.869-.35-1.84-.87-2.618-1.133l-.798 1.524c-4.06-.948-10.502-1.671-14.768-2.22z"/><defs><linearGradient id="o" x1="580.495" x2="534.632" y1="318.22" y2="317.064" gradientUnits="userSpaceOnUse"><stop offset="0" stop-color="#8c6931"/><stop offset="1" stop-color="#e0ba7e"/></linearGradient></defs><path fill="url(#o)" d="M552.131 218.615c-1.492-1.299-2.027-1.087-3.779-1.826.906-1.446 1.361-2.447 2.076-3.97 3.31.818 7.431 2.632 10.408 2.882 4.888 1.923 11.662 8.607 14.784 12.871 6.345 8.668 8.683 23.928 7.082 34.318-.206 2.935-.587 6.762-.636 9.631.063 1.241.168 2.633.174 3.861l-.441 4.114-.249.137c-.369 3.037-1.235 5.35-2.158 8.252-1.414-.735-2.983-1.674-4.472-2.075-2.124 4.043-.49 2.787-1.004 6.871-1.292-.024-3.244-.119-4.481-.073-.254 2.579-.551 5.049-.565 7.644-1.108 2.251-.487 4.614-.382 7.378-.168 1.248-.368 2.488-.442 3.742-.667 2.696-.663 4.026-.17 6.806 2.099 1.99 2.555 2.21 5.234 3.296l.055 1.377c-2.547 2.637-.877 2.59-1.806 5.193l3.055 1.066c2.386 1.125 2.486.706 3.685 2.564l-.105 4c-.181 1.758-.358 3.437-.461 5.201.166 3.765.023 4.28-.559 7.946-.183 2.945-.498 6.558-.484 9.442-.139 3.3-.298 11.155-.884 14.07l-.127 1.643.071 2.555c-1.185 25.962-5.504 37.952-32.582 43.737-3.974.848-7.836 1.676-11.941 1.737-4.053.98-18.577 2.793-21.471.274-1.359-1.392-5.49-4.471-7.233-5.827l-.185-2.953c.885-1.402.876-.984 3.079-1.549-1.522-2.337-2.178-3.866-3.311-6.365-1.434-4.411-3.29-13.31-1.311-17.646.927-2.032 2.177-2.392 4.136-3.146l1.256-.284c1.41.46.865.482 2.205.239l.61-.993c-.582-3.58-.037-12.409 1.297-15.72-.606-1.059-2.866-.733-4.475-1.47 5.935-.02 20.372.31 26.029 1.486 1.07-.005 2.236-.124 3.202.179q3.377.47 6.747.975c3.242.182 6.732.913 9.964 1.492 3.371-.557 3.43-1.679 4.477-4.595-.346-2.313-.43-3.221-1.19-5.392l-3.749-1.362a338 338 0 0 0-6.627-1.171c.62-3.039 1.351-3.924.468-6.998l7.509 1.417.551-.227 2.455-.231c2.189-2.461 1.739-3.381 1.693-6.722-.528-1.416-.848-1.905-1.564-3.217l-2.688-.959-1.323-.375c1.677-.962 1.021-.312 1.957-2.098.028-2.046-.8-3.153-1.776-4.947 1.474.035 3.237.122 4.681.066 3.958-6.94 2.074-9.715-5.499-11.132l.808-1.542c.787.267 1.77.793 2.649 1.146 1.257-.612 2.207-2.012 1.955-3.414l-1.592-.2.09-1.311a50 50 0 0 0-2.585-1.41c8.654 1.615 9.414-7.245 4.509-10.333.407-.357.22-.114.523-.785l.86-.229c-1.047.044-.51.054-1.612-.039.248-1.681.238-2.361.226-4.012-1.09-1.387-.399-.858-2.31-1.395l.496-.767c1.088.005 1.729-.038 2.809-.114 4.846-2.848 3.94-9.5-1.697-11.096l-8.062-1.413c.617-.875 1.13-4.777 1.707-6.673 3.805.735 7.466 1.903 11.086.727 1.01-3.844 1.638-6.49-1.125-9.58 1.287.018 1.28.082 2.473-.342 1.315-2.421 2.056-4.991.327-7.449l-2.373.101c3.117-3.07 3.564-6.305 1.117-9.99-6.954-2.611-14.949-3.502-22.316-4.548.24-5.475.657-12.12 1.741-17.401 1.357-6.614 3.041-14.985 11.486-13.07" transform="scale(.98828)"/><path fill="#d5bb8d" d="M499.699 363.258c5.865-.02 20.133.306 25.724 1.468-.223 3.477-.79 20.617-2.357 22.22l-.6-.77c-.271 5.128 2.092 11.068 4.797 15.333 1.715 1.662 2.38 2.43 4.383 3.655l6.224 4.095c-4.19 3.78-5.723 4.953-11.339 2.941-.954 4.702-.636 3.086-4.209 5.63l2.482.218c-4.006.968-18.36 2.76-21.22.27-1.343-1.375-5.425-4.418-7.148-5.758l-.183-2.919c.875-1.385.866-.972 3.043-1.53-1.504-2.31-2.152-3.821-3.272-6.29-1.417-4.36-3.251-13.155-1.295-17.44.916-2.008 2.151-2.364 4.087-3.11l1.241-.28c1.394.455.855.477 2.18.236l.602-.98c-.575-3.539-.036-12.265 1.282-15.537-.599-1.046-2.832-.724-4.422-1.452"/><path fill="#132741" d="M498.816 381.272c1.815.606 3.523 1.107 4.174 3.026 2.204 6.509 1.073 10.372 3.519 17.36 1.022 2.065 2.153 4.694 3.873 6.207 1.783-.837 5.887-1.53 7.963-1.94 1.487 1.518 2.936 3.057 4.534 4.455l3.652 1.82c-.954 4.702-.636 3.086-4.209 5.63l2.482.218c-4.006.968-18.36 2.76-21.22.27-1.343-1.375-5.425-4.418-7.148-5.758l-.183-2.919c.875-1.385.866-.972 3.043-1.53-1.504-2.31-2.152-3.821-3.272-6.29-1.417-4.36-3.251-13.155-1.295-17.44.916-2.008 2.151-2.364 4.087-3.11"/><path fill="#e7d2a8" d="M518.345 405.925c1.487 1.518 2.936 3.057 4.534 4.455l3.652 1.82c-.954 4.702-.636 3.086-4.209 5.63l-1.102-.03-.303-.948c-1.257-1.771-3.75-3.21-5.62-4.49-1.706-1.243-3.383-3.005-4.915-4.497 1.783-.837 5.887-1.53 7.963-1.94"/><path fill="#d5bb8d" d="m522.879 410.38 3.652 1.82c-.954 4.702-.636 3.086-4.209 5.63l-1.102-.03-.303-.948c-1.257-1.771-3.75-3.21-5.62-4.49 2.676-.15 4.336-.284 7.023-.702z"/><path fill="#bc9c6e" d="m496.436 412.56-.183-2.919c.875-1.385.866-.972 3.043-1.53 6.58 8.443 10.916 11.034 21.621 8.741l.303.948 1.102.03 2.482.218c-4.006.968-18.36 2.76-21.22.27-1.343-1.375-5.425-4.418-7.148-5.758"/><path fill="#132741" d="M512.383 383.424c4.643-4.252 8.546-3.814 10.083 2.752-.271 5.128 2.092 11.068 4.797 15.333 1.715 1.662 2.38 2.43 4.383 3.655l6.224 4.095c-4.19 3.78-5.723 4.953-11.339 2.941l-3.652-1.82c-1.598-1.398-3.047-2.937-4.534-4.455l-3.55-5.179c-2.677-6.495-2.644-10.444-2.412-17.322"/><path fill="#8a6c40" d="m514.795 400.746 3.55 5.179c-2.076.41-6.18 1.103-7.963 1.94-1.72-1.513-2.851-4.142-3.873-6.207 2.539-.044 5.987-.013 8.286-.912"/><defs><linearGradient id="p" x1="556.981" x2="536.036" y1="384.072" y2="383.396" gradientUnits="userSpaceOnUse"><stop offset="0" stop-color="#b89354"/><stop offset="1" stop-color="#efd199"/></linearGradient></defs><path fill="url(#p)" d="M558.243 362.474c.642 3.153-.008 6.511-.34 9.739-1.273 12.366-4.127 27.195-18.653 29.968-1.546.295-2.218.355-3.58-.491-.588-.838-.671-.843-1.058-1.772l-.557-.687c-.338 2.249 1.019 5.593 2.838 6.855-.964.045-2.469.066-3.378.184-2.737-4.315-5.128-10.326-4.854-15.515l.607.779c1.587-1.622 2.16-18.965 2.385-22.483 1.07-.005 2.236-.124 3.202.179q3.377.47 6.747.975c3.242.182 6.732.913 9.964 1.492 3.371-.557 3.43-1.679 4.477-4.595 1.481-1.226 1.64-2.72 2.2-4.628" transform="scale(.98828)"/><path fill="#e7d2a8" d="M525.423 364.726c1.057-.005 2.21-.122 3.164.177q3.337.464 6.668.964l.3.802 1.679.15-1.143.45c-1.616.242-2.466.182-3.648 1.287-3.704 6.948.426 22.53-3.447 26.537l-.65.138-.55-.679c-.334 2.223 1.007 5.528 2.805 6.775-.953.045-2.44.065-3.338.182-2.705-4.265-5.068-10.205-4.797-15.333l.6.77c1.568-1.603 2.134-18.743 2.357-22.22"/><path fill="#a78455" d="M525.423 364.726c1.057-.005 2.21-.122 3.164.177l-1.255.237c-1.866 3.83-.525 24.217.464 29.412-.334 2.223 1.007 5.528 2.805 6.775-.953.045-2.44.065-3.338.182-2.705-4.265-5.068-10.205-4.797-15.333l.6.77c1.568-1.603 2.134-18.743 2.357-22.22"/><path fill="#d5bb8d" d="M535.255 365.867c3.204.18 6.653.902 9.847 1.474-2.679 2.82-6.311 2.544-9.01-.071l1.142-.452-1.68-.149z"/><defs><linearGradient id="q" x1="563.707" x2="539.048" y1="236.847" y2="238.022" gradientUnits="userSpaceOnUse"><stop offset="0" stop-color="#c4a56b"/><stop offset="1" stop-color="#f5d79c"/></linearGradient></defs><path fill="url(#q)" d="M538.904 249.086c.24-5.475.657-12.12 1.741-17.401 1.357-6.614 3.041-14.985 11.486-13.07.711.554 3.343 2.7 3.946 3.057 5.203 6.483 8.988 14.711 8.964 23.148-.152 3.955-.22 8.039-.423 11.967-1.153-1.356-1.803-2.368-3.398-3.153-6.954-2.611-14.949-3.502-22.316-4.548" transform="scale(.98828)"/><path fill="#bc9c6e" d="M558.42 241.951c.95 4.88-.894 54.089-1.96 55.822-.316 7.825-2.868 55.854-4.759 60.453-.553 1.886-.71 3.362-2.174 4.574-.342-2.286-.425-3.183-1.176-5.329l-3.705-1.346q-3.27-.612-6.55-1.157c.613-3.004 1.335-3.878.463-6.916l7.42 1.4.545-.224 2.427-.228c2.163-2.433 1.718-3.342 1.673-6.644-.522-1.4-.838-1.882-1.546-3.179l-2.656-.948-1.308-.37c1.657-.951 1.01-.309 1.934-2.074.028-2.022-.79-3.116-1.755-4.889 1.457.035 3.199.12 4.626.065 3.912-6.858 2.05-9.6-5.434-11.001l.798-1.524c.778.264 1.75.784 2.618 1.133 1.242-.605 2.181-1.989 1.932-3.374l-1.573-.198.089-1.296a49 49 0 0 0-2.555-1.393c8.553 1.596 9.304-7.16 4.456-10.212.402-.353.218-.113.517-.776l.85-.226c-1.035.043-.504.053-1.593-.039.245-1.661.235-2.333.223-3.965-1.077-1.37-.394-.848-2.283-1.378l.49-.758c1.076.005 1.71-.038 2.777-.113 4.789-2.815 3.893-9.389-1.678-10.966l-7.967-1.396c.61-.865 1.117-4.721 1.687-6.595 3.76.726 7.378 1.88 10.956.718.998-3.799 1.619-6.414-1.112-9.468 1.272.018 1.265.082 2.444-.338 1.3-2.392 2.032-4.932.323-7.361l-2.345.1c3.08-3.034 3.522-6.232 1.104-9.873 1.576.775 2.219 1.776 3.358 3.116.2-3.882.268-7.918.418-11.827"/><path fill="#c5a977" d="M554.229 277.602c3.142-3.067.733-6.074 1.95-8.619.52 1.677-.325 11.279-.668 13.32-1.456 2.497-1.297 2.16-4.204 1.579l-1.754.993-7.967-1.396c.61-.865 1.117-4.721 1.687-6.595 3.76.726 7.378 1.88 10.956.718"/><path fill="#d5bb8d" d="m538.559 348.052 7.42 1.4c2.594 2.59 2.613 3.558-.234 6.352l-1.1.321q-3.269-.612-6.549-1.157c.613-3.004 1.335-3.878.463-6.916"/><path fill="#c5a977" d="M545.293 330.896c1.457.035 3.199.12 4.626.065.85 2.317.311 1.93 2.007 3.056l.753-.263c-.057 3.577.39 6.039-2.055 8.602-.522-1.4-.838-1.882-1.546-3.179l-2.656-.948-1.308-.37c1.657-.951 1.01-.309 1.934-2.074.028-2.022-.79-3.116-1.755-4.889"/><path fill="#c5a977" d="m546.524 349.228 2.427-.228c3.51 1.593 2.663 4.315 1.53 7.468-.94.836-.882.766-2.13 1.003l-3.705-1.346 1.099-.321c2.847-2.794 2.828-3.762.235-6.352z"/><defs><linearGradient id="r" x1="563.805" x2="538.857" y1="314.313" y2="312.781" gradientUnits="userSpaceOnUse"><stop offset="0" stop-color="#936f3d"/><stop offset="1" stop-color="#b89052"/></linearGradient></defs><path fill="url(#r)" d="M556.077 221.672c7.393 1.031 10.859 18.18 11.018 24.539.293 11.753-.248 23.786-.872 35.535a1983 1983 0 0 1-3.787 59.982l-1.651 26.029c-.822 12.617-.807 25.667-12.278 33.771a27.5 27.5 0 0 1-7.825 3.837l-3.789.721c-1.819-1.262-3.176-4.606-2.838-6.855l.557.687c.387.929.47.934 1.058 1.772 1.362.846 2.034.786 3.58.491 14.526-2.773 17.38-17.602 18.653-29.968.332-3.228.982-6.586.34-9.739 1.913-4.654 4.496-53.252 4.815-61.17 1.079-1.754 2.945-51.546 1.983-56.484.024-8.437-3.761-16.665-8.964-23.148" transform="scale(.98828)"/><path fill="#132741" d="M558.162 347.847c1.837 5.97 5.949 6.137 11.572 7.206-.137 3.261-.294 11.024-.874 13.905l-.125 1.624.07 2.525c-8.324-1.532-12.465-2.887-10.87-11.848-.885-3.095-.62-10.29.227-13.412"/><defs><linearGradient id="s" x1="573.966" x2="565.236" y1="366.431" y2="356.737" gradientUnits="userSpaceOnUse"><stop offset="0" stop-color="#806040"/><stop offset="1" stop-color="#987848"/></linearGradient></defs><path fill="url(#s)" d="M564.781 351.972c1.858 6.04 6.019 6.21 11.709 7.291-.139 3.3-.298 11.155-.884 14.07-.073-1.738.089-4.196.15-5.991-3.867-2.026-7.114-4.51-11.205-1.799-.896-3.132-.628-10.412.23-13.571" transform="scale(.98828)"/><path fill="#132741" d="M568.735 370.582c-2.316.042-2.445-.29-3.587-2.102l.239-.794c1.795-.246 1.462.027 3.473 1.272z"/><path fill="#132741" d="m571.25 267.416 3.995 1.911c.062 1.227.166 2.602.172 3.816l-.436 4.066-.246.135c-.365 3.002-1.22 5.288-2.133 8.156-1.397-.727-2.948-1.655-4.42-2.051-1.846-.921-2.955-2.036-4.9-2.737-.08-2.897-.21-5.173.776-7.91l3.178.004-.286-1.324c.748-2.436 1.478.056 4.3-4.066"/><path fill="#866443" d="m571.25 267.416 3.995 1.911c.062 1.227.166 2.602.172 3.816l-.436 4.066-.246.135c-2.111-1.985-2.532-2.342-5.066-3.722l-2.433-.816-.286-1.324c.748-2.436 1.478.056 4.3-4.066"/><path fill="#132741" d="M565.344 263.988c-6.168-10.475 7.866-12.186 10.53-4.179-.204 2.9-.58 6.683-.63 9.518l-3.994-1.911c-2.765-1.236-3.444-1.652-5.906-3.428"/><path fill="#132741" d="M559.818 326.217c2.141-1.156 2.323-1.069 4.845-1.03l3.02 1.054c2.357 1.112 2.456.698 3.641 2.534l-.104 3.954c-.178 1.737-.353 3.396-.455 5.14-2.744-.752-5.358-1.695-8.04-2.631l-2.126-1.617c-1.29-2.843-1.065-4.335-.781-7.404"/><path fill="#132741" d="M559.352 342.918c2.263-.547 2.735-.314 5.11.111 1.758.744 4.216 1.675 5.75 2.692-.18 2.91-.492 6.482-.478 9.332-5.623-1.069-9.735-1.237-11.572-7.206.355-1.047.907-3.733 1.19-4.93"/><path fill="#866443" d="M562.725 335.238c2.682.936 5.296 1.88 8.04 2.63.164 3.721.023 4.23-.553 7.853-1.534-1.017-3.992-1.948-5.75-2.692.964-2.035 1.507-2.211 1.154-3.942-1.638-1.51-2.003-1.824-2.89-3.85"/><path fill="#8a6c40" d="M561.221 315.438c2.074 1.966 2.525 2.184 5.173 3.257l.054 1.36c-2.517 2.607-.867 2.56-1.785 5.133-2.522-.04-2.704-.127-4.845 1.029-.119-1.123 1.184-8.9 1.403-10.78"/><path fill="#8a6c40" d="m560.6 333.62 2.125 1.618c.888 2.025 1.253 2.339 2.89 3.85.354 1.73-.189 1.906-1.152 3.941-2.376-.425-2.848-.658-5.11-.111.217-3.29 1.244-5.424 1.246-9.297"/><path fill="#d5bb8d" d="m530.601 401.327 3.745-.712c2.373 1.016 2.581.658 3.876 2.424-.635 3.017-4.273 2.492-6.576 2.125-2.003-1.225-2.668-1.993-4.383-3.655.898-.117 2.385-.137 3.338-.182"/><path fill="#a78455" d="M563.282 280.712c1.945.701 3.054 1.816 4.9 2.737-2.099 3.995-.484 2.754-.992 6.79-1.277-.023-3.206-.117-4.428-.072.026-1.536.056-1.456.64-2.896 1.473-1.058 1.77-1.169 2.736-2.766.223-2.762-.995-.114-2.856-3.793"/><path fill="#8a6c40" d="M565.344 263.988c2.462 1.776 3.14 2.192 5.906 3.428-2.822 4.122-3.552 1.63-4.3 4.066l.286 1.324-3.178-.005 1.41-1.234c.766-2.748 1.06-4.982-.124-7.58"/><path fill="#a78455" d="M446.577 362.754c15.833.01 37.816-1.088 53.122.504 1.59.728 3.823.406 4.422 1.452-1.318 3.272-1.857 11.998-1.282 15.536l-.603.981c-1.324.24-.785.219-2.179-.236l-1.24.28c-1.937.746-3.172 1.102-4.088 3.11-1.956 4.285-.122 13.08 1.295 17.44 1.12 2.469 1.768 3.98 3.272 6.29-2.177.558-2.168.145-3.043 1.53l.183 2.919c1.723 1.34 5.805 4.383 7.149 5.759-3.536.357-5.991.226-9.466-.282-3.85.937-5.135.73-8.955-.338a41.6 41.6 0 0 1-10.266-1.979c-3.492.422-6.36-1.19-9.75-2.492-4.99-1.45-7.814-2.83-11.741-6.137-2.991-1.378-4.394-3.25-6.842-5.5-1.121-.558-1.987-1.304-2.979-2.069-2.048-2.9-3.964-5.852-6.06-8.727l.666-.869c-3.06-5.011-3.422-6.2-4.614-11.872-.458-4.1-.662-10.835.701-14.74 4.56-.393 7.74-.59 12.298-.56"/><path fill="#c5a977" d="M434.28 363.314c4.558-.393 7.74-.59 12.297-.56.487 6.615 1.204 12.805 1.99 19.393-1.374 9.699.722 16.367 4.84 24.944-2.991-1.378-4.394-3.25-6.842-5.5-1.121-.558-1.987-1.304-2.979-2.069-2.048-2.9-3.964-5.852-6.06-8.727l.666-.869c-3.06-5.011-3.422-6.2-4.614-11.872-.458-4.1-.662-10.835.701-14.74"/><path fill="#132741" d="M438.192 389.926c-.112-4.799-1.077-6.28 1.15-10.504l.68.016c3.677 4.83 1.964 13.866 6.543 22.154-1.121-.56-1.987-1.305-2.979-2.07-2.048-2.9-3.964-5.852-6.06-8.727z"/><path fill="#132741" d="M494.119 418.037c-11.97-5.428-16.649-17.013-16.326-29.483-.387-5.044 5.464-10.88 8.45-4.484 2.228 4.771 1.003 11.763 2.9 17.634l.211.63c1.892 1.125 4.914.81 6.67-.514 1.12 2.47 1.768 3.981 3.272 6.29-2.177.559-2.168.146-3.043 1.531l.183 2.919c1.723 1.34 5.805 4.383 7.149 5.759-3.536.357-5.991.226-9.466-.282"/><path fill="#8a6c40" d="M496.024 401.82c1.12 2.47 1.768 3.981 3.272 6.29-2.177.559-2.168.146-3.043 1.531l.183 2.919c-3.449-2.78-5.362-6.283-7.082-10.226 1.892 1.125 4.914.81 6.67-.514"/><path fill="#132741" d="M462.326 386.607c.782-3.311 1.685-5.527 5.54-5.495 1.53.62 2.185 1.324 2.884 2.83 1.023 2.207 1.028 6.258 1.08 8.768.23 11.147 6.061 17.47 13.334 24.989a41.6 41.6 0 0 1-10.266-1.979 41 41 0 0 1-3.938-3.387c-7.916-7.696-8.551-15.579-8.634-25.726"/><path fill="#132741" d="M448.567 382.147c1.619-1.028 2.386-1.763 4.288-1.773 5.526 2.453 2.134 11.78 4.219 16.238 1.046 6.033 4.854 11.39 8.074 16.616-4.99-1.45-7.814-2.83-11.741-6.137-4.118-8.577-6.214-15.245-4.84-24.944"/><path fill="#866443" d="M457.074 396.612c2.817 3.152 4.524 12.127 9.413 16.115.838-.85-6.632-17.366-4.161-26.12.083 10.147.718 18.03 8.634 25.726a41 41 0 0 0 3.938 3.387c-3.492.422-6.36-1.19-9.75-2.492-3.22-5.225-7.028-10.583-8.074-16.616"/><path fill="#e4313f" d="M574.033 328.227c1.274 1.055 1.428.74 1.48 2.591.503 17.983.146 35.88-.03 53.85-.235 24.177-16.883 41.78-41.02 43.446-9.831.585-20.52.291-30.468.338-10.77-.146-27.356.941-37.436-1.382a44.5 44.5 0 0 1-18.892-9.455c-3.814-3.238-10.455-10.378-11.17-15.343-2.857-5.875-4.402-18.125-2.92-24.218 1.193 5.673 1.555 6.86 4.615 11.872l-.665.869c2.095 2.875 4.011 5.828 6.059 8.727.992.765 1.858 1.51 2.979 2.07 2.448 2.25 3.851 4.121 6.842 5.499 3.927 3.307 6.75 4.687 11.741 6.137 3.39 1.303 6.258 2.914 9.75 2.492a41.6 41.6 0 0 0 10.266 1.979c3.82 1.067 5.105 1.275 8.955.338 3.475.508 5.93.64 9.466.282 2.86 2.49 17.213.697 21.219-.271 4.057-.06 7.874-.879 11.801-1.717 26.76-5.717 31.029-17.567 32.2-43.224l-.07-2.525.125-1.624c.58-2.88.737-10.644.874-13.905-.014-2.85.298-6.421.478-9.332.576-3.623.717-4.132.553-7.852.102-1.744.277-3.403.455-5.14l.312-.819c.804-2.146.69-2.418 2.501-3.683"/><path fill="#ad434e" d="M433.578 378.054c1.192 5.673 1.554 6.86 4.614 11.872l-.665.869c2.095 2.875 4.011 5.828 6.059 8.727-1.207.885-1.333 1.139-2.82 1.363-1.45-1.157-1.592-2.869-2.255-4.93-.582 1.504-.324 2.507-.167 4.116l-.368.4c-1.207-1.78-.765-2.956-2.04-5.323l-.668-.346c-.31 3.158 1.641 3.975 1.229 7.47-2.857-5.875-4.402-18.125-2.92-24.218"/><defs><linearGradient id="t" x1="427.216" x2="471.64" y1="401.203" y2="375.692" gradientUnits="userSpaceOnUse"><stop offset="0" stop-color="#957045"/><stop offset="1" stop-color="#b3915b"/></linearGradient></defs><path fill="url(#t)" d="M427.417 313.72c2.219-.352 6.937-1.355 8.843-.43 1.585.77 1.349 1.791 1.689 3.55-.856 4.53 1.279 11.271-2.218 13.352-.836 3.673-.115 8.877-.288 12.83l.04 19.784c-.108 28.333-3.506 53.843 26.4 68.962 17.921 7.324 39.167 4.409 58.915 4.825-4.899 1.272-16.278.449-21.946.571 3.926 2.065 1.768-2.43 7.142 4.596l-.067.797-1.618.532c2.235.771 15.155.417 19.27.84-11.004.498-22.408-.218-33.338.092-27.635.782-54.117-12.606-60.456-41.29-1.849-8.367-1.401-16.644-1.445-25.133l.143-39.893c-.03-8.123-1.21-15.392-1.066-23.985" transform="scale(.98828)"/><defs><linearGradient id="u" x1="450.874" x2="432.498" y1="388.425" y2="391.537" gradientUnits="userSpaceOnUse"><stop offset="0" stop-color="#b78c4f"/><stop offset="1" stop-color="#d2b992"/></linearGradient></defs><path fill="url(#u)" d="M432.515 354.002c1.338-4.808 1.929-7.933 2.071-12.97.08-2.801-.826-4.442-.167-6.949.211.179.833 7.628 1.024 8.939l.04 19.784c-.108 28.333-3.506 53.843 26.4 68.962-4.318 2.024-15.355-7.584-18.273-10.866-13.341-15.004-11.973-35.257-11.813-53.941.083-9.65.048-19.524.485-29.233.435 4.416.228 11.642.233 16.274" transform="scale(.98828)"/><defs><linearGradient id="v" x1="589.609" x2="547.892" y1="374.964" y2="375.037" gradientUnits="userSpaceOnUse"><stop offset="0" stop-color="#ae8b5b"/><stop offset="1" stop-color="#c9af74"/></linearGradient></defs><path fill="url(#v)" d="M581.333 312.629c3.153-.296 6.023-.201 9.182-.155.218 5.414.598 11.452.418 16.818-2.114 1.969-1.303 4.058-1.613 7.083-2.932 28.644 9.14 68.141-14.554 90.088-8.597 7.963-18.342 13.223-29.685 11.443a23 23 0 0 0 2.091-1.039c-2.537-.058-3.794.593-6.193-.34 21.411-2.841 38.462-13.759 43.028-36.023.587-2.966.921-5.977.999-9 .612-19.915-.589-40.53-.483-60.515.007-1.247-1.93-1.82-2.896-2.302-1.37-2.491-.457-12.72-.294-16.058" transform="scale(.98828)"/><defs><linearGradient id="w" x1="521.862" x2="590.69" y1="378.73" y2="399.649" gradientUnits="userSpaceOnUse"><stop offset="0" stop-color="#c99c5d"/><stop offset="1" stop-color="#e6cea5"/></linearGradient></defs><path fill="url(#w)" d="M540.979 436.527c2.399.933 3.656.282 6.193.34-.682.386-1.373.724-2.091 1.039 11.343 1.78 21.088-3.48 29.685-11.443 23.694-21.947 11.622-61.444 14.554-90.088.31-3.025-.501-5.114 1.613-7.083 2.167 5.298.898 25.757 1.044 32.598.247 11.54.266 24.233-.276 35.812-1.258 15.742-10.597 29.38-23.803 37.648-13.92 8.714-28.396 9.525-44.319 8.579-4.115-.423-17.035-.069-19.27-.84l1.618-.532.067-.797c-5.374-7.026-3.216-2.531-7.142-4.596 5.668-.122 17.047.701 21.946-.571a505 505 0 0 1 20.181-.066" transform="scale(.98828)"/><path fill="#2f2735" d="M432.817 313.127c.252 1.577.308 1.846.276 3.506-.094 3.508-.683 8.89.927 11.77 1.117.311.712.291 1.853.22l-.201 1.787c-.058 1.572-.2 3.108.01 4.654l-.345.14c-.698 1.932-.414 2.17-1.763 3.183-.582-.08-.908-.066-1.427-.287-.288 2.061-.312 2.672-.197 4.75 3.413.74.307.857 3.257 2.448l.458.104c-.666 2.696-.728 4.221-.92 6.943-.508 2.46-.427 4.287-.455 6.78l-2.26-.503-1.65-.068-.04-19.552c.171-3.907-.542-9.05.285-12.68 3.456-2.056 1.346-8.718 2.192-13.195"/><path fill="#7a3c46" d="M431.95 342.85c3.413.74.307.857 3.257 2.448l.458.104c-.666 2.696-.728 4.221-.92 6.943-.508 2.46-.427 4.287-.455 6.78l-2.26-.503c.735-4.545-.14-10.786-.08-15.772"/><path fill="#7a3c46" d="M432.147 338.1c.272-2.99-.792-6.262 1.233-8.181l2.292.491c-.058 1.572-.2 3.108.01 4.654l-.345.14c-.698 1.932-.414 2.17-1.763 3.183-.582-.08-.908-.066-1.427-.287"/><path fill="#ad434e" d="M480.672 441.344c16.826-.294 38.5-.438 55.241-.017l-.6.093c-2.86.422-9.466-.53-11.702 1.975-.614.688-.26 1.102-1.04 1.729l-.39-.945c-2.171-.78-17.615-.403-20.748-.36-3.303-.003-8.376.162-11.532-.038l-.702-1.467c-2.195-.959-5.9-.83-8.527-.97"/><path fill="#8a6c40" d="M562.203 297.722c1.798 1.703 2.128 2.04 4.326 3.14l6.044 1.753c-1.417 3.944-2.84 3.702-6.413 5.153-2.355-.022-2.803-.184-4.77.943.072-1.239.27-2.464.436-3.698-.104-2.731-.718-5.067.377-7.291"/><path fill="#a78455" d="M562.203 297.722c1.798 1.703 2.128 2.04 4.326 3.14l.228 2.09c-1.51 1.644-2.74.534-4.931 2.061-.104-2.731-.718-5.067.377-7.291"/><path fill="#866443" d="m566.394 318.695.545.273c2.804.81 2.574.28 4.223 2.115.778 2.877.08 4.893 1.078 6.5l1.793.644c-1.81 1.265-1.697 1.537-2.501 3.683l-.312.819.104-3.954c-1.185-1.836-1.284-1.422-3.642-2.534l-3.019-1.053c.918-2.573-.732-2.526 1.785-5.132z"/><path fill="#79613c" d="m566.394 318.695.545.273c.72 2.394 1.13 2.908 2.806 4.767-.267 1.223-.937 1.453-2.063 2.506l-3.019-1.053c.918-2.573-.732-2.526 1.785-5.132z"/><path fill="#866443" d="m572.573 302.615.627-.177c.056 1.027.216 2.76.133 3.72-.796 1.627-1.009 2.699-1.393 4.48l-.214-.155.01-.53c-2.06-.343-3.509-1.53-5.576-2.185 3.573-1.451 4.996-1.21 6.413-5.153"/><path fill="#c5a977" d="M585.805 309.444c1.465.182 1.44.069 2.5 1.058 1.921 4.133 1.188 10.685.792 15.269-1.846-.093-1.281.161-2.784-.606-1.736-3.518-.8-11.547-.508-15.721"/><path fill="#a78455" d="M252.632 433.525c-8.144-2.835-16.15-7.4-24.598-9.56-2.418-.617-11.065-1.48-10.584-5.048 5.54-3.948 20.546 4.29 26.675 4.828 1.47 1.473 3.344 3.652 4.716 4.918 1.027 1.295 2.95 3.566 3.791 4.862"/><path fill="#ad434e" d="m406.313 250.681 2.853-.79c.643 9.632 3.65 19.824 5.728 29.403 1.719 7.921 3.021 19.2 5.153 26.513 1.517.79 2.282.612 4.095.74-1.823.143-4.738.198-6.297.907-4.844-16.52-7.776-39.58-11.532-56.773"/><path fill="#132741" d="M597.94 289.934c1.871-1.688 2.507-3.126 4.616-4.664l.685.74c-1.677 7.833-1.597 10.075-7.473 15.373l-2.545-.4c-.023-3.046.258-5.17 1.023-8.108l.931-3.838 2.395.072z"/><path fill="#cb948c" d="m595.177 289.037 2.395.072.369.825c-1.322 4.351-2.097 6.83-2.173 11.45l-2.545-.4c-.023-3.047.258-5.172 1.023-8.109z"/><path fill="#ad434e" d="M776.885 383.416c5.167.198 8.774-.182 13.888-.65-3.737 2.456-6.435 3.515-10.549 5.28-.972-2.87-.897-3.333-3.34-4.63"/><path fill="#191115" fill-opacity=".965" d="m506.814 573.34 1.043-.028.052.438q-3.255.98-6.548 1.829c-.71.238-.298.182-1.248.004l.228-.49c2.788-1.403 3.451-1.414 6.473-1.754"/></svg>